<?xml version="1.0" encoding="UTF-8" standalone="no"?>
<!-- Created with Inkscape (http://www.inkscape.org/) -->

<svg
   width="139.66661mm"
   height="91.563202mm"
   viewBox="0 0 139.66661 91.563202"
   version="1.1"
   id="svg1229"
   inkscape:version="1.1 (c4e8f9e, 2021-05-24)"
   sodipodi:docname="basketball_shots.svg"
   xmlns:inkscape="http://www.inkscape.org/namespaces/inkscape"
   xmlns:sodipodi="http://sodipodi.sourceforge.net/DTD/sodipodi-0.dtd"
   xmlns="http://www.w3.org/2000/svg"
   xmlns:svg="http://www.w3.org/2000/svg">
  <sodipodi:namedview
     id="namedview1231"
     pagecolor="#ffffff"
     bordercolor="#666666"
     borderopacity="1.0"
     inkscape:pageshadow="2"
     inkscape:pageopacity="0.0"
     inkscape:pagecheckerboard="0"
     inkscape:document-units="mm"
     showgrid="false"
     fit-margin-left="5"
     fit-margin-top="5"
     fit-margin-bottom="5"
     fit-margin-right="5"
     lock-margins="true"
     inkscape:zoom="2.321745"
     inkscape:cx="-57.930566"
     inkscape:cy="153.76366"
     inkscape:window-width="1962"
     inkscape:window-height="928"
     inkscape:window-x="0"
     inkscape:window-y="25"
     inkscape:window-maximized="0"
     inkscape:current-layer="layer1" />
  <defs
     id="defs1226" />
  <g
     inkscape:label="Layer 1"
     inkscape:groupmode="layer"
     id="layer1"
     transform="translate(-73.597797,-64.983248)">
    <g
       id="g946"
       transform="matrix(0.37013444,0,0,-0.33626777,55.87876,279.65276)">
      <path
         d="m 160.652,558.471 57.489,24.554 m -56.786,-36.333 56.786,-24.613 m 30.59,6.505 43.131,18.518 m -43.483,-29.77 43.483,-18.928 m -43.131,-22.034 43.307,18.401 m -43.659,-29.653 43.483,-18.987 m -43.131,-33.286 43.248,18.518 m -43.6,-29.77 43.6,-18.987 m -43.248,208.917 43.19,18.635 m -43.542,-29.887 43.6,-18.987 m -131.327,-116.091 57.489,24.555 m -58.075,-35.923 58.075,-25.024"
         style="fill:none;stroke:#231f20;stroke-width:0.469;stroke-linecap:butt;stroke-linejoin:miter;stroke-miterlimit:2.613;stroke-dasharray:none;stroke-opacity:1"
         id="path948" />
    </g>
    <g
       id="g950"
       transform="matrix(0.37013444,0,0,-0.33626777,55.87876,279.65276)">
      <path
         d="m 76.968,481.761 c 8.457,0 15.354,6.897 15.354,15.354 0,8.456 -6.897,15.353 -15.354,15.353 -8.456,0 -15.353,-6.897 -15.353,-15.353 0,-8.457 6.897,-15.354 15.353,-15.354 z"
         style="fill:#ffffff;fill-opacity:1;fill-rule:evenodd;stroke:#231f20;stroke-width:0.469;stroke-linecap:butt;stroke-linejoin:miter;stroke-miterlimit:2.613;stroke-dasharray:none;stroke-opacity:1"
         id="path952" />
    </g>
    <g
       id="g954"
       transform="matrix(0.37013444,0,0,-0.33626777,55.87876,279.65276)">
      <path
         d="m 147.291,536.671 c 8.456,0 15.354,6.897 15.354,15.354 0,8.456 -6.898,15.353 -15.354,15.353 -8.457,0 -15.354,-6.897 -15.354,-15.353 0,-8.457 6.897,-15.354 15.354,-15.354 z"
         style="fill:#ffffff;fill-opacity:1;fill-rule:evenodd;stroke:#231f20;stroke-width:0.469;stroke-linecap:butt;stroke-linejoin:miter;stroke-miterlimit:2.613;stroke-dasharray:none;stroke-opacity:1"
         id="path956" />
    </g>
    <g
       id="g958"
       transform="matrix(0.37013444,0,0,-0.33626777,55.87876,279.65276)">
      <path
         d="m 233.787,570.602 c 8.457,0 15.354,6.897 15.354,15.353 0,8.457 -6.897,15.354 -15.354,15.354 -8.456,0 -15.353,-6.897 -15.353,-15.354 0,-8.456 6.897,-15.353 15.353,-15.353 z"
         style="fill:#ffffff;fill-opacity:1;fill-rule:evenodd;stroke:#231f20;stroke-width:0.469;stroke-linecap:butt;stroke-linejoin:miter;stroke-miterlimit:2.613;stroke-dasharray:none;stroke-opacity:1"
         id="path960" />
    </g>
    <g
       id="g962"
       transform="matrix(0.37013444,0,0,-0.33626777,55.87876,279.65276)">
      <path
         d="m 233.787,507.897 c 8.457,0 15.354,6.898 15.354,15.354 0,8.457 -6.897,15.354 -15.354,15.354 -8.456,0 -15.353,-6.897 -15.353,-15.354 0,-8.456 6.897,-15.354 15.353,-15.354 z"
         style="fill:#ffffff;fill-opacity:1;fill-rule:evenodd;stroke:#231f20;stroke-width:0.469;stroke-linecap:butt;stroke-linejoin:miter;stroke-miterlimit:2.613;stroke-dasharray:none;stroke-opacity:1"
         id="path964" />
    </g>
    <g
       id="g966"
       transform="matrix(0.37013444,0,0,-0.33626777,55.87876,279.65276)">
      <path
         d="m 147.291,457.5 c 8.456,0 15.354,-6.897 15.354,-15.354 0,-8.456 -6.898,-15.354 -15.354,-15.354 -8.457,0 -15.354,6.898 -15.354,15.354 0,8.457 6.897,15.354 15.354,15.354 z"
         style="fill:#ffffff;fill-opacity:1;fill-rule:evenodd;stroke:#231f20;stroke-width:0.469;stroke-linecap:butt;stroke-linejoin:miter;stroke-miterlimit:2.613;stroke-dasharray:none;stroke-opacity:1"
         id="path968" />
    </g>
    <g
       id="g970"
       transform="matrix(0.37013444,0,0,-0.33626777,55.87876,279.65276)">
      <path
         d="m 233.787,423.569 c 8.457,0 15.354,-6.897 15.354,-15.354 0,-8.456 -6.897,-15.353 -15.354,-15.353 -8.456,0 -15.353,6.897 -15.353,15.353 0,8.457 6.897,15.354 15.353,15.354 z"
         style="fill:#ffffff;fill-opacity:1;fill-rule:evenodd;stroke:#231f20;stroke-width:0.469;stroke-linecap:butt;stroke-linejoin:miter;stroke-miterlimit:2.613;stroke-dasharray:none;stroke-opacity:1"
         id="path972" />
    </g>
    <g
       id="g974"
       transform="matrix(0.37013444,0,0,-0.33626777,55.87876,279.65276)">
      <path
         d="m 233.787,486.273 c 8.457,0 15.354,-6.897 15.354,-15.353 0,-8.457 -6.897,-15.354 -15.354,-15.354 -8.456,0 -15.353,6.897 -15.353,15.354 0,8.456 6.897,15.353 15.353,15.353 z"
         style="fill:#ffffff;fill-opacity:1;fill-rule:evenodd;stroke:#231f20;stroke-width:0.469;stroke-linecap:butt;stroke-linejoin:miter;stroke-miterlimit:2.613;stroke-dasharray:none;stroke-opacity:1"
         id="path976" />
    </g>
    <g
       id="g978"
       transform="matrix(0.37013444,0,0,-0.33626777,55.87876,279.65276)">
      <path
         d="m 89.216,507.839 44.01,37.271 m -44.537,-59.423 44.303,-37.271"
         style="fill:none;stroke:#231f20;stroke-width:0.469;stroke-linecap:butt;stroke-linejoin:miter;stroke-miterlimit:2.613;stroke-dasharray:none;stroke-opacity:1"
         id="path980" />
    </g>
    <path
       d="m 92.586345,104.04422 6.920795,-5.350934 1.88172,2.008714 -6.920445,5.35094 -1.88207,-2.00872"
       style="fill:#ffffff;fill-opacity:1;fill-rule:evenodd;stroke:none;stroke-width:0.352778"
       id="path982" />
    <path
       d="m 121.52047,88.043631 8.22749,-3.065639 1.07808,2.388306 -8.22748,3.065638 -1.07809,-2.388305"
       style="fill:#ffffff;fill-opacity:1;fill-rule:evenodd;stroke:none;stroke-width:0.352778"
       id="path984" />
    <path
       d="m 150.99647,77.974648 8.56826,-3.034947 1.03223,2.404886 -8.56827,3.034947 -1.03222,-2.404886"
       style="fill:#ffffff;fill-opacity:1;fill-rule:evenodd;stroke:none;stroke-width:0.352778"
       id="path986" />
    <path
       d="m 152.38465,84.614984 10.91988,4.313766 -1.13277,2.367139 -10.92024,-4.313766 1.13313,-2.367139"
       style="fill:#ffffff;fill-opacity:1;fill-rule:evenodd;stroke:none;stroke-width:0.352778"
       id="path988" />
    <path
       d="m 151.53869,99.433061 8.14281,-3.247319 1.1423,2.363611 -8.14282,3.247317 -1.14229,-2.363609"
       style="fill:#ffffff;fill-opacity:1;fill-rule:evenodd;stroke:none;stroke-width:0.352778"
       id="path990" />
    <path
       d="m 152.03751,105.95557 10.9848,4.27708 -1.11937,2.37278 -10.98444,-4.27743 1.11901,-2.37243"
       style="fill:#ffffff;fill-opacity:1;fill-rule:evenodd;stroke:none;stroke-width:0.352778"
       id="path992" />
    <path
       d="m 151.27834,116.83277 8.37035,-3.16548 1.09185,2.38302 -8.37,3.16547 -1.0922,-2.38301"
       style="fill:#ffffff;fill-opacity:1;fill-rule:evenodd;stroke:none;stroke-width:0.352778"
       id="path994" />
    <path
       d="m 151.8643,123.37468 11.0169,4.20758 -1.10102,2.37948 -11.01725,-4.20722 1.10137,-2.37984"
       style="fill:#ffffff;fill-opacity:1;fill-rule:evenodd;stroke:none;stroke-width:0.352778"
       id="path996" />
    <path
       d="m 151.19191,138.29153 8.50511,-3.28013 1.1102,2.37632 -8.50512,3.27977 -1.11019,-2.37596"
       style="fill:#ffffff;fill-opacity:1;fill-rule:evenodd;stroke:none;stroke-width:0.352778"
       id="path998" />
    <path
       d="m 151.88582,144.91211 10.84862,4.26509 -1.12854,2.36925 -10.84862,-4.26508 1.12854,-2.36926"
       style="fill:#ffffff;fill-opacity:1;fill-rule:evenodd;stroke:none;stroke-width:0.352778"
       id="path1000" />
    <path
       d="m 122.84339,135.13876 10.86026,4.28978 -1.13277,2.36749 -10.86026,-4.29013 1.13277,-2.36714"
       style="fill:#ffffff;fill-opacity:1;fill-rule:evenodd;stroke:none;stroke-width:0.352778"
       id="path1002" />
    <path
       d="m 120.99977,126.17291 8.63142,-3.31258 1.1056,2.37807 -8.63141,3.31223 -1.10561,-2.37772"
       style="fill:#ffffff;fill-opacity:1;fill-rule:evenodd;stroke:none;stroke-width:0.352778"
       id="path1004" />
    <path
       d="m 120.69603,96.437978 11.27231,4.368092 -1.11478,2.3742 -11.27231,-4.367745 1.11478,-2.374547"
       style="fill:#ffffff;fill-opacity:1;fill-rule:evenodd;stroke:none;stroke-width:0.352778"
       id="path1006" />
    <path
       d="m 93.844351,118.17262 9.340149,6.77368 -1.77271,2.01754 -9.340147,-6.77404 1.772708,-2.01718"
       style="fill:#ffffff;fill-opacity:1;fill-rule:evenodd;stroke:none;stroke-width:0.352778"
       id="path1008" />
    <g
       id="g1010"
       transform="matrix(0.37013444,0,0,-0.33626777,55.87876,279.65276)">
      <path
         d="M 292.624,623.285 H 411.469 V 596.914 H 292.624 Z"
         style="fill:#ffffff;fill-opacity:1;fill-rule:evenodd;stroke:#231f20;stroke-width:0.469;stroke-linecap:butt;stroke-linejoin:miter;stroke-miterlimit:2.613;stroke-dasharray:none;stroke-opacity:1"
         id="path1012" />
    </g>
    <text
       transform="scale(1.0491365,0.95316478)"
       style="font-variant:normal;font-weight:normal;font-size:2.58412px;font-family:Swis721BT;-inkscape-font-specification:Swis721BT;writing-mode:lr-tb;fill:#231f20;fill-opacity:1;fill-rule:nonzero;stroke:none;stroke-width:0.336255"
       id="text1016"
       x="157.43491"
       y="79.076843"><tspan
         x="157.43491 159.17403 160.71416 162.14059 163.56703 165.05032 166.40181 168.39159 171.25221 172.74326 173.59085 175.71758 177.66342 179.15187 179.99947 182.12621 184.07205 185.5605 186.4081 188.53482 191.39545 192.88649 193.73407 195.22253"
         y="79.076843"
         sodipodi:role="line"
         id="tspan1014"
         style="stroke-width:0.336255">Success=1/3x1/3x1/3=1/27</tspan></text>
    <text
       transform="matrix(0.97413002,-0.35396847,0.38959741,0.88498946,0,0)"
       style="font-variant:normal;font-weight:normal;font-size:2.58428px;font-family:Swis721BT;-inkscape-font-specification:Swis721BT;writing-mode:lr-tb;fill:#231f20;fill-opacity:1;fill-rule:nonzero;stroke:none;stroke-width:0.336251"
       id="text1020"
       x="58.13871"
       y="167.85423"><tspan
         x="58.13871 59.627254 60.474899 63.309849 65.248055 65.891541"
         y="167.85423"
         sodipodi:role="line"
         id="tspan1018"
         style="stroke-width:0.336251">1/3Hit</tspan></text>
    <text
       transform="matrix(0.96572338,-0.3724192,0.40996145,0.87739668,0,0)"
       style="font-variant:normal;font-weight:normal;font-size:2.58413px;font-family:Swis721BT;-inkscape-font-specification:Swis721BT;writing-mode:lr-tb;fill:#231f20;fill-opacity:1;fill-rule:nonzero;stroke:none;stroke-width:0.336255"
       id="text1024"
       x="76.055885"
       y="191.81104"><tspan
         x="76.055885 77.544342 78.391937 81.226723 83.16481 83.808258"
         y="191.81104"
         sodipodi:role="line"
         id="tspan1022"
         style="stroke-width:0.336255">1/3Hit</tspan></text>
    <text
       transform="matrix(0.96790485,-0.36777653,0.40490914,0.87930536,0,0)"
       style="font-variant:normal;font-weight:normal;font-size:2.58413px;font-family:Swis721BT;-inkscape-font-specification:Swis721BT;writing-mode:lr-tb;fill:#231f20;fill-opacity:1;fill-rule:nonzero;stroke:none;stroke-width:0.33624"
       id="text1028"
       x="85.794434"
       y="170.70705"><tspan
         x="85.794434 87.28289 88.130486 90.965279 92.903381 93.546829"
         y="170.70705"
         sodipodi:role="line"
         id="tspan1026"
         style="stroke-width:0.33624">1/3Hit</tspan></text>
    <text
       transform="matrix(0.9599695,-0.38469768,0.42333125,0.87205422,0,0)"
       style="font-variant:normal;font-weight:normal;font-size:2.58418px;font-family:Swis721BT;-inkscape-font-specification:Swis721BT;writing-mode:lr-tb;fill:#231f20;fill-opacity:1;fill-rule:nonzero;stroke:none;stroke-width:0.336246"
       id="text1032"
       x="89.934418"
       y="155.47606"><tspan
         x="89.934418 91.422905 92.270515 95.105362 97.043495 97.686958"
         y="155.47606"
         sodipodi:role="line"
         id="tspan1030"
         style="stroke-width:0.336246">1/3Hit</tspan></text>
    <text
       transform="matrix(0.96572338,-0.3724192,0.40996145,0.87739668,0,0)"
       style="font-variant:normal;font-weight:normal;font-size:2.58413px;font-family:Swis721BT;-inkscape-font-specification:Swis721BT;writing-mode:lr-tb;fill:#231f20;fill-opacity:1;fill-rule:nonzero;stroke:none;stroke-width:0.336255"
       id="text1036"
       x="100.61044"
       y="133.75755"><tspan
         x="100.61044 102.0989 102.9465 105.78128 107.71938 108.36282"
         y="133.75755"
         sodipodi:role="line"
         id="tspan1034"
         style="stroke-width:0.336255">1/3Hit</tspan></text>
    <text
       transform="matrix(0.97274608,-0.35710128,0.39300252,0.88374378,0,0)"
       style="font-variant:normal;font-weight:normal;font-size:2.58433px;font-family:Swis721BT;-inkscape-font-specification:Swis721BT;writing-mode:lr-tb;fill:#231f20;fill-opacity:1;fill-rule:nonzero;stroke:none;stroke-width:0.336256"
       id="text1040"
       x="72.589439"
       y="130.96144"><tspan
         x="72.589439 74.078011 74.925674 77.760681 79.698929 80.342422"
         y="130.96144"
         sodipodi:role="line"
         id="tspan1038"
         style="stroke-width:0.336256">1/3Hit</tspan></text>
    <text
       transform="matrix(0.79901606,-0.61772556,0.67997591,0.72584461,0,0)"
       style="font-variant:normal;font-weight:normal;font-size:2.58419px;font-family:Swis721BT;-inkscape-font-specification:Swis721BT;writing-mode:lr-tb;fill:#231f20;fill-opacity:1;fill-rule:nonzero;stroke:none;stroke-width:0.336239"
       id="text1044"
       x="-3.5193095"
       y="142.68108"><tspan
         x="-3.5193095 -2.030817 -1.183203 1.651652 3.5897934 4.2332568"
         y="142.68108"
         sodipodi:role="line"
         id="tspan1042"
         style="stroke-width:0.336239">1/3Hit</tspan></text>
    <text
       transform="matrix(0.9671545,0.36938885,-0.40651885,0.87869773,0,0)"
       style="font-variant:normal;font-weight:normal;font-size:2.58431px;font-family:Swis721BT;-inkscape-font-specification:Swis721BT;writing-mode:lr-tb;fill:#231f20;fill-opacity:1;fill-rule:nonzero;stroke:none;stroke-width:0.336262"
       id="text1048"
       x="146.00191"
       y="50.819027"><tspan
         x="146.00191 147.49048 148.33813 151.17313 153.38788 154.03137 155.38297"
         y="50.819027"
         sodipodi:role="line"
         id="tspan1046"
         style="stroke-width:0.336262">2/3Miss</tspan></text>
    <text
       transform="matrix(0.96572338,0.3724192,-0.40996145,0.87739668,0,0)"
       style="font-variant:normal;font-weight:normal;font-size:2.58413px;font-family:Swis721BT;-inkscape-font-specification:Swis721BT;writing-mode:lr-tb;fill:#231f20;fill-opacity:1;fill-rule:nonzero;stroke:none;stroke-width:0.336255"
       id="text1052"
       x="168.84937"
       y="27.446007"><tspan
         x="168.84937 170.33781 171.18541 174.02019 176.23479 176.87823 178.22974"
         y="27.446007"
         sodipodi:role="line"
         id="tspan1050"
         style="stroke-width:0.336255">2/3Miss</tspan></text>
    <text
       transform="matrix(0.96068574,0.38307292,-0.42170786,0.87276734,0,0)"
       style="font-variant:normal;font-weight:normal;font-size:2.58409px;font-family:Swis721BT;-inkscape-font-specification:Swis721BT;writing-mode:lr-tb;fill:#231f20;fill-opacity:1;fill-rule:nonzero;stroke:none;stroke-width:0.336245"
       id="text1056"
       x="177.87802"
       y="45.682564"><tspan
         x="177.87802 179.36646 180.21404 183.04878 185.26334 185.90678 187.25826"
         y="45.682564"
         sodipodi:role="line"
         id="tspan1054"
         style="stroke-width:0.336245">2/3Miss</tspan></text>
    <text
       transform="matrix(0.96283823,0.37855529,-0.41664287,0.87478625,0,0)"
       style="font-variant:normal;font-weight:normal;font-size:2.58417px;font-family:Swis721BT;-inkscape-font-specification:Swis721BT;writing-mode:lr-tb;fill:#231f20;fill-opacity:1;fill-rule:nonzero;stroke:none;stroke-width:0.336261"
       id="text1060"
       x="184.75652"
       y="63.549713"><tspan
         x="184.75652 186.245 187.09261 189.92744 192.14209 192.78554 194.13707"
         y="63.549713"
         sodipodi:role="line"
         id="tspan1058"
         style="stroke-width:0.336261">2/3Miss</tspan></text>
    <text
       transform="matrix(0.97274608,0.35710128,-0.39300252,0.88374378,0,0)"
       style="font-variant:normal;font-weight:normal;font-size:2.58433px;font-family:Swis721BT;-inkscape-font-specification:Swis721BT;writing-mode:lr-tb;fill:#231f20;fill-opacity:1;fill-rule:nonzero;stroke:none;stroke-width:0.336256"
       id="text1064"
       x="191.44968"
       y="88.785461"><tspan
         x="191.44968 192.93825 193.7859 196.62091 198.83568 199.47917 200.83078"
         y="88.785461"
         sodipodi:role="line"
         id="tspan1062"
         style="stroke-width:0.336256">2/3Miss</tspan></text>
    <text
       transform="matrix(0.96433185,0.37554882,-0.41336308,0.87600756,0,0)"
       style="font-variant:normal;font-weight:normal;font-size:2.5842px;font-family:Swis721BT;-inkscape-font-specification:Swis721BT;writing-mode:lr-tb;fill:#231f20;fill-opacity:1;fill-rule:nonzero;stroke:none;stroke-width:0.336237"
       id="text1068"
       x="163.82635"
       y="86.538345"><tspan
         x="163.82635 165.31485 166.16246 168.99733 171.21199 171.85545 173.20699"
         y="86.538345"
         sodipodi:role="line"
         id="tspan1066"
         style="stroke-width:0.336237">2/3Miss</tspan></text>
    <text
       transform="matrix(0.80950152,0.60623883,-0.66739509,0.73551336,0,0)"
       style="font-variant:normal;font-weight:normal;font-size:2.58427px;font-family:Swis721BT;-inkscape-font-specification:Swis721BT;writing-mode:lr-tb;fill:#231f20;fill-opacity:1;fill-rule:nonzero;stroke:none;stroke-width:0.336252"
       id="text1072"
       x="148.32816"
       y="41.2187"><tspan
         x="148.32816 149.8167 150.66434 153.49928 155.714 156.35748 157.70906"
         y="41.2187"
         sodipodi:role="line"
         id="tspan1070"
         style="stroke-width:0.336252">2/3Miss</tspan></text>
  </g>
</svg>
