<?xml version="1.0" encoding="UTF-8" standalone="no"?>
<!-- Created with Inkscape (http://www.inkscape.org/) -->

<svg
   width="98.677818mm"
   height="43.290619mm"
   viewBox="0 0 98.677818 43.290619"
   version="1.1"
   id="svg51965"
   inkscape:version="1.2.2 (b0a8486, 2022-12-01)"
   sodipodi:docname="batch_posterior.svg"
   xmlns:inkscape="http://www.inkscape.org/namespaces/inkscape"
   xmlns:sodipodi="http://sodipodi.sourceforge.net/DTD/sodipodi-0.dtd"
   xmlns="http://www.w3.org/2000/svg"
   xmlns:svg="http://www.w3.org/2000/svg">
  <sodipodi:namedview
     id="namedview51967"
     pagecolor="#ffffff"
     bordercolor="#666666"
     borderopacity="1.0"
     inkscape:showpageshadow="2"
     inkscape:pageopacity="0.0"
     inkscape:pagecheckerboard="0"
     inkscape:deskcolor="#d1d1d1"
     inkscape:document-units="mm"
     showgrid="false"
     inkscape:zoom="0.73139029"
     inkscape:cx="187.31449"
     inkscape:cy="82.035543"
     inkscape:window-width="706"
     inkscape:window-height="480"
     inkscape:window-x="0"
     inkscape:window-y="25"
     inkscape:window-maximized="0"
     inkscape:current-layer="layer1" />
  <defs
     id="defs51962">
    <clipPath
       clipPathUnits="userSpaceOnUse"
       id="clipPath51600">
      <path
         d="m 165.96,656.04 h 282 V 531.96 h -282 z"
         id="path51598" />
    </clipPath>
  </defs>
  <g
     inkscape:label="Layer 1"
     inkscape:groupmode="layer"
     id="layer1"
     transform="translate(-55.388865,-127.03557)">
    <path
       d="m 59.299281,127.03557 v 36.98099 H 154.06668 M 59.299281,132.04255 h 2.032 m -2.032,15.60583 h 2.032 m 13.6398,16.36818 v 1.70286 m 12.369799,-1.70286 v 1.70286 m 12.573,-1.70286 v 1.70286 m 12.6492,-1.70286 v 1.70286 m 12.573,-1.70286 v 1.70286 m 12.7762,-1.70286 v 1.70286 m 12.446,-1.70286 v 1.70286"
       style="fill:none;stroke:#231f20;stroke-width:0.2032;stroke-linecap:butt;stroke-linejoin:miter;stroke-miterlimit:2.613;stroke-dasharray:none;stroke-opacity:1"
       id="path51592" />
    <g
       id="g51594"
       transform="matrix(0.35277777,0,0,-0.35277777,-3.6362733,358.27999)">
      <g
         id="g51596"
         clip-path="url(#clipPath51600)">
        <path
           d="m 204.824,550.668 c 43.776,7.133 62.496,48.415 70.128,72.479 7.632,24.063 31.248,55.115 53.28,2.089 22.032,-53.026 39.888,-70.893 71.712,-74.568"
           style="fill:none;stroke:#231f20;stroke-width:0.864;stroke-linecap:butt;stroke-linejoin:miter;stroke-miterlimit:2.613;stroke-dasharray:none;stroke-opacity:1"
           id="path51602" />
      </g>
    </g>
    <path
       d="m 79.56848,163.99116 v -5.05777 m 7.7724,5.05777 v -13.39462 m 6.1976,13.47082 v -28.7461 m 6.4008,28.6699 v -33.52412 m 6.3754,33.52412 v -32.15181 m 6.223,32.15181 v -26.91588 m 6.477,26.81428 v -13.72482 m 6.1214,13.90262 v -5.38833 m 6.3754,5.21053 v -1.47426"
       style="fill:none;stroke:#231f20;stroke-width:0.2032;stroke-linecap:butt;stroke-linejoin:miter;stroke-miterlimit:2.613;stroke-dasharray:none;stroke-opacity:1"
       id="path51604" />
    <text
       xml:space="preserve"
       transform="scale(0.99970013,1.0003)"
       style="font-variant:normal;font-weight:normal;font-size:3.52884px;font-family:Swis721BT;-inkscape-font-specification:Swis721BT;writing-mode:lr-tb;fill:#231f20;fill-opacity:1;fill-rule:nonzero;stroke:none;stroke-width:0.352672"
       id="text51616"
       x="54.969543"
       y="133.50217"><tspan
         x="54.969543 56.031723"
         y="133.50217"
         sodipodi:role="line"
         id="tspan51606"
         style="stroke-width:0.352672">.2</tspan><tspan
         x="54.969543 56.031723"
         y="148.82295"
         sodipodi:role="line"
         id="tspan51608"
         style="stroke-width:0.352672">.1</tspan><tspan
         x="58.396042"
         y="170.21652"
         id="tspan51610"
         style="stroke-width:0.352672">0</tspan><tspan
         x="56.033134"
         y="165.21123"
         id="tspan51612"
         style="stroke-width:0.352672">0</tspan><tspan
         x="72.323654 74.356262 75.418442 84.745155 86.777763 87.839943 97.523064 99.555679 100.61786 110.19865 112.23125 113.29343 122.69778 124.73039 125.79257 135.65215 137.68475 138.74693 147.84427 149.87688 150.93906"
         y="170.21652"
         sodipodi:role="line"
         id="tspan51614"
         style="stroke-width:0.352672">2.02.22.42.62.83.03.2</tspan></text>
    <path
       d="m 61.864681,165.74482 1.774825,-3.41136 m -0.784225,3.41136 1.774825,-3.41136"
       style="fill:none;stroke:#231f20;stroke-width:0.2032;stroke-linecap:butt;stroke-linejoin:miter;stroke-miterlimit:2.613;stroke-dasharray:none;stroke-opacity:1"
       id="path51618" />
    <g
       id="g51620"
       transform="matrix(0.35267194,0,0,-0.3528836,-3.6362733,358.27999)">
      <path
         d="m 187.1,545.593 5.033,9.667"
         style="fill:none;stroke:#ffffff;stroke-width:2.017;stroke-linecap:butt;stroke-linejoin:miter;stroke-miterlimit:2.613;stroke-dasharray:none;stroke-opacity:1"
         id="path51622" />
    </g>
  </g>
</svg>
