<?xml version="1.0" encoding="UTF-8" standalone="no"?>
<!-- Created with Inkscape (http://www.inkscape.org/) -->

<svg
   width="129.79158mm"
   height="34.667mm"
   viewBox="0 0 129.79158 34.667"
   version="1.1"
   id="svg362"
   inkscape:version="1.2.2 (b0a84865, 2022-12-01)"
   sodipodi:docname="commanders_tree.svg"
   xmlns:inkscape="http://www.inkscape.org/namespaces/inkscape"
   xmlns:sodipodi="http://sodipodi.sourceforge.net/DTD/sodipodi-0.dtd"
   xmlns="http://www.w3.org/2000/svg"
   xmlns:svg="http://www.w3.org/2000/svg">
  <sodipodi:namedview
     id="namedview364"
     pagecolor="#ffffff"
     bordercolor="#000000"
     borderopacity="0.25"
     inkscape:showpageshadow="2"
     inkscape:pageopacity="0.0"
     inkscape:pagecheckerboard="0"
     inkscape:deskcolor="#d1d1d1"
     inkscape:document-units="mm"
     showgrid="false"
     inkscape:zoom="1.2646927"
     inkscape:cx="185.81589"
     inkscape:cy="-3.5581767"
     inkscape:window-width="1470"
     inkscape:window-height="755"
     inkscape:window-x="0"
     inkscape:window-y="37"
     inkscape:window-maximized="0"
     inkscape:current-layer="layer1" />
  <defs
     id="defs359" />
  <g
     inkscape:label="Layer 1"
     inkscape:groupmode="layer"
     id="layer1"
     transform="translate(-34.477827,-130.99446)">
    <path
       d="m 34.477827,148.31726 h 2.542822 m 7.440436,-9.8552 h -7.418917 v 19.79225 h 7.418917 m 49.230491,-24.66905 h -4.908197 v 9.81569 h 4.908197 m 0,9.97091 h -4.908197 v 9.68693 h 4.908197 M 74.18226,138.46206 h 14.628635 m -14.628635,19.7866 h 14.628635 m -44.34981,-22.2504 h 29.723997 v 4.92407 H 44.461085 Z m 0,19.7104 h 29.723997 v 4.92407 H 44.461085 Z m 49.230491,-24.6126 h 30.765744 v 4.92407 H 93.691576 Z m 0,29.5402 h 30.765744 v 4.92407 H 93.691576 Z m 0,-9.8298 h 30.765744 v 4.92407 H 93.691576 Z m 0,-9.8806 h 30.765744 v 4.92407 H 93.691576 Z"
       style="fill:none;stroke:#231f20;stroke-width:0.2032;stroke-linecap:butt;stroke-linejoin:miter;stroke-miterlimit:2.613;stroke-dasharray:none;stroke-opacity:1"
       id="path154" />
    <text
       xml:space="preserve"
       transform="scale(1.0000552,0.99994481)"
       style="font-variant:normal;font-weight:normal;font-size:3.19599px;font-family:Swis721BT;-inkscape-font-specification:Swis721BT;writing-mode:lr-tb;fill:#231f20;fill-opacity:1;fill-rule:nonzero;stroke:none;stroke-width:0.352758"
       id="text166"
       x="46.885609"
       y="139.51115"><tspan
         x="46.885609 48.790417 49.58622 51.350407 53.974316 55.959023 57.780739 60.276806 61.436951 64.326126 67.86409 68.82608 70.666969"
         y="139.51115"
         sodipodi:role="line"
         id="tspan156"
         style="stroke-width:0.352758">niceday(P=.7)</tspan><tspan
         x="45.990093 47.894901 49.716618 51.388119 52.372482 54.868553 56.853264 58.674976 61.171043 62.331188 65.22036 68.758324 69.720322 71.561211"
         y="159.17128"
         sodipodi:role="line"
         id="tspan158"
         style="stroke-width:0.352758">nastyday(P=.3)</tspan><tspan
         x="94.993256 97.14415 98.882774 99.678574 101.58338 104.0443 106.45727 107.25307 109.94729 111.10743 113.9966 117.53457 118.49656 120.33745 122.17834"
         y="134.68521"
         sodipodi:role="line"
         id="tspan160"
         style="stroke-width:0.352758">Cmdrswin(P=.65)</tspan><tspan
         x="124.85179 128.38976 129.35175 131.19264 133.03352 135.66383 136.82397 138.92374 140.07109 142.01425 143.99896 145.82068 147.80539 148.6012 149.40977 150.20558 151.18994 153.686 155.62918 157.34862 159.25342 160.04922 161.81342"
         y="134.07573"
         sodipodi:role="line"
         id="tspan162"
         style="stroke-width:0.352758">=.455(Probabilityofnice</tspan><tspan
         x="136.2356 138.22029 140.04202 148.92686 151.07777 152.81638 153.61218 155.517 157.97791 160.39088 161.18669 163.09149"
         y="137.14165"
         sodipodi:role="line"
         id="tspan164"
         style="stroke-width:0.352758">dayCmdrswin)</tspan></text>
    <text
       xml:space="preserve"
       transform="scale(1.0000552,0.99994481)"
       style="font-style:italic;font-variant:normal;font-weight:normal;font-size:3.19599px;font-family:Swis721BT;-inkscape-font-specification:Swis721BT-NormalItalic;writing-mode:lr-tb;fill:#231f20;fill-opacity:1;fill-rule:nonzero;stroke:none;stroke-width:0.352758"
       id="text170"
       x="142.54063"
       y="137.14165"><tspan
         x="142.54063 144.31441 146.16489"
         y="137.14165"
         sodipodi:role="line"
         id="tspan168"
         style="stroke-width:0.352758">and</tspan></text>
    <text
       xml:space="preserve"
       transform="scale(1.0000552,0.99994481)"
       style="font-variant:normal;font-weight:normal;font-size:3.19599px;font-family:Swis721BT;-inkscape-font-specification:Swis721BT;writing-mode:lr-tb;fill:#231f20;fill-opacity:1;fill-rule:nonzero;stroke:none;stroke-width:0.352758"
       id="text178"
       x="94.420532"
       y="144.51544"><tspan
         x="94.420532 96.571434 98.310051 99.10585 101.01067 103.47157 104.28016 106.22332 107.89483 110.51873 111.67888 114.56805 118.10601 119.06801 120.9089 122.74979"
         y="144.51544"
         sodipodi:role="line"
         id="tspan172"
         style="stroke-width:0.352758">Cmdrslose(P=.35)</tspan><tspan
         x="94.993256 97.14415 98.882774 99.678574 101.58338 104.0443 106.45727 107.25307 109.94729 111.10743 113.9966 117.53457 118.49656 120.33746 122.17834"
         y="154.4978"
         sodipodi:role="line"
         id="tspan174"
         style="stroke-width:0.352758">Cmdrswin(P=.55)</tspan><tspan
         x="94.420532 96.571434 98.310051 99.10585 101.01067 103.47157 104.28016 106.22332 107.89483 110.51873 111.67888 114.56805 118.10601 119.06801 120.9089 122.74979"
         y="164.15001"
         sodipodi:role="line"
         id="tspan176"
         style="stroke-width:0.352758">Cmdrslose(P=.45)</tspan></text>
  </g>
</svg>
