<?xml version="1.0" encoding="UTF-8" standalone="no"?>
<!-- Created with Inkscape (http://www.inkscape.org/) -->

<svg
   width="69.599243mm"
   height="111.89964mm"
   viewBox="0 0 69.599243 111.89964"
   version="1.1"
   id="svg33597"
   inkscape:version="1.2.2 (b0a8486, 2022-12-01)"
   sodipodi:docname="liquor_price_plots.svg"
   xmlns:inkscape="http://www.inkscape.org/namespaces/inkscape"
   xmlns:sodipodi="http://sodipodi.sourceforge.net/DTD/sodipodi-0.dtd"
   xmlns="http://www.w3.org/2000/svg"
   xmlns:svg="http://www.w3.org/2000/svg">
  <sodipodi:namedview
     id="namedview33599"
     pagecolor="#ffffff"
     bordercolor="#666666"
     borderopacity="1.0"
     inkscape:showpageshadow="2"
     inkscape:pageopacity="0.0"
     inkscape:pagecheckerboard="0"
     inkscape:deskcolor="#d1d1d1"
     inkscape:document-units="mm"
     showgrid="false"
     inkscape:zoom="0.73139029"
     inkscape:cx="132.62413"
     inkscape:cy="211.92515"
     inkscape:window-width="708"
     inkscape:window-height="480"
     inkscape:window-x="0"
     inkscape:window-y="25"
     inkscape:window-maximized="0"
     inkscape:current-layer="layer1" />
  <defs
     id="defs33594" />
  <g
     inkscape:label="Layer 1"
     inkscape:groupmode="layer"
     id="layer1"
     transform="translate(-69.928147,-92.731051)">
    <g
       id="g30882"
       transform="matrix(0.3544711,0,0,-0.35111971,-0.46031091,259.57914)">
      <path
         d="m 204.432,354.147 v -64.794 h 184.994 m -184.994,64.794 h 4.487 m -4.487,-9.16 h 4.487 m -4.487,-9.505 h 4.487 m -4.487,-9.023 h 4.487 m -4.487,-9.298 h 4.487 m -4.487,-18.666 h 4.487 m -4.487,9.229 h 4.487 m -4.487,-18.321 v -5.133 m 46.423,5.133 v -5.133 m 46.079,5.133 v -5.133 m 46.147,5.133 v -5.133 m 46.285,5.133 v -5.133 m -180.388,5.133 v -3.33 m 4.615,3.33 v -3.33 m 4.615,3.33 v -3.33 m 4.614,3.33 v -3.33 m 4.615,3.33 v -3.33 m 4.615,3.33 v -3.33 m 4.615,3.33 v -3.33 m 4.683,3.33 v -3.33 m 4.615,3.33 v -3.33 m 9.505,3.33 v -3.33 m 4.615,3.33 v -3.33 m 4.614,3.33 v -3.33 m 4.684,3.33 v -3.33 m 4.615,3.33 v -3.33 m 4.614,3.33 v -3.33 m 4.615,3.33 v -3.33 m 4.615,3.33 v -3.33 m 4.615,3.33 v -3.33 m 9.298,3.33 v -3.33 m 4.615,3.33 v -3.33 m 4.614,3.33 v -3.33 m 4.615,3.33 v -3.33 m 4.615,3.33 v -3.33 m 4.615,3.33 v -3.33 m 4.546,3.33 v -3.33 m 4.683,3.33 v -3.33 m 4.615,3.33 v -3.33 m 9.229,3.33 v -3.33 m 4.615,3.33 v -3.33 m 4.615,3.33 v -3.33 m 4.615,3.33 v -3.33 m 4.683,3.33 v -3.33 m 4.615,3.33 v -3.33 m 4.615,3.33 v -3.33 m 4.614,3.33 v -3.33 m 4.615,3.33 v -3.33"
         style="fill:none;stroke:#231f20;stroke-width:0.276;stroke-linecap:butt;stroke-linejoin:miter;stroke-miterlimit:2.613;stroke-dasharray:none;stroke-opacity:1"
         id="path30884" />
    </g>
    <text
       xml:space="preserve"
       transform="scale(1.0047595,0.99526303)"
       style="font-variant:normal;font-weight:normal;font-size:2.26604px;font-family:Swis721BT;-inkscape-font-specification:Swis721BT;writing-mode:lr-tb;fill:#231f20;fill-opacity:1;fill-rule:nonzero;stroke:none;stroke-width:0.351107"
       id="text30898"
       x="69.468628"
       y="159.44775"><tspan
         x="69.468628"
         y="159.44775"
         id="tspan30886"
         style="stroke-width:0.351107">0</tspan><tspan
         x="69.468628"
         y="143.28975"
         id="tspan30888"
         style="stroke-width:0.351107">5</tspan><tspan
         x="69.73217 71.037407 72.342644 86.10659 87.411827 88.717072 102.36092 103.66615 104.97139 118.63789 119.94314 121.24837 134.96474 136.26997 137.57521"
         y="162.99525"
         sodipodi:role="line"
         id="tspan30890"
         style="stroke-width:0.351107">350400450500550</tspan><tspan
         x="101.21543 102.8923 104.19301 105.54357 106.24151"
         y="165.88672"
         sodipodi:role="line"
         id="tspan30892"
         style="stroke-width:0.351107">Cents</tspan><tspan
         x="71.660339 73.602341 74.903046 76.194695 77.545258 78.900345 80.205589 81.510826 82.192909 83.498146"
         y="168.29213"
         sodipodi:role="line"
         id="tspan30894"
         style="stroke-width:0.351107">Mean:$4.84</tspan><tspan
         x="99.623756 101.11255 102.67838 103.32194 104.72915 106.1545 107.50959"
         y="133.93507"
         sodipodi:role="line"
         id="tspan30896"
         style="stroke-width:0.351107">PRIVATE</tspan></text>
    <path
       d="m 99.039954,152.23204 h -1.573742 l 0.770467,-1.62384 0.803275,1.62384"
       style="fill:#231f20;fill-opacity:1;fill-rule:evenodd;stroke:none;stroke-width:0.352778"
       id="path30900" />
    <path
       d="m 107.26744,152.23204 h -1.57374 l 0.77046,-1.62384 0.80328,1.62384"
       style="fill:#231f20;fill-opacity:1;fill-rule:evenodd;stroke:none;stroke-width:0.352778"
       id="path30902" />
    <path
       d="m 113.76137,152.23204 h -1.57374 l 0.77046,-1.62384 0.80328,1.62384"
       style="fill:#231f20;fill-opacity:1;fill-rule:evenodd;stroke:none;stroke-width:0.352778"
       id="path30904" />
    <path
       d="m 113.76137,148.91875 h -1.57374 l 0.77046,-1.62384 0.80328,1.62384"
       style="fill:#231f20;fill-opacity:1;fill-rule:evenodd;stroke:none;stroke-width:0.352778"
       id="path30906" />
    <path
       d="m 115.34852,152.23204 h -1.57374 l 0.77046,-1.62384 0.80328,1.62384"
       style="fill:#231f20;fill-opacity:1;fill-rule:evenodd;stroke:none;stroke-width:0.352778"
       id="path30908" />
    <path
       d="m 115.34852,148.91875 h -1.57374 l 0.77046,-1.62384 0.80328,1.62384"
       style="fill:#231f20;fill-opacity:1;fill-rule:evenodd;stroke:none;stroke-width:0.352778"
       id="path30910" />
    <path
       d="m 115.34852,145.75081 h -1.57374 l 0.77046,-1.62384 0.80328,1.62384"
       style="fill:#231f20;fill-opacity:1;fill-rule:evenodd;stroke:none;stroke-width:0.352778"
       id="path30912" />
    <path
       d="m 116.95965,152.23204 h -1.57374 l 0.77047,-1.62384 0.80327,1.62384"
       style="fill:#231f20;fill-opacity:1;fill-rule:evenodd;stroke:none;stroke-width:0.352778"
       id="path30914" />
    <path
       d="m 116.95965,148.91875 h -1.57374 l 0.77047,-1.62384 0.80327,1.62384"
       style="fill:#231f20;fill-opacity:1;fill-rule:evenodd;stroke:none;stroke-width:0.352778"
       id="path30916" />
    <path
       d="m 116.95965,145.75081 h -1.57374 l 0.77047,-1.62384 0.80327,1.62384"
       style="fill:#231f20;fill-opacity:1;fill-rule:evenodd;stroke:none;stroke-width:0.352778"
       id="path30918" />
    <path
       d="m 118.64417,152.23204 h -1.57374 l 0.77046,-1.62384 0.80328,1.62384"
       style="fill:#231f20;fill-opacity:1;fill-rule:evenodd;stroke:none;stroke-width:0.352778"
       id="path30920" />
    <path
       d="m 120.30434,152.23204 h -1.57374 l 0.77046,-1.62384 0.80328,1.62384"
       style="fill:#231f20;fill-opacity:1;fill-rule:evenodd;stroke:none;stroke-width:0.352778"
       id="path30922" />
    <path
       d="m 120.30434,148.91875 h -1.57374 l 0.77046,-1.62384 0.80328,1.62384"
       style="fill:#231f20;fill-opacity:1;fill-rule:evenodd;stroke:none;stroke-width:0.352778"
       id="path30924" />
    <path
       d="m 99.039954,155.42433 h -1.573742 l 0.770467,-1.62384 0.803275,1.62384"
       style="fill:#231f20;fill-opacity:1;fill-rule:evenodd;stroke:none;stroke-width:0.352778"
       id="path30926" />
    <path
       d="m 107.26744,155.42433 h -1.57374 l 0.77046,-1.62384 0.80328,1.62384"
       style="fill:#231f20;fill-opacity:1;fill-rule:evenodd;stroke:none;stroke-width:0.352778"
       id="path30928" />
    <path
       d="m 113.76137,155.42433 h -1.57374 l 0.77046,-1.62384 0.80328,1.62384"
       style="fill:#231f20;fill-opacity:1;fill-rule:evenodd;stroke:none;stroke-width:0.352778"
       id="path30930" />
    <path
       d="m 115.34852,155.42433 h -1.57374 l 0.77046,-1.62384 0.80328,1.62384"
       style="fill:#231f20;fill-opacity:1;fill-rule:evenodd;stroke:none;stroke-width:0.352778"
       id="path30932" />
    <path
       d="m 116.95965,155.42433 h -1.57374 l 0.77047,-1.62384 0.80327,1.62384"
       style="fill:#231f20;fill-opacity:1;fill-rule:evenodd;stroke:none;stroke-width:0.352778"
       id="path30934" />
    <path
       d="m 118.64417,155.42433 h -1.57374 l 0.77046,-1.62384 0.80328,1.62384"
       style="fill:#231f20;fill-opacity:1;fill-rule:evenodd;stroke:none;stroke-width:0.352778"
       id="path30936" />
    <path
       d="m 120.30434,155.42433 h -1.57374 l 0.77046,-1.62384 0.80328,1.62384"
       style="fill:#231f20;fill-opacity:1;fill-rule:evenodd;stroke:none;stroke-width:0.352778"
       id="path30938" />
    <path
       d="m 125.26016,155.42433 h -1.57374 l 0.77047,-1.62384 0.80327,1.62384"
       style="fill:#231f20;fill-opacity:1;fill-rule:evenodd;stroke:none;stroke-width:0.352778"
       id="path30940" />
    <path
       d="m 128.45844,155.42433 h -1.57374 l 0.77047,-1.62384 0.80327,1.62384"
       style="fill:#231f20;fill-opacity:1;fill-rule:evenodd;stroke:none;stroke-width:0.352778"
       id="path30942" />
    <path
       d="m 130.11862,155.42433 h -1.57374 l 0.77046,-1.62384 0.80328,1.62384"
       style="fill:#231f20;fill-opacity:1;fill-rule:evenodd;stroke:none;stroke-width:0.352778"
       id="path30944" />
    <path
       d="m 131.77879,155.42433 h -1.57374 l 0.77046,-1.62384 0.80328,1.62384"
       style="fill:#231f20;fill-opacity:1;fill-rule:evenodd;stroke:none;stroke-width:0.352778"
       id="path30946" />
    <path
       d="m 131.77879,152.25603 h -1.57374 l 0.77046,-1.62384 0.80328,1.62384"
       style="fill:#231f20;fill-opacity:1;fill-rule:evenodd;stroke:none;stroke-width:0.352778"
       id="path30948" />
    <path
       d="m 105.6563,155.42433 h -1.57374 l 0.77047,-1.62384 0.80327,1.62384"
       style="fill:#231f20;fill-opacity:1;fill-rule:evenodd;stroke:none;stroke-width:0.352778"
       id="path30950" />
    <g
       id="g30952"
       transform="matrix(0.3544711,0,0,-0.35111971,-0.46031091,259.57914)">
      <path
         d="m 204.432,464.935 v -64.736 h 184.827 m -184.827,64.736 h 4.482 m -4.482,-9.161 h 4.482 m -4.482,-9.505 h 4.482 m -4.482,-9.023 h 4.482 m -4.482,-9.229 h 4.482 m -4.482,-18.666 h 4.482 m -4.482,9.23 h 4.482 m -4.482,-18.391 v -5.128 m 46.354,5.128 v -5.128 m 46.079,5.128 v -5.128 m 46.078,5.128 v -5.128 m 46.216,5.128 v -5.128 m -180.25,5.128 v -3.326 m 4.615,3.326 v -3.326 m 4.615,3.326 v -3.326 m 4.614,3.326 v -3.326 m 4.615,3.326 v -3.326 m 4.615,3.326 v -3.326 m 4.684,3.326 v -3.326 m 4.614,3.326 v -3.326 m 4.615,3.326 v -3.326 m 9.505,3.326 v -3.326 m 4.615,3.326 v -3.326 m 4.614,3.326 v -3.326 m 4.615,3.326 v -3.326 m 4.615,3.326 v -3.326 m 4.615,3.326 v -3.326 m 4.614,3.326 v -3.326 m 4.684,3.326 v -3.326 m 4.615,3.326 v -3.326 m 9.229,3.326 v -3.326 m 4.615,3.326 v -3.326 m 4.615,3.326 v -3.326 m 4.614,3.326 v -3.326 m 4.615,3.326 v -3.326 m 4.615,3.326 v -3.326 m 4.546,3.326 v -3.326 m 4.615,3.326 v -3.326 m 4.614,3.326 v -3.326 m 9.299,3.326 v -3.326 m 4.614,3.326 v -3.326 m 4.615,3.326 v -3.326 m 4.615,3.326 v -3.326 m 4.615,3.326 v -3.326 m 4.614,3.326 v -3.326 m 4.615,3.326 v -3.326 m 4.615,3.326 v -3.326 m 4.614,3.326 v -3.326"
         style="fill:none;stroke:#231f20;stroke-width:0.276;stroke-linecap:butt;stroke-linejoin:miter;stroke-miterlimit:2.613;stroke-dasharray:none;stroke-opacity:1"
         id="path30954" />
    </g>
    <g
       id="g30956"
       transform="matrix(0.3544711,0,0,-0.35111971,-0.46031091,259.57914)">
      <path
         d="m 250.621,407.147 c -1.191,0 -2.162,0.972 -2.162,2.163 0,1.19 0.971,2.162 2.162,2.162 1.191,0 2.163,-0.972 2.163,-2.162 0,-1.191 -0.972,-2.163 -2.163,-2.163 z"
         style="fill:#ffffff;fill-opacity:1;fill-rule:evenodd;stroke:#231f20;stroke-width:0.827;stroke-linecap:butt;stroke-linejoin:miter;stroke-miterlimit:2.613;stroke-dasharray:none;stroke-opacity:1"
         id="path30958" />
    </g>
    <g
       id="g30960"
       transform="matrix(0.3544711,0,0,-0.35111971,-0.46031091,259.57914)">
      <path
         d="m 259.713,407.147 c -1.191,0 -2.162,0.972 -2.162,2.163 0,1.19 0.971,2.162 2.162,2.162 1.191,0 2.162,-0.972 2.162,-2.162 0,-1.191 -0.971,-2.163 -2.162,-2.163 z"
         style="fill:#ffffff;fill-opacity:1;fill-rule:evenodd;stroke:#231f20;stroke-width:0.827;stroke-linecap:butt;stroke-linejoin:miter;stroke-miterlimit:2.613;stroke-dasharray:none;stroke-opacity:1"
         id="path30962" />
    </g>
    <g
       id="g30964"
       transform="matrix(0.3544711,0,0,-0.35111971,-0.46031091,259.57914)">
      <path
         d="m 264.328,407.147 c -1.191,0 -2.163,0.972 -2.163,2.163 0,1.19 0.972,2.162 2.163,2.162 1.191,0 2.162,-0.972 2.162,-2.162 0,-1.191 -0.971,-2.163 -2.162,-2.163 z"
         style="fill:#ffffff;fill-opacity:1;fill-rule:evenodd;stroke:#231f20;stroke-width:0.827;stroke-linecap:butt;stroke-linejoin:miter;stroke-miterlimit:2.613;stroke-dasharray:none;stroke-opacity:1"
         id="path30966" />
    </g>
    <g
       id="g30968"
       transform="matrix(0.3544711,0,0,-0.35111971,-0.46031091,259.57914)">
      <path
         d="m 268.942,407.147 c -1.19,0 -2.162,0.972 -2.162,2.163 0,1.19 0.972,2.162 2.162,2.162 1.191,0 2.163,-0.972 2.163,-2.162 0,-1.191 -0.972,-2.163 -2.163,-2.163 z"
         style="fill:#ffffff;fill-opacity:1;fill-rule:evenodd;stroke:#231f20;stroke-width:0.827;stroke-linecap:butt;stroke-linejoin:miter;stroke-miterlimit:2.613;stroke-dasharray:none;stroke-opacity:1"
         id="path30970" />
    </g>
    <g
       id="g30972"
       transform="matrix(0.3544711,0,0,-0.35111971,-0.46031091,259.57914)">
      <path
         d="m 268.942,416.514 c -1.19,0 -2.162,0.972 -2.162,2.163 0,1.19 0.972,2.162 2.162,2.162 1.191,0 2.163,-0.972 2.163,-2.162 0,-1.191 -0.972,-2.163 -2.163,-2.163 z"
         style="fill:#ffffff;fill-opacity:1;fill-rule:evenodd;stroke:#231f20;stroke-width:0.827;stroke-linecap:butt;stroke-linejoin:miter;stroke-miterlimit:2.613;stroke-dasharray:none;stroke-opacity:1"
         id="path30974" />
    </g>
    <g
       id="g30976"
       transform="matrix(0.3544711,0,0,-0.35111971,-0.46031091,259.57914)">
      <path
         d="m 268.942,425.744 c -1.19,0 -2.162,0.971 -2.162,2.162 0,1.191 0.972,2.163 2.162,2.163 1.191,0 2.163,-0.972 2.163,-2.163 0,-1.191 -0.972,-2.162 -2.163,-2.162 z"
         style="fill:#ffffff;fill-opacity:1;fill-rule:evenodd;stroke:#231f20;stroke-width:0.827;stroke-linecap:butt;stroke-linejoin:miter;stroke-miterlimit:2.613;stroke-dasharray:none;stroke-opacity:1"
         id="path30978" />
    </g>
    <g
       id="g30980"
       transform="matrix(0.3544711,0,0,-0.35111971,-0.46031091,259.57914)">
      <path
         d="m 232.231,407.147 c -1.191,0 -2.162,0.972 -2.162,2.163 0,1.19 0.971,2.162 2.162,2.162 1.191,0 2.163,-0.972 2.163,-2.162 0,-1.191 -0.972,-2.163 -2.163,-2.163 z"
         style="fill:#ffffff;fill-opacity:1;fill-rule:evenodd;stroke:#231f20;stroke-width:0.827;stroke-linecap:butt;stroke-linejoin:miter;stroke-miterlimit:2.613;stroke-dasharray:none;stroke-opacity:1"
         id="path30982" />
    </g>
    <g
       id="g30984"
       transform="matrix(0.3544711,0,0,-0.35111971,-0.46031091,259.57914)">
      <path
         d="m 296.906,407.147 c -1.19,0 -2.162,0.972 -2.162,2.163 0,1.19 0.972,2.162 2.162,2.162 1.191,0 2.163,-0.972 2.163,-2.162 0,-1.191 -0.972,-2.163 -2.163,-2.163 z"
         style="fill:#ffffff;fill-opacity:1;fill-rule:evenodd;stroke:#231f20;stroke-width:0.827;stroke-linecap:butt;stroke-linejoin:miter;stroke-miterlimit:2.613;stroke-dasharray:none;stroke-opacity:1"
         id="path30986" />
    </g>
    <g
       id="g30988"
       transform="matrix(0.3544711,0,0,-0.35111971,-0.46031091,259.57914)">
      <path
         d="m 301.521,407.147 c -1.191,0 -2.162,0.972 -2.162,2.163 0,1.19 0.971,2.162 2.162,2.162 1.191,0 2.163,-0.972 2.163,-2.162 0,-1.191 -0.972,-2.163 -2.163,-2.163 z"
         style="fill:#ffffff;fill-opacity:1;fill-rule:evenodd;stroke:#231f20;stroke-width:0.827;stroke-linecap:butt;stroke-linejoin:miter;stroke-miterlimit:2.613;stroke-dasharray:none;stroke-opacity:1"
         id="path30990" />
    </g>
    <g
       id="g30992"
       transform="matrix(0.3544711,0,0,-0.35111971,-0.46031091,259.57914)">
      <path
         d="m 310.819,407.147 c -1.19,0 -2.162,0.972 -2.162,2.163 0,1.19 0.972,2.162 2.162,2.162 1.191,0 2.163,-0.972 2.163,-2.162 0,-1.191 -0.972,-2.163 -2.163,-2.163 z"
         style="fill:#ffffff;fill-opacity:1;fill-rule:evenodd;stroke:#231f20;stroke-width:0.827;stroke-linecap:butt;stroke-linejoin:miter;stroke-miterlimit:2.613;stroke-dasharray:none;stroke-opacity:1"
         id="path30994" />
    </g>
    <g
       id="g30996"
       transform="matrix(0.3544711,0,0,-0.35111971,-0.46031091,259.57914)">
      <path
         d="m 319.911,407.147 c -1.191,0 -2.162,0.972 -2.162,2.163 0,1.19 0.971,2.162 2.162,2.162 1.191,0 2.163,-0.972 2.163,-2.162 0,-1.191 -0.972,-2.163 -2.163,-2.163 z"
         style="fill:#ffffff;fill-opacity:1;fill-rule:evenodd;stroke:#231f20;stroke-width:0.827;stroke-linecap:butt;stroke-linejoin:miter;stroke-miterlimit:2.613;stroke-dasharray:none;stroke-opacity:1"
         id="path30998" />
    </g>
    <g
       id="g31000"
       transform="matrix(0.3544711,0,0,-0.35111971,-0.46031091,259.57914)">
      <path
         d="m 347.531,407.147 c -1.191,0 -2.163,0.972 -2.163,2.163 0,1.19 0.972,2.162 2.163,2.162 1.191,0 2.162,-0.972 2.162,-2.162 0,-1.191 -0.971,-2.163 -2.162,-2.163 z"
         style="fill:#ffffff;fill-opacity:1;fill-rule:evenodd;stroke:#231f20;stroke-width:0.827;stroke-linecap:butt;stroke-linejoin:miter;stroke-miterlimit:2.613;stroke-dasharray:none;stroke-opacity:1"
         id="path31002" />
    </g>
    <g
       id="g31004"
       transform="matrix(0.3544711,0,0,-0.35111971,-0.46031091,259.57914)">
      <path
         d="m 319.911,416.445 c -1.191,0 -2.162,0.972 -2.162,2.163 0,1.191 0.971,2.162 2.162,2.162 1.191,0 2.163,-0.971 2.163,-2.162 0,-1.191 -0.972,-2.163 -2.163,-2.163 z"
         style="fill:#ffffff;fill-opacity:1;fill-rule:evenodd;stroke:#231f20;stroke-width:0.827;stroke-linecap:butt;stroke-linejoin:miter;stroke-miterlimit:2.613;stroke-dasharray:none;stroke-opacity:1"
         id="path31006" />
    </g>
    <g
       id="g31008"
       transform="matrix(0.3544711,0,0,-0.35111971,-0.46031091,259.57914)">
      <path
         d="m 250.621,416.376 c -1.191,0 -2.162,0.972 -2.162,2.163 0,1.191 0.971,2.162 2.162,2.162 1.191,0 2.163,-0.971 2.163,-2.162 0,-1.191 -0.972,-2.163 -2.163,-2.163 z"
         style="fill:#ffffff;fill-opacity:1;fill-rule:evenodd;stroke:#231f20;stroke-width:0.827;stroke-linecap:butt;stroke-linejoin:miter;stroke-miterlimit:2.613;stroke-dasharray:none;stroke-opacity:1"
         id="path31010" />
    </g>
    <g
       id="g31012"
       transform="matrix(0.3544711,0,0,-0.35111971,-0.46031091,259.57914)">
      <path
         d="m 259.713,416.376 c -1.191,0 -2.162,0.972 -2.162,2.163 0,1.191 0.971,2.162 2.162,2.162 1.191,0 2.162,-0.971 2.162,-2.162 0,-1.191 -0.971,-2.163 -2.162,-2.163 z"
         style="fill:#ffffff;fill-opacity:1;fill-rule:evenodd;stroke:#231f20;stroke-width:0.827;stroke-linecap:butt;stroke-linejoin:miter;stroke-miterlimit:2.613;stroke-dasharray:none;stroke-opacity:1"
         id="path31014" />
    </g>
    <g
       id="g31016"
       transform="matrix(0.3544711,0,0,-0.35111971,-0.46031091,259.57914)">
      <path
         d="m 301.521,416.376 c -1.191,0 -2.162,0.972 -2.162,2.163 0,1.191 0.971,2.162 2.162,2.162 1.191,0 2.163,-0.971 2.163,-2.162 0,-1.191 -0.972,-2.163 -2.163,-2.163 z"
         style="fill:#ffffff;fill-opacity:1;fill-rule:evenodd;stroke:#231f20;stroke-width:0.827;stroke-linecap:butt;stroke-linejoin:miter;stroke-miterlimit:2.613;stroke-dasharray:none;stroke-opacity:1"
         id="path31018" />
    </g>
    <text
       xml:space="preserve"
       transform="scale(1.004764,0.99525861)"
       style="font-variant:normal;font-weight:normal;font-size:2.26393px;font-family:Swis721BT;-inkscape-font-specification:Swis721BT;writing-mode:lr-tb;fill:#231f20;fill-opacity:1;fill-rule:nonzero;stroke:none;stroke-width:0.351105"
       id="text31032"
       x="69.445145"
       y="120.34036"><tspan
         x="69.445145"
         y="120.34036"
         id="tspan31020"
         style="stroke-width:0.351105">0</tspan><tspan
         x="69.445145"
         y="104.2074"
         id="tspan31022"
         style="stroke-width:0.351105">5</tspan><tspan
         x="69.733566 71.03759 72.341614 86.083641 87.387665 88.691681 102.33636 103.64039 104.9444 118.58909 119.89311 121.19713 134.88936 136.19337 137.49739"
         y="123.8877"
         sodipodi:role="line"
         id="tspan31024"
         style="stroke-width:0.351105">350400450500550</tspan><tspan
         x="101.19241 102.86771 104.1672 105.5165 106.21379"
         y="126.77896"
         sodipodi:role="line"
         id="tspan31026"
         style="stroke-width:0.351105">Cents</tspan><tspan
         x="71.660172 73.600357 74.899849 76.190285 77.539581 78.89341 80.197433 81.501457 82.182899 83.486916"
         y="129.18439"
         sodipodi:role="line"
         id="tspan31028"
         style="stroke-width:0.351105">Mean:$4.35</tspan><tspan
         x="96.15358 97.944351 99.728325 101.17271 102.68048 104.24485 105.93827 107.87846 109.38622 111.07964"
         y="94.853081"
         sodipodi:role="line"
         id="tspan31030"
         style="stroke-width:0.351105">GOVERNMENT</tspan></text>
    <g
       id="g31034"
       transform="matrix(0.3544711,0,0,-0.35111971,-0.46031091,259.57914)">
      <path
         d="m 204.432,241.441 v -64.649 h 184.58 m -184.58,64.649 h 4.476 m -4.476,-9.16 h 4.476 m -4.476,-9.505 h 4.476 m -4.476,-9.023 h 4.476 m -4.476,-9.23 h 4.476 m -4.476,-18.596 h 4.476 m -4.476,9.229 h 4.476 m -4.476,-18.321 v -5.122 m 46.285,5.122 v -5.122 m 46.01,5.122 v -5.122 m 46.01,5.122 v -5.122 m 46.216,5.122 v -5.122 m -180.044,5.122 v -3.322 m 4.615,3.322 v -3.322 m 4.615,3.322 v -3.322 m 4.614,3.322 v -3.322 m 4.615,3.322 v -3.322 m 4.615,3.322 v -3.322 m 4.615,3.322 v -3.322 m 4.614,3.322 v -3.322 m 4.615,3.322 v -3.322 m 9.505,3.322 v -3.322 m 4.615,3.322 v -3.322 m 4.615,3.322 v -3.322 m 4.614,3.322 v -3.322 m 4.615,3.322 v -3.322 m 4.615,3.322 v -3.322 m 4.615,3.322 v -3.322 m 4.614,3.322 v -3.322 m 4.615,3.322 v -3.322 m 9.229,3.322 v -3.322 m 4.615,3.322 v -3.322 m 4.615,3.322 v -3.322 m 4.615,3.322 v -3.322 m 4.614,3.322 v -3.322 m 4.615,3.322 v -3.322 m 4.546,3.322 v -3.322 m 4.615,3.322 v -3.322 m 4.614,3.322 v -3.322 m 9.23,3.322 v -3.322 m 4.615,3.322 v -3.322 m 4.614,3.322 v -3.322 m 4.615,3.322 v -3.322 m 4.615,3.322 v -3.322 m 4.615,3.322 v -3.322 m 4.614,3.322 v -3.322 m 4.615,3.322 v -3.322 m 4.615,3.322 v -3.322"
         style="fill:none;stroke:#231f20;stroke-width:0.276;stroke-linecap:butt;stroke-linejoin:miter;stroke-miterlimit:2.613;stroke-dasharray:none;stroke-opacity:1"
         id="path31036" />
    </g>
    <g
       id="g31038"
       transform="matrix(0.3544711,0,0,-0.35111971,-0.46031091,259.57914)">
      <path
         d="m 250.555,183.723 c -1.189,0 -2.159,0.97 -2.159,2.159 0,1.19 0.97,2.16 2.159,2.16 1.19,0 2.16,-0.97 2.16,-2.16 0,-1.189 -0.97,-2.159 -2.16,-2.159 z"
         style="fill:#ffffff;fill-opacity:1;fill-rule:evenodd;stroke:#231f20;stroke-width:0.827;stroke-linecap:butt;stroke-linejoin:miter;stroke-miterlimit:2.613;stroke-dasharray:none;stroke-opacity:1"
         id="path31040" />
    </g>
    <g
       id="g31042"
       transform="matrix(0.3544711,0,0,-0.35111971,-0.46031091,259.57914)">
      <path
         d="m 259.647,183.723 c -1.189,0 -2.16,0.97 -2.16,2.159 0,1.19 0.971,2.16 2.16,2.16 1.189,0 2.16,-0.97 2.16,-2.16 0,-1.189 -0.971,-2.159 -2.16,-2.159 z"
         style="fill:#ffffff;fill-opacity:1;fill-rule:evenodd;stroke:#231f20;stroke-width:0.827;stroke-linecap:butt;stroke-linejoin:miter;stroke-miterlimit:2.613;stroke-dasharray:none;stroke-opacity:1"
         id="path31044" />
    </g>
    <g
       id="g31046"
       transform="matrix(0.3544711,0,0,-0.35111971,-0.46031091,259.57914)">
      <path
         d="m 264.262,183.723 c -1.19,0 -2.16,0.97 -2.16,2.159 0,1.19 0.97,2.16 2.16,2.16 1.189,0 2.159,-0.97 2.159,-2.16 0,-1.189 -0.97,-2.159 -2.159,-2.159 z"
         style="fill:#ffffff;fill-opacity:1;fill-rule:evenodd;stroke:#231f20;stroke-width:0.827;stroke-linecap:butt;stroke-linejoin:miter;stroke-miterlimit:2.613;stroke-dasharray:none;stroke-opacity:1"
         id="path31048" />
    </g>
    <g
       id="g31050"
       transform="matrix(0.3544711,0,0,-0.35111971,-0.46031091,259.57914)">
      <path
         d="m 268.876,183.723 c -1.189,0 -2.159,0.97 -2.159,2.159 0,1.19 0.97,2.16 2.159,2.16 1.19,0 2.16,-0.97 2.16,-2.16 0,-1.189 -0.97,-2.159 -2.16,-2.159 z"
         style="fill:#ffffff;fill-opacity:1;fill-rule:evenodd;stroke:#231f20;stroke-width:0.827;stroke-linecap:butt;stroke-linejoin:miter;stroke-miterlimit:2.613;stroke-dasharray:none;stroke-opacity:1"
         id="path31052" />
    </g>
    <g
       id="g31054"
       transform="matrix(0.3544711,0,0,-0.35111971,-0.46031091,259.57914)">
      <path
         d="m 268.876,193.09 c -1.189,0 -2.159,0.97 -2.159,2.159 0,1.19 0.97,2.16 2.159,2.16 1.19,0 2.16,-0.97 2.16,-2.16 0,-1.189 -0.97,-2.159 -2.16,-2.159 z"
         style="fill:#ffffff;fill-opacity:1;fill-rule:evenodd;stroke:#231f20;stroke-width:0.827;stroke-linecap:butt;stroke-linejoin:miter;stroke-miterlimit:2.613;stroke-dasharray:none;stroke-opacity:1"
         id="path31056" />
    </g>
    <g
       id="g31058"
       transform="matrix(0.3544711,0,0,-0.35111971,-0.46031091,259.57914)">
      <path
         d="m 268.876,202.319 c -1.189,0 -2.159,0.971 -2.159,2.16 0,1.189 0.97,2.16 2.159,2.16 1.19,0 2.16,-0.971 2.16,-2.16 0,-1.189 -0.97,-2.16 -2.16,-2.16 z"
         style="fill:#ffffff;fill-opacity:1;fill-rule:evenodd;stroke:#231f20;stroke-width:0.827;stroke-linecap:butt;stroke-linejoin:miter;stroke-miterlimit:2.613;stroke-dasharray:none;stroke-opacity:1"
         id="path31060" />
    </g>
    <g
       id="g31062"
       transform="matrix(0.3544711,0,0,-0.35111971,-0.46031091,259.57914)">
      <path
         d="m 232.165,183.723 c -1.189,0 -2.159,0.97 -2.159,2.159 0,1.19 0.97,2.16 2.159,2.16 1.19,0 2.16,-0.97 2.16,-2.16 0,-1.189 -0.97,-2.159 -2.16,-2.159 z"
         style="fill:#ffffff;fill-opacity:1;fill-rule:evenodd;stroke:#231f20;stroke-width:0.827;stroke-linecap:butt;stroke-linejoin:miter;stroke-miterlimit:2.613;stroke-dasharray:none;stroke-opacity:1"
         id="path31064" />
    </g>
    <g
       id="g31066"
       transform="matrix(0.3544711,0,0,-0.35111971,-0.46031091,259.57914)">
      <path
         d="m 296.771,193.09 c -1.189,0 -2.159,0.97 -2.159,2.159 0,1.19 0.97,2.16 2.159,2.16 1.19,0 2.16,-0.97 2.16,-2.16 0,-1.189 -0.97,-2.159 -2.16,-2.159 z"
         style="fill:#ffffff;fill-opacity:1;fill-rule:evenodd;stroke:#231f20;stroke-width:0.827;stroke-linecap:butt;stroke-linejoin:miter;stroke-miterlimit:2.613;stroke-dasharray:none;stroke-opacity:1"
         id="path31068" />
    </g>
    <g
       id="g31070"
       transform="matrix(0.3544711,0,0,-0.35111971,-0.46031091,259.57914)">
      <path
         d="m 301.386,202.25 c -1.189,0 -2.159,0.971 -2.159,2.16 0,1.189 0.97,2.16 2.159,2.16 1.19,0 2.16,-0.971 2.16,-2.16 0,-1.189 -0.97,-2.16 -2.16,-2.16 z"
         style="fill:#ffffff;fill-opacity:1;fill-rule:evenodd;stroke:#231f20;stroke-width:0.827;stroke-linecap:butt;stroke-linejoin:miter;stroke-miterlimit:2.613;stroke-dasharray:none;stroke-opacity:1"
         id="path31072" />
    </g>
    <g
       id="g31074"
       transform="matrix(0.3544711,0,0,-0.35111971,-0.46031091,259.57914)">
      <path
         d="m 310.685,183.723 c -1.19,0 -2.16,0.97 -2.16,2.159 0,1.19 0.97,2.16 2.16,2.16 1.189,0 2.159,-0.97 2.159,-2.16 0,-1.189 -0.97,-2.159 -2.159,-2.159 z"
         style="fill:#ffffff;fill-opacity:1;fill-rule:evenodd;stroke:#231f20;stroke-width:0.827;stroke-linecap:butt;stroke-linejoin:miter;stroke-miterlimit:2.613;stroke-dasharray:none;stroke-opacity:1"
         id="path31076" />
    </g>
    <g
       id="g31078"
       transform="matrix(0.3544711,0,0,-0.35111971,-0.46031091,259.57914)">
      <path
         d="m 319.776,211.411 c -1.189,0 -2.159,0.97 -2.159,2.16 0,1.189 0.97,2.159 2.159,2.159 1.19,0 2.16,-0.97 2.16,-2.159 0,-1.19 -0.97,-2.16 -2.16,-2.16 z"
         style="fill:#ffffff;fill-opacity:1;fill-rule:evenodd;stroke:#231f20;stroke-width:0.827;stroke-linecap:butt;stroke-linejoin:miter;stroke-miterlimit:2.613;stroke-dasharray:none;stroke-opacity:1"
         id="path31080" />
    </g>
    <g
       id="g31082"
       transform="matrix(0.3544711,0,0,-0.35111971,-0.46031091,259.57914)">
      <path
         d="m 351.735,193.09 c -1.189,0 -2.16,0.97 -2.16,2.159 0,1.19 0.971,2.16 2.16,2.16 1.189,0 2.16,-0.97 2.16,-2.16 0,-1.189 -0.971,-2.159 -2.16,-2.159 z"
         style="fill:#ffffff;fill-opacity:1;fill-rule:evenodd;stroke:#231f20;stroke-width:0.827;stroke-linecap:butt;stroke-linejoin:miter;stroke-miterlimit:2.613;stroke-dasharray:none;stroke-opacity:1"
         id="path31084" />
    </g>
    <g
       id="g31086"
       transform="matrix(0.3544711,0,0,-0.35111971,-0.46031091,259.57914)">
      <path
         d="m 319.776,220.641 c -1.189,0 -2.159,0.97 -2.159,2.159 0,1.189 0.97,2.16 2.159,2.16 1.19,0 2.16,-0.971 2.16,-2.16 0,-1.189 -0.97,-2.159 -2.16,-2.159 z"
         style="fill:#ffffff;fill-opacity:1;fill-rule:evenodd;stroke:#231f20;stroke-width:0.827;stroke-linecap:butt;stroke-linejoin:miter;stroke-miterlimit:2.613;stroke-dasharray:none;stroke-opacity:1"
         id="path31088" />
    </g>
    <g
       id="g31090"
       transform="matrix(0.3544711,0,0,-0.35111971,-0.46031091,259.57914)">
      <path
         d="m 250.555,192.952 c -1.189,0 -2.159,0.97 -2.159,2.16 0,1.189 0.97,2.159 2.159,2.159 1.19,0 2.16,-0.97 2.16,-2.159 0,-1.19 -0.97,-2.16 -2.16,-2.16 z"
         style="fill:#ffffff;fill-opacity:1;fill-rule:evenodd;stroke:#231f20;stroke-width:0.827;stroke-linecap:butt;stroke-linejoin:miter;stroke-miterlimit:2.613;stroke-dasharray:none;stroke-opacity:1"
         id="path31092" />
    </g>
    <g
       id="g31094"
       transform="matrix(0.3544711,0,0,-0.35111971,-0.46031091,259.57914)">
      <path
         d="m 259.647,192.952 c -1.189,0 -2.16,0.97 -2.16,2.16 0,1.189 0.971,2.159 2.16,2.159 1.189,0 2.16,-0.97 2.16,-2.159 0,-1.19 -0.971,-2.16 -2.16,-2.16 z"
         style="fill:#ffffff;fill-opacity:1;fill-rule:evenodd;stroke:#231f20;stroke-width:0.827;stroke-linecap:butt;stroke-linejoin:miter;stroke-miterlimit:2.613;stroke-dasharray:none;stroke-opacity:1"
         id="path31096" />
    </g>
    <g
       id="g31098"
       transform="matrix(0.3544711,0,0,-0.35111971,-0.46031091,259.57914)">
      <path
         d="m 301.386,211.48 c -1.189,0 -2.159,0.97 -2.159,2.16 0,1.189 0.97,2.159 2.159,2.159 1.19,0 2.16,-0.97 2.16,-2.159 0,-1.19 -0.97,-2.16 -2.16,-2.16 z"
         style="fill:#ffffff;fill-opacity:1;fill-rule:evenodd;stroke:#231f20;stroke-width:0.827;stroke-linecap:butt;stroke-linejoin:miter;stroke-miterlimit:2.613;stroke-dasharray:none;stroke-opacity:1"
         id="path31100" />
    </g>
    <text
       xml:space="preserve"
       transform="scale(1.0046919,0.99532999)"
       style="font-variant:normal;font-weight:normal;font-size:2.26093px;font-family:Swis721BT;-inkscape-font-specification:Swis721BT;writing-mode:lr-tb;fill:#231f20;fill-opacity:1;fill-rule:nonzero;stroke:none;stroke-width:0.35113"
       id="text31112"
       x="69.451881"
       y="199.14629"><tspan
         x="69.451881"
         y="199.14629"
         id="tspan31102"
         style="stroke-width:0.35113">0</tspan><tspan
         x="69.451881"
         y="183.01253"
         id="tspan31104"
         style="stroke-width:0.35113">5</tspan><tspan
         x="69.74128 71.043571 72.345871 86.067436 87.369736 88.672028 102.29638 103.59867 104.90097 118.52532 119.82761 121.12991 134.82661 136.12891 137.4312"
         y="202.66949"
         sodipodi:role="line"
         id="tspan31106"
         style="stroke-width:0.35113">350400450500550</tspan><tspan
         x="101.15439 102.82747 104.12524 105.47276 106.16912"
         y="205.56099"
         sodipodi:role="line"
         id="tspan31108"
         style="stroke-width:0.35113">Cents</tspan><tspan
         x="89.841156 91.326584 92.888885 93.530991 94.935028 96.357147 97.709183 99.834457 102.39835 104.18674 105.96835 107.41083 108.9166 110.4789 112.17008 114.1077 115.61347 117.30464"
         y="173.68213"
         sodipodi:role="line"
         id="tspan31110"
         style="stroke-width:0.35113">PRIVATE+GOVERNMENT</tspan></text>
    <path
       d="m 98.962695,194.94919 h -1.570214 l 0.769056,-1.6203 0.801158,1.6203"
       style="fill:#231f20;fill-opacity:1;fill-rule:evenodd;stroke:none;stroke-width:0.352778"
       id="path31114" />
    <path
       d="m 105.40795,194.94919 h -1.57022 l 0.7687,-1.6203 0.80152,1.6203"
       style="fill:#231f20;fill-opacity:1;fill-rule:evenodd;stroke:none;stroke-width:0.352778"
       id="path31116" />
    <path
       d="m 107.09246,194.94919 h -1.57021 l 0.7687,-1.6203 0.80151,1.6203"
       style="fill:#231f20;fill-opacity:1;fill-rule:evenodd;stroke:none;stroke-width:0.352778"
       id="path31118" />
    <path
       d="m 113.68411,194.94919 h -1.57021 l 0.7687,-1.6203 0.80151,1.6203"
       style="fill:#231f20;fill-opacity:1;fill-rule:evenodd;stroke:none;stroke-width:0.352778"
       id="path31120" />
    <path
       d="m 115.36863,194.94919 h -1.57022 l 0.7687,-1.6203 0.80152,1.6203"
       style="fill:#231f20;fill-opacity:1;fill-rule:evenodd;stroke:none;stroke-width:0.352778"
       id="path31122" />
    <path
       d="m 116.90674,194.94919 h -1.57022 l 0.76871,-1.6203 0.80151,1.6203"
       style="fill:#231f20;fill-opacity:1;fill-rule:evenodd;stroke:none;stroke-width:0.352778"
       id="path31124" />
    <path
       d="m 118.46919,194.94919 h -1.57021 l 0.7687,-1.6203 0.80151,1.6203"
       style="fill:#231f20;fill-opacity:1;fill-rule:evenodd;stroke:none;stroke-width:0.352778"
       id="path31126" />
    <path
       d="m 120.17804,194.94919 h -1.56986 l 0.76871,-1.6203 0.80115,1.6203"
       style="fill:#231f20;fill-opacity:1;fill-rule:evenodd;stroke:none;stroke-width:0.352778"
       id="path31128" />
    <path
       d="m 125.06084,194.94919 h -1.57021 l 0.7687,-1.6203 0.80151,1.6203"
       style="fill:#231f20;fill-opacity:1;fill-rule:evenodd;stroke:none;stroke-width:0.352778"
       id="path31130" />
    <path
       d="m 128.28347,194.94919 h -1.57022 l 0.76871,-1.6203 0.80151,1.6203"
       style="fill:#231f20;fill-opacity:1;fill-rule:evenodd;stroke:none;stroke-width:0.352778"
       id="path31132" />
    <path
       d="m 129.96798,194.94919 h -1.57021 l 0.7687,-1.6203 0.80151,1.6203"
       style="fill:#231f20;fill-opacity:1;fill-rule:evenodd;stroke:none;stroke-width:0.352778"
       id="path31134" />
    <path
       d="m 131.60381,194.94919 h -1.57021 l 0.7687,-1.6203 0.80151,1.6203"
       style="fill:#231f20;fill-opacity:1;fill-rule:evenodd;stroke:none;stroke-width:0.352778"
       id="path31136" />
    <path
       d="m 131.60381,191.78125 h -1.57021 l 0.7687,-1.62031 0.80151,1.62031"
       style="fill:#231f20;fill-opacity:1;fill-rule:evenodd;stroke:none;stroke-width:0.352778"
       id="path31138" />
    <path
       d="m 107.09246,191.75691 h -1.57021 l 0.7687,-1.62031 0.80151,1.62031"
       style="fill:#231f20;fill-opacity:1;fill-rule:evenodd;stroke:none;stroke-width:0.352778"
       id="path31140" />
    <path
       d="m 113.68411,191.75691 h -1.57021 l 0.7687,-1.62031 0.80151,1.62031"
       style="fill:#231f20;fill-opacity:1;fill-rule:evenodd;stroke:none;stroke-width:0.352778"
       id="path31142" />
    <path
       d="m 115.36863,191.75691 h -1.57022 l 0.7687,-1.62031 0.80152,1.62031"
       style="fill:#231f20;fill-opacity:1;fill-rule:evenodd;stroke:none;stroke-width:0.352778"
       id="path31144" />
    <path
       d="m 116.90674,191.75691 h -1.57022 l 0.76871,-1.62031 0.80151,1.62031"
       style="fill:#231f20;fill-opacity:1;fill-rule:evenodd;stroke:none;stroke-width:0.352778"
       id="path31146" />
    <path
       d="m 118.46919,191.75691 h -1.57021 l 0.7687,-1.62031 0.80151,1.62031"
       style="fill:#231f20;fill-opacity:1;fill-rule:evenodd;stroke:none;stroke-width:0.352778"
       id="path31148" />
    <path
       d="m 120.17804,191.75691 h -1.56986 l 0.76871,-1.62031 0.80115,1.62031"
       style="fill:#231f20;fill-opacity:1;fill-rule:evenodd;stroke:none;stroke-width:0.352778"
       id="path31150" />
    <path
       d="m 120.17804,188.58896 h -1.56986 l 0.76871,-1.6203 0.80115,1.6203"
       style="fill:#231f20;fill-opacity:1;fill-rule:evenodd;stroke:none;stroke-width:0.352778"
       id="path31152" />
    <path
       d="m 113.68411,188.56462 h -1.57021 l 0.7687,-1.61995 0.80151,1.61995"
       style="fill:#231f20;fill-opacity:1;fill-rule:evenodd;stroke:none;stroke-width:0.352778"
       id="path31154" />
    <path
       d="m 115.36863,188.56462 h -1.57022 l 0.7687,-1.61995 0.80152,1.61995"
       style="fill:#231f20;fill-opacity:1;fill-rule:evenodd;stroke:none;stroke-width:0.352778"
       id="path31156" />
    <path
       d="m 116.90674,188.56462 h -1.57022 l 0.76871,-1.61995 0.80151,1.61995"
       style="fill:#231f20;fill-opacity:1;fill-rule:evenodd;stroke:none;stroke-width:0.352778"
       id="path31158" />
    <path
       d="m 115.36863,185.30002 h -1.57022 l 0.7687,-1.62031 0.80152,1.62031"
       style="fill:#231f20;fill-opacity:1;fill-rule:evenodd;stroke:none;stroke-width:0.352778"
       id="path31160" />
    <path
       d="m 116.90674,185.30002 h -1.57022 l 0.76871,-1.62031 0.80151,1.62031"
       style="fill:#231f20;fill-opacity:1;fill-rule:evenodd;stroke:none;stroke-width:0.352778"
       id="path31162" />
    <path
       d="m 98.962695,191.75691 h -1.570214 l 0.769056,-1.62031 0.801158,1.62031"
       style="fill:#231f20;fill-opacity:1;fill-rule:evenodd;stroke:none;stroke-width:0.352778"
       id="path31164" />
  </g>
</svg>
