<?xml version="1.0" encoding="UTF-8" standalone="no"?>
<!-- Created with Inkscape (http://www.inkscape.org/) -->

<svg
   width="117.65746mm"
   height="120.06288mm"
   viewBox="0 0 117.65746 120.06288"
   version="1.1"
   id="svg13123"
   inkscape:version="1.2.2 (b0a8486, 2022-12-01)"
   sodipodi:docname="mercury_reserves.svg"
   xmlns:inkscape="http://www.inkscape.org/namespaces/inkscape"
   xmlns:sodipodi="http://sodipodi.sourceforge.net/DTD/sodipodi-0.dtd"
   xmlns="http://www.w3.org/2000/svg"
   xmlns:svg="http://www.w3.org/2000/svg">
  <sodipodi:namedview
     id="namedview13125"
     pagecolor="#ffffff"
     bordercolor="#666666"
     borderopacity="1.0"
     inkscape:showpageshadow="2"
     inkscape:pageopacity="0.0"
     inkscape:pagecheckerboard="0"
     inkscape:deskcolor="#d1d1d1"
     inkscape:document-units="mm"
     showgrid="false"
     inkscape:zoom="0.73139029"
     inkscape:cx="222.86323"
     inkscape:cy="226.965"
     inkscape:window-width="708"
     inkscape:window-height="480"
     inkscape:window-x="0"
     inkscape:window-y="25"
     inkscape:window-maximized="0"
     inkscape:current-layer="layer1" />
  <defs
     id="defs13120" />
  <g
     inkscape:label="Layer 1"
     inkscape:groupmode="layer"
     id="layer1"
     transform="translate(-45.899046,-88.649429)">
    <g
       id="g7470"
       transform="matrix(0.36332583,0,0,-0.34254721,11.125042,232.53679)">
      <path
         d="M 138.003,417.164 V 275.185 m -0.08,28.334 h 4.658 m -4.658,28.363 h 4.658 m -4.658,28.585 h 4.658 m -4.658,28.335 h 4.658 m -4.658,28.362 h 4.658 m -4.578,-141.979 h 280.473 m -246.309,0.155 v 4.63 m 34.163,-4.63 v 4.63 m 34.386,-4.63 v 4.63 m 34.163,-4.63 v 4.63 m 34.163,-4.63 v 4.63 m 34.164,-4.63 v 4.63 m 34.135,-4.63 v 4.63 m 34.414,-4.63 v 4.63 m 6.688,131.567 h -6.763 l -6.939,0.235 -6.705,0.235 -6.998,0.235 -6.763,3.941 h -6.999 l -6.704,-54.812 -6.998,0.177 -6.705,0.529 -6.763,0.882 -6.94,-3.705 h -6.763 l -6.939,17.937 -6.764,0.412 -6.998,0.235 -6.704,1.176 h -47.872 l -6.998,-20.642 -6.705,-20.525 -6.763,26.288 -6.939,26.465 h -27.465 l -6.704,-5.763 -6.763,-5.823 -6.94,-6.057 -6.763,-3.47 -6.94,-3.293 -6.704,-3.47 -6.999,-3.47 -6.763,-3.47 -6.998,-3.234 -6.763,-3.529"
         style="fill:none;stroke:#231f20;stroke-width:0.47;stroke-linecap:butt;stroke-linejoin:miter;stroke-miterlimit:2.613;stroke-dasharray:none;stroke-opacity:1"
         id="path7472" />
    </g>
    <text
       xml:space="preserve"
       transform="scale(1.0298841,0.97098305)"
       style="font-variant:normal;font-weight:normal;font-size:2.59338px;font-family:Swis721BT;-inkscape-font-specification:Swis721BT;writing-mode:lr-tb;fill:#231f20;fill-opacity:1;fill-rule:nonzero;stroke:none;stroke-width:0.342541"
       id="text7488"
       x="56.746254"
       y="142.37444"><tspan
         x="56.746254"
         y="142.37444"
         id="tspan7474"
         style="stroke-width:0.342541">0</tspan><tspan
         x="49.985054 51.47884 52.97263 53.753235 55.247021 56.74081"
         y="133.41147"
         sodipodi:role="line"
         id="tspan7476"
         style="stroke-width:0.342541">50,000</tspan><tspan
         x="48.490231 49.984016 51.477806 52.971592 53.752197 55.245983 56.739773"
         y="123.07918"
         sodipodi:role="line"
         id="tspan7478"
         style="stroke-width:0.342541">100,000</tspan><tspan
         x="48.490231 49.984016 51.477806 52.971592 53.752197 55.245983 56.739773"
         y="113.34856"
         sodipodi:role="line"
         id="tspan7480"
         style="stroke-width:0.342541">150,000</tspan><tspan
         x="48.490231 49.984016 51.477806 52.971592 53.752197 55.245983 56.739773"
         y="103.30673"
         sodipodi:role="line"
         id="tspan7482"
         style="stroke-width:0.342541">200,000</tspan><tspan
         x="48.490231 49.984016 51.477806 52.971592 53.752197 55.245983 56.739773"
         y="93.223412"
         sodipodi:role="line"
         id="tspan7484"
         style="stroke-width:0.342541">250,000</tspan><tspan
         x="56.315495 57.80928 59.30307 60.796856 68.366928 69.860718 71.354507 72.848289 80.397621 81.891403 83.385193 84.878975 92.552788 94.046577 95.540359 97.034149 104.58348 106.07726 107.57105 109.06484 116.63491 118.1287 119.62248 121.11627 128.68636 130.18013 131.67392 133.16771 140.73778 142.23157 143.72536 145.21915 152.85146 154.34525 155.83904 157.33282"
         y="146.71005"
         sodipodi:role="line"
         id="tspan7486"
         style="stroke-width:0.342541">195019551960196519701975198019851990</tspan></text>
    <text
       xml:space="preserve"
       transform="matrix(0,-0.97098907,1.0298777,0,0,0)"
       style="font-variant:normal;font-weight:normal;font-size:2.88147px;font-family:Swis721BT;-inkscape-font-specification:Swis721BT;writing-mode:lr-tb;fill:#231f20;fill-opacity:1;fill-rule:nonzero;stroke:none;stroke-width:0.342543"
       id="text7492"
       x="-122.56111"
       y="46.676517"><tspan
         x="-122.56111 -120.09169 -118.43772 -117.55022 -116.51578 -115.79829 -113.41819 -112.5307 -110.77876 -109.0614"
         y="46.676517"
         sodipodi:role="line"
         id="tspan7490"
         style="stroke-width:0.342543">Metrictons</tspan></text>
    <text
       xml:space="preserve"
       transform="scale(1.0298841,0.97098305)"
       style="font-variant:normal;font-weight:normal;font-size:2.59338px;font-family:Swis721BT;-inkscape-font-specification:Swis721BT;writing-mode:lr-tb;fill:#231f20;fill-opacity:1;fill-rule:nonzero;stroke:none;stroke-width:0.342541"
       id="text7498"
       x="107.81435"
       y="130.79761"><tspan
         x="107.81435 109.29258 110.04726 110.84602 112.33462 113.97623 115.47001 116.9638 118.45759 120.66196 121.59298 123.08158 124.43792 125.92652 126.85754 128.17497 130.37416 131.98465 133.46288 134.81921 137.0184 138.44995 139.99561 141.47383 143.01949 144.63257"
         y="130.79761"
         sodipodi:role="line"
         id="tspan7494"
         style="stroke-width:0.342541">after1979reservebasechange</tspan><tspan
         x="105.7604 107.23862 107.9933 108.79206 110.28066 111.92227 113.41605 114.90984 116.40363 118.608 119.53902 121.02763 122.38396 123.87256 124.80359 126.12103 128.32021 129.93069 131.40892 132.76526 134.96445 136.396 137.94165 139.41988 140.96553 142.57861"
         y="201.91949"
         sodipodi:role="line"
         id="tspan7496"
         style="stroke-width:0.342541">after1979reservebasechange</tspan></text>
    <g
       id="g7500"
       transform="matrix(0.36332583,0,0,-0.34254721,11.125042,232.53679)">
      <path
         d="M 137.939,227.867 V 91.207 m -0.019,15.213 h 4.535 m -4.535,15.154 h 4.535 m -4.535,15.155 h 4.535 m -4.535,15.181 h 4.535 m -4.535,15.372 h 4.535 m -4.535,15.154 h 4.535 m -4.535,15.182 h 4.535 m -4.535,15.154 h 4.535 m -4.535,15.154 h 4.535 m -4.398,-136.66 h 279.459 m -245.561,0.071 v 4.535 m 34.215,-4.535 v 4.535 m 34.192,-4.535 v 4.535 m 33.921,-4.535 v 4.535 m 34.165,-4.535 v 4.535 m 34.192,-4.535 v 4.535 m 33.921,-4.535 v 4.535 m 34.192,-4.535 v 4.535 m -272.717,79.541 6.705,-2.705 6.88,1.294 6.822,-1.117 6.822,-6.999 6.94,-2.705 6.822,-5.646 6.763,-4.528 6.822,2.293 6.763,9.057 6.705,-2.529 6.822,4.058 6.822,-1.529 6.998,1.764 6.881,-4.528 6.763,-20.113 6.704,-13.585 6.822,18.995 6.822,6.352 6.822,-6.587 6.705,1.118 7.057,-2.941 6.763,4.058 6.822,1.823 6.646,2.294 6.881,2.293 6.822,3.823 6.821,15.408 6.764,3.882 6.998,-12.292 6.822,-8.762 6.763,-1.471 6.763,3.47 6.822,2.999 6.705,-2.822 6.822,41.872 6.822,14.938 7.057,-1.529"
         style="fill:none;stroke:#231f20;stroke-width:0.47;stroke-linecap:butt;stroke-linejoin:miter;stroke-miterlimit:2.613;stroke-dasharray:none;stroke-opacity:1"
         id="path7502" />
    </g>
    <text
       xml:space="preserve"
       transform="scale(1.0298841,0.97098305)"
       style="font-variant:normal;font-weight:normal;font-size:2.59338px;font-family:Swis721BT;-inkscape-font-specification:Swis721BT;writing-mode:lr-tb;fill:#231f20;fill-opacity:1;fill-rule:nonzero;stroke:none;stroke-width:0.342541"
       id="text7526"
       x="56.746254"
       y="208.03949"><tspan
         x="56.746254"
         y="208.03949"
         id="tspan7504"
         style="stroke-width:0.342541">0</tspan><tspan
         x="56.746254"
         y="202.89423"
         id="tspan7506"
         style="stroke-width:0.342541">5</tspan><tspan
         x="55.251431 56.745216"
         y="197.43776"
         sodipodi:role="line"
         id="tspan7508"
         style="stroke-width:0.342541">10</tspan><tspan
         x="55.251431 56.745216"
         y="192.18875"
         sodipodi:role="line"
         id="tspan7510"
         style="stroke-width:0.342541">15</tspan><tspan
         x="55.251431 56.745216"
         y="186.85677"
         sodipodi:role="line"
         id="tspan7512"
         style="stroke-width:0.342541">20</tspan><tspan
         x="55.251431 56.745216"
         y="181.4003"
         sodipodi:role="line"
         id="tspan7514"
         style="stroke-width:0.342541">25</tspan><tspan
         x="55.251431 56.745216"
         y="176.06831"
         sodipodi:role="line"
         id="tspan7516"
         style="stroke-width:0.342541">30</tspan><tspan
         x="55.251431 56.745216"
         y="170.79855"
         sodipodi:role="line"
         id="tspan7518"
         style="stroke-width:0.342541">35</tspan><tspan
         x="55.251431 56.745216"
         y="165.25909"
         sodipodi:role="line"
         id="tspan7520"
         style="stroke-width:0.342541">40</tspan><tspan
         x="55.251431 56.745216"
         y="160.11383"
         sodipodi:role="line"
         id="tspan7522"
         style="stroke-width:0.342541">45</tspan><tspan
         x="56.191013 57.684799 59.178585 60.672371 68.242447 69.736237 71.230019 72.723808 80.210892 81.704681 83.198471 84.692253 92.262329 93.756119 95.249908 96.74369 104.23077 105.72456 107.21835 108.71214 116.28221 117.776 119.26979 120.76357 128.33365 129.82744 131.32123 132.815 140.30209 141.79588 143.28967 144.78346 152.35353 153.84732 155.34111 156.8349"
         y="211.25606"
         sodipodi:role="line"
         id="tspan7524"
         style="stroke-width:0.342541">195019551960196519701975198019851990</tspan></text>
    <text
       xml:space="preserve"
       transform="matrix(0,-0.97098907,1.0298777,0,0,0)"
       style="font-variant:normal;font-weight:normal;font-size:2.88147px;font-family:Swis721BT;-inkscape-font-specification:Swis721BT;writing-mode:lr-tb;fill:#231f20;fill-opacity:1;fill-rule:nonzero;stroke:none;stroke-width:0.342543"
       id="text7530"
       x="-189.4614"
       y="53.211559"><tspan
         x="-189.4614 -187.90828 -186.2543 -184.61186 -183.57742"
         y="53.211559"
         sodipodi:role="line"
         id="tspan7528"
         style="stroke-width:0.342543">Years</tspan></text>
    <g
       id="g7532"
       transform="matrix(0.36332583,0,0,-0.34254721,11.125042,232.53679)">
      <path
         d="m 330.169,317.734 6.782,34.532"
         style="fill:none;stroke:#231f20;stroke-width:0.47;stroke-linecap:butt;stroke-linejoin:miter;stroke-miterlimit:2.613;stroke-dasharray:none;stroke-opacity:1"
         id="path7534" />
    </g>
    <g
       id="g7536"
       transform="matrix(0.36332583,0,0,-0.34254721,11.125042,232.53679)">
      <path
         d="m 334.381,350.111 2.692,2.782 1.443,-3.594"
         style="fill:none;stroke:#231f20;stroke-width:0.823;stroke-linecap:butt;stroke-linejoin:miter;stroke-miterlimit:2.613;stroke-dasharray:none;stroke-opacity:1"
         id="path7538" />
    </g>
    <g
       id="g7540"
       transform="matrix(0.36332583,0,0,-0.34254721,11.125042,232.53679)">
      <path
         d="m 336.227,118.544 6.781,34.532"
         style="fill:none;stroke:#231f20;stroke-width:0.47;stroke-linecap:butt;stroke-linejoin:miter;stroke-miterlimit:2.613;stroke-dasharray:none;stroke-opacity:1"
         id="path7542" />
    </g>
    <g
       id="g7544"
       transform="matrix(0.36332583,0,0,-0.34254721,11.125042,232.53679)">
      <path
         d="m 340.438,150.921 2.693,2.782 1.442,-3.594"
         style="fill:none;stroke:#231f20;stroke-width:0.823;stroke-linecap:butt;stroke-linejoin:miter;stroke-miterlimit:2.613;stroke-dasharray:none;stroke-opacity:1"
         id="path7546" />
    </g>
    <text
       xml:space="preserve"
       transform="scale(1.0298777,0.97098907)"
       style="font-variant:normal;font-weight:normal;font-size:2.88147px;font-family:Swis721BT;-inkscape-font-specification:Swis721BT;writing-mode:lr-tb;fill:#231f20;fill-opacity:1;fill-rule:nonzero;stroke:none;stroke-width:0.342543"
       id="text7552"
       x="105.1836"
       y="150.69318"><tspan
         x="105.1836 106.73672 108.39069 110.03313"
         y="150.69318"
         sodipodi:role="line"
         id="tspan7548"
         style="stroke-width:0.342543">Year</tspan><tspan
         x="105.1836 106.73672 108.39069 110.03313"
         y="214.90454"
         sodipodi:role="line"
         id="tspan7550"
         style="stroke-width:0.342543">Year</tspan></text>
  </g>
</svg>
