<?xml version="1.0" encoding="UTF-8" standalone="no"?>
<!-- Created with Inkscape (http://www.inkscape.org/) -->

<svg
   width="81.141602mm"
   height="70.540474mm"
   viewBox="0 0 81.141602 70.540474"
   version="1.1"
   id="svg9255"
   inkscape:version="1.2.2 (b0a8486, 2022-12-01)"
   sodipodi:docname="nile_height.svg"
   xmlns:inkscape="http://www.inkscape.org/namespaces/inkscape"
   xmlns:sodipodi="http://sodipodi.sourceforge.net/DTD/sodipodi-0.dtd"
   xmlns="http://www.w3.org/2000/svg"
   xmlns:svg="http://www.w3.org/2000/svg">
  <sodipodi:namedview
     id="namedview9257"
     pagecolor="#ffffff"
     bordercolor="#666666"
     borderopacity="1.0"
     inkscape:showpageshadow="2"
     inkscape:pageopacity="0.0"
     inkscape:pagecheckerboard="0"
     inkscape:deskcolor="#d1d1d1"
     inkscape:document-units="mm"
     showgrid="false"
     inkscape:zoom="0.73139029"
     inkscape:cx="154.50027"
     inkscape:cy="132.62413"
     inkscape:window-width="706"
     inkscape:window-height="480"
     inkscape:window-x="0"
     inkscape:window-y="25"
     inkscape:window-maximized="0"
     inkscape:current-layer="layer1" />
  <defs
     id="defs9252" />
  <g
     inkscape:label="Layer 1"
     inkscape:groupmode="layer"
     id="layer1"
     transform="translate(-64.156971,-113.41065)">
    <path
       d="m 78.496567,114.75892 v 61.3918 h 66.802003 m -66.802003,-61.3918 h 1.9304 m -1.9304,14.605 h 1.9304 m -1.9304,13.7922 h 1.9304 m -1.9304,13.1318 h 1.9304 m -1.9304,13.6398 h 1.9304 m 2.819399,6.223 v -1.905 m 12.9286,1.905 v -1.905 m 13.639804,1.905 v -1.905 m 13.8938,1.905 v -1.905 m 13.1572,1.905 v -1.905"
       style="fill:none;stroke:#231f20;stroke-width:0.2032;stroke-linecap:butt;stroke-linejoin:miter;stroke-miterlimit:2.613;stroke-dasharray:none;stroke-opacity:1"
       id="path7336" />
    <path
       d="m 77.150367,174.06792 2.607027,-2.0888"
       style="fill:none;stroke:#ffffff;stroke-width:0.7112;stroke-linecap:butt;stroke-linejoin:miter;stroke-miterlimit:2.613;stroke-dasharray:none;stroke-opacity:1"
       id="path7338" />
    <path
       d="m 77.150367,173.45832 2.607027,-2.0888 m -2.607027,3.2318 2.607027,-2.0888"
       style="fill:none;stroke:#231f20;stroke-width:0.2032;stroke-linecap:butt;stroke-linejoin:miter;stroke-miterlimit:2.613;stroke-dasharray:none;stroke-opacity:1"
       id="path7340" />
    <path
       d="m 83.703566,129.64332 1.2446,-1.0922 1.2954,-3.4798 1.5748,8.1788 1.143,6.5532 1.6256,1.7526 1.1176,-0.0254 1.143,1.7526 0.6096,-1.8542 0.635,-0.8382 2.032,1.8034 0.9144,-0.8382 1.1684,0.8382 1.1938,-0.4064 1.295404,2.8956 1.4224,-1.8034 6.2738,17.018 1.7526,0.1778 1.524,-1.2954 2.159,1.6256 0.6096,-0.889 1.524,0.4064 0.9652,1.4986 3.556,1.7526 1.7526,3.175 1.2446,-0.0508 1.2446,1.0668 1.8288,-1.9812"
       style="fill:none;stroke:#231f20;stroke-width:0.3048;stroke-linecap:butt;stroke-linejoin:miter;stroke-miterlimit:2.613;stroke-dasharray:none;stroke-opacity:1"
       id="path7342" />
    <text
       xml:space="preserve"
       transform="rotate(-90)"
       style="font-variant:normal;font-weight:normal;font-size:3.52778px;font-family:Swis721BT;-inkscape-font-specification:Swis721BT;writing-mode:lr-tb;fill:#231f20;fill-opacity:1;fill-rule:nonzero;stroke:none;stroke-width:0.352778"
       id="text7346"
       x="-153.21028"
       y="66.837257"><tspan
         x="-153.21028 -150.56445 -148.53951 -147.66109 -145.46681 -143.36426 -141.40634 -140.12575 -138.17842 -135.05634"
         y="66.837257"
         sodipodi:role="line"
         id="tspan7344"
         style="stroke-width:0.352778">Height(cm)</tspan></text>
    <text
       xml:space="preserve"
       style="font-variant:normal;font-weight:normal;font-size:3.52778px;font-family:Swis721BT;-inkscape-font-specification:Swis721BT;writing-mode:lr-tb;fill:#231f20;fill-opacity:1;fill-rule:nonzero;stroke:none;stroke-width:0.352778"
       id="text7360"
       x="69.138428"
       y="116.02892"><tspan
         x="69.138428 71.170433 73.202431 75.234428"
         y="116.02892"
         sodipodi:role="line"
         id="tspan7348"
         style="stroke-width:0.352778">1250</tspan><tspan
         x="69.138428 71.170433 73.202431 75.234428"
         y="130.48152"
         sodipodi:role="line"
         id="tspan7350"
         style="stroke-width:0.352778">1200</tspan><tspan
         x="69.138428 71.170433 73.202431 75.234428"
         y="144.47691"
         sodipodi:role="line"
         id="tspan7352"
         style="stroke-width:0.352778">1150</tspan><tspan
         x="69.138428 71.170433 73.202431 75.234428"
         y="158.54852"
         sodipodi:role="line"
         id="tspan7354"
         style="stroke-width:0.352778">1100</tspan><tspan
         x="69.138428 71.170433 73.202431 75.234428"
         y="171.19772"
         sodipodi:role="line"
         id="tspan7356"
         style="stroke-width:0.352778">1050</tspan><tspan
         x="78.907906 80.939903 82.971909"
         y="180.41792"
         sodipodi:role="line"
         id="tspan7358"
         style="stroke-width:0.352778">810</tspan></text>
    <text
       xml:space="preserve"
       style="font-variant:normal;font-weight:normal;font-size:2.82222px;font-family:Swis721BT;-inkscape-font-specification:Swis721BT;writing-mode:lr-tb;fill:#231f20;fill-opacity:1;fill-rule:nonzero;stroke:none;stroke-width:0.352778"
       id="text7364"
       x="85.008141"
       y="180.41792"><tspan
         x="85.008141 86.935715 87.785202 89.757942"
         y="180.41792"
         sodipodi:role="line"
         id="tspan7362"
         style="stroke-width:0.352778">A.D.</tspan></text>
    <text
       xml:space="preserve"
       style="font-variant:normal;font-weight:normal;font-size:3.52778px;font-family:Swis721BT;-inkscape-font-specification:Swis721BT;writing-mode:lr-tb;fill:#231f20;fill-opacity:1;fill-rule:nonzero;stroke:none;stroke-width:0.352778"
       id="text7370"
       x="93.401779"
       y="180.41792"><tspan
         x="93.401779 95.433777 97.465782 106.83556 108.86755 110.89956 120.67503 122.70703 124.73903 133.8795 135.9115 137.9435"
         y="180.41792"
         sodipodi:role="line"
         id="tspan7366"
         style="stroke-width:0.352778">820830840850</tspan><tspan
         x="105.29498 107.19645 109.22139 111.23222"
         y="183.89772"
         sodipodi:role="line"
         id="tspan7368"
         style="stroke-width:0.352778">Year</tspan></text>
  </g>
</svg>
