<?xml version="1.0" encoding="UTF-8" standalone="no"?>
<!-- Created with Inkscape (http://www.inkscape.org/) -->

<svg
   width="145.3085mm"
   height="91.98484mm"
   viewBox="0 0 145.3085 91.98484"
   version="1.1"
   id="svg1557"
   inkscape:version="1.1 (c4e8f9e, 2021-05-24)"
   sodipodi:docname="ships_gold_silver.svg"
   xmlns:inkscape="http://www.inkscape.org/namespaces/inkscape"
   xmlns:sodipodi="http://sodipodi.sourceforge.net/DTD/sodipodi-0.dtd"
   xmlns="http://www.w3.org/2000/svg"
   xmlns:svg="http://www.w3.org/2000/svg">
  <sodipodi:namedview
     id="namedview1559"
     pagecolor="#ffffff"
     bordercolor="#666666"
     borderopacity="1.0"
     inkscape:pageshadow="2"
     inkscape:pageopacity="0.0"
     inkscape:pagecheckerboard="0"
     inkscape:document-units="mm"
     showgrid="false"
     fit-margin-left="5"
     lock-margins="true"
     fit-margin-top="5"
     fit-margin-right="5"
     fit-margin-bottom="5"
     inkscape:zoom="0.7046647"
     inkscape:cx="253.31196"
     inkscape:cy="296.59496"
     inkscape:window-width="1646"
     inkscape:window-height="742"
     inkscape:window-x="0"
     inkscape:window-y="25"
     inkscape:window-maximized="0"
     inkscape:current-layer="layer1" />
  <defs
     id="defs1554" />
  <g
     inkscape:label="Layer 1"
     inkscape:groupmode="layer"
     id="layer1"
     transform="translate(-38.110603,-69.653604)">
    <g
       id="g926"
       transform="matrix(0.35799888,0,0,-0.34762721,25.989226,307.41427)">
      <path
         d="m 97.167,614.935 v 36.362 l -9.338,17.797 -9.172,-17.797 0.054,-36.362 c 0.055,-2.582 4.175,-4.779 9.283,-4.779 5.108,0 9.228,2.197 9.173,4.779 z m 179.779,0 v 36.362 l -9.338,17.797 -9.173,-17.797 0.055,-36.362 c 0.055,-2.582 4.174,-4.779 9.283,-4.779 5.108,0 9.228,2.197 9.173,4.779 z m 40.152,0 v 36.362 l -9.338,17.797 -9.173,-17.797 0.055,-36.362 c 0.055,-2.582 4.175,-4.779 9.283,-4.779 5.108,0 9.228,2.197 9.173,4.779 z M 97.167,542.046 v 36.362 l -9.338,17.797 -9.172,-17.797 v -36.362 c 0.054,-2.582 3.515,-4.285 9.337,-4.779 5.823,-0.494 8.075,2.472 9.173,4.779 z m 179.779,0 v 36.362 l -9.338,17.797 -9.173,-17.797 0.055,-36.362 c 0.055,-2.582 4.174,-4.779 9.283,-4.779 5.108,0 9.228,2.197 9.173,4.779 z m 40.152,0 v 36.362 l -9.338,17.797 -9.173,-17.797 0.055,-36.362 c 0.055,-2.582 4.175,-4.779 9.283,-4.779 5.108,0 9.228,2.197 9.173,4.779 z M 97.167,469.212 v 36.362 l -9.338,17.796 -9.172,-17.796 0.054,-36.362 c 0.055,-2.582 4.175,-4.779 9.283,-4.779 5.108,0 9.228,2.197 9.173,4.779 z m 179.779,0 v 36.362 l -9.338,17.796 -9.173,-17.796 0.055,-36.362 c 0.055,-2.582 4.174,-4.779 9.283,-4.779 5.108,0 9.228,2.197 9.173,4.779 z"
         style="fill:none;stroke:#231f20;stroke-width:0.439;stroke-linecap:butt;stroke-linejoin:miter;stroke-miterlimit:2.613;stroke-dasharray:none;stroke-opacity:1"
         id="path928" />
    </g>
    <g
       id="g930"
       transform="matrix(0.35799888,0,0,-0.34762721,25.989226,307.41427)">
      <path
         d="M 75.196,629.765 48.062,566.379 75.196,495.412"
         style="fill:none;stroke:#231f20;stroke-width:0.439;stroke-linecap:butt;stroke-linejoin:miter;stroke-miterlimit:2.613;stroke-dasharray:2.197, 1.318;stroke-dashoffset:0;stroke-opacity:1"
         id="path932" />
    </g>
    <g
       id="g934"
       transform="matrix(0.35799888,0,0,-0.34762721,25.989226,307.41427)">
      <path
         d="m 75.922,626.239 -0.348,4.407 -3.432,-2.789 m 3.918,-128.95 -0.52,-4.389 -3.32,2.921"
         style="fill:none;stroke:#231f20;stroke-width:0.769;stroke-linecap:butt;stroke-linejoin:miter;stroke-miterlimit:2.613;stroke-dasharray:none;stroke-opacity:1"
         id="path936" />
    </g>
    <g
       id="g938"
       transform="matrix(0.35799888,0,0,-0.34762721,25.989226,307.41427)">
      <path
         d="M 48.776,565.885 H 75.635"
         style="fill:none;stroke:#231f20;stroke-width:0.439;stroke-linecap:butt;stroke-linejoin:miter;stroke-miterlimit:2.613;stroke-dasharray:2.197, 1.318;stroke-dashoffset:0;stroke-opacity:1"
         id="path940" />
    </g>
    <g
       id="g942"
       transform="matrix(0.35799888,0,0,-0.34762721,25.989226,307.41427)">
      <path
         d="m 72.68,567.939 3.914,-2.053 -3.914,-2.058"
         style="fill:none;stroke:#231f20;stroke-width:0.769;stroke-linecap:butt;stroke-linejoin:miter;stroke-miterlimit:2.613;stroke-dasharray:none;stroke-opacity:1"
         id="path944" />
    </g>
    <g
       id="g946"
       transform="matrix(0.35799888,0,0,-0.34762721,25.989226,307.41427)">
      <path
         d="m 97.167,565.885 h 57.729"
         style="fill:none;stroke:#231f20;stroke-width:0.439;stroke-linecap:butt;stroke-linejoin:miter;stroke-miterlimit:2.613;stroke-dasharray:none;stroke-opacity:1"
         id="path948" />
    </g>
    <g
       id="g950"
       transform="matrix(0.35799888,0,0,-0.34762721,25.989226,307.41427)">
      <path
         d="m 151.94,567.939 3.914,-2.053 -3.914,-2.058"
         style="fill:none;stroke:#231f20;stroke-width:0.769;stroke-linecap:butt;stroke-linejoin:miter;stroke-miterlimit:2.613;stroke-dasharray:none;stroke-opacity:1"
         id="path952" />
    </g>
    <g
       id="g954"
       transform="matrix(0.35799888,0,0,-0.34762721,25.989226,307.41427)">
      <path
         d="m 97.167,497.39 h 6.811 c 2.856,0 5.054,0.714 6.317,1.867 1.263,1.154 1.977,3.57 1.977,6.921 v 45.315 c 0,3.296 1.044,5.988 2.857,7.855 1.812,1.868 4.174,3.406 6.701,4.394 2.526,0.989 4.669,1.813 6.261,2.362 -1.098,0.22 -2.581,0.55 -4.339,0.934 -1.758,0.439 -3.57,1.099 -5.273,1.922 -1.758,0.879 -3.241,2.252 -4.394,3.845 -1.154,1.648 -1.813,3.845 -1.813,6.372 v 52.895 c 0,3.241 -0.933,5.493 -2.636,6.537 -1.703,1.043 -4.394,1.703 -7.635,1.703 h -4.834 m 98.815,-74.427 h 18.071"
         style="fill:none;stroke:#231f20;stroke-width:0.439;stroke-linecap:butt;stroke-linejoin:miter;stroke-miterlimit:2.613;stroke-dasharray:none;stroke-opacity:1"
         id="path956" />
    </g>
    <g
       id="g958"
       transform="matrix(0.35799888,0,0,-0.34762721,25.989226,307.41427)">
      <path
         d="m 211.097,567.939 3.915,-2.053 -3.915,-2.058"
         style="fill:none;stroke:#231f20;stroke-width:0.769;stroke-linecap:butt;stroke-linejoin:miter;stroke-miterlimit:2.613;stroke-dasharray:none;stroke-opacity:1"
         id="path960" />
    </g>
    <g
       id="g962"
       transform="matrix(0.35799888,0,0,-0.34762721,25.989226,307.41427)">
      <path
         d="m 224.05,569.949 31.694,57.18"
         style="fill:none;stroke:#231f20;stroke-width:0.439;stroke-linecap:butt;stroke-linejoin:miter;stroke-miterlimit:2.613;stroke-dasharray:2.197, 1.318;stroke-dashoffset:0;stroke-opacity:1"
         id="path964" />
    </g>
    <g
       id="g966"
       transform="matrix(0.35799888,0,0,-0.34762721,25.989226,307.41427)">
      <path
         d="m 252.513,625.54 3.694,2.428 -0.098,-4.421"
         style="fill:none;stroke:#231f20;stroke-width:0.769;stroke-linecap:butt;stroke-linejoin:miter;stroke-miterlimit:2.613;stroke-dasharray:none;stroke-opacity:1"
         id="path968" />
    </g>
    <g
       id="g970"
       transform="matrix(0.35799888,0,0,-0.34762721,25.989226,307.41427)">
      <path
         d="m 224.929,565.885 h 30.046"
         style="fill:none;stroke:#231f20;stroke-width:0.439;stroke-linecap:butt;stroke-linejoin:miter;stroke-miterlimit:2.613;stroke-dasharray:2.197, 1.318;stroke-dashoffset:0;stroke-opacity:1"
         id="path972" />
    </g>
    <g
       id="g974"
       transform="matrix(0.35799888,0,0,-0.34762721,25.989226,307.41427)">
      <path
         d="m 252.019,567.939 3.914,-2.053 -3.914,-2.058"
         style="fill:none;stroke:#231f20;stroke-width:0.769;stroke-linecap:butt;stroke-linejoin:miter;stroke-miterlimit:2.613;stroke-dasharray:none;stroke-opacity:1"
         id="path976" />
    </g>
    <g
       id="g978"
       transform="matrix(0.35799888,0,0,-0.34762721,25.989226,307.41427)">
      <path
         d="m 277.001,566.049 h 3.405 c 1.428,0 2.582,0.385 3.186,0.934 0.604,0.549 0.989,1.813 0.989,3.46 v 26.091 c 0,1.648 0.549,2.966 1.428,3.9 0.933,0.934 2.087,1.758 3.35,2.197 1.264,0.494 2.362,0.934 3.131,1.209 -0.549,0.109 -1.263,0.274 -2.142,0.494 -0.879,0.22 -1.813,0.549 -2.691,0.934 -0.879,0.439 -1.703,1.153 -2.198,1.922 -0.494,0.769 -0.878,1.923 -0.878,3.186 v 25.816 c 0,1.593 -0.495,2.746 -1.319,3.241 -0.824,0.494 -2.252,0.879 -3.845,0.879 h -2.416 m 40.262,-74.263 h 3.405 c 1.428,0 2.582,0.385 3.186,0.934 0.604,0.549 0.989,1.813 0.989,3.46 v 26.091 c 0,1.648 0.549,2.966 1.428,3.9 0.933,0.934 2.087,1.758 3.35,2.197 1.264,0.494 2.362,0.934 3.131,1.209 -0.549,0.109 -1.263,0.274 -2.142,0.494 -0.879,0.22 -1.813,0.549 -2.691,0.934 -0.879,0.439 -1.703,1.153 -2.198,1.922 -0.494,0.769 -0.878,1.923 -0.878,3.186 v 25.816 c 0,1.593 -0.495,2.746 -1.319,3.241 -0.824,0.494 -2.252,0.879 -3.845,0.879 h -2.416 M 274.639,603.84 h 25.596"
         style="fill:none;stroke:#231f20;stroke-width:0.439;stroke-linecap:butt;stroke-linejoin:miter;stroke-miterlimit:2.613;stroke-dasharray:none;stroke-opacity:1"
         id="path980" />
    </g>
    <g
       id="g982"
       transform="matrix(0.35799888,0,0,-0.34762721,25.989226,307.41427)">
      <path
         d="m 297.279,605.894 3.914,-2.053 -3.914,-2.058"
         style="fill:none;stroke:#231f20;stroke-width:0.769;stroke-linecap:butt;stroke-linejoin:miter;stroke-miterlimit:2.613;stroke-dasharray:none;stroke-opacity:1"
         id="path984" />
    </g>
    <g
       id="g986"
       transform="matrix(0.35799888,0,0,-0.34762721,25.989226,307.41427)">
      <path
         d="m 315.011,603.84 h 25.596"
         style="fill:none;stroke:#231f20;stroke-width:0.439;stroke-linecap:butt;stroke-linejoin:miter;stroke-miterlimit:2.613;stroke-dasharray:none;stroke-opacity:1"
         id="path988" />
    </g>
    <g
       id="g990"
       transform="matrix(0.35799888,0,0,-0.34762721,25.989226,307.41427)">
      <path
         d="m 337.651,605.894 3.914,-2.053 -3.914,-2.058"
         style="fill:none;stroke:#231f20;stroke-width:0.769;stroke-linecap:butt;stroke-linejoin:miter;stroke-miterlimit:2.613;stroke-dasharray:none;stroke-opacity:1"
         id="path992" />
    </g>
    <g
       id="g994"
       transform="matrix(0.35799888,0,0,-0.34762721,25.989226,307.41427)">
      <path
         d="m 365.214,603.84 h 20.434"
         style="fill:none;stroke:#231f20;stroke-width:0.439;stroke-linecap:butt;stroke-linejoin:miter;stroke-miterlimit:2.613;stroke-dasharray:none;stroke-opacity:1"
         id="path996" />
    </g>
    <g
       id="g998"
       transform="matrix(0.35799888,0,0,-0.34762721,25.989226,307.41427)">
      <path
         d="m 382.692,605.894 3.914,-2.053 -3.914,-2.058"
         style="fill:none;stroke:#231f20;stroke-width:0.769;stroke-linecap:butt;stroke-linejoin:miter;stroke-miterlimit:2.613;stroke-dasharray:none;stroke-opacity:1"
         id="path1000" />
    </g>
    <g
       id="g1002"
       transform="matrix(0.35799888,0,0,-0.34762721,25.989226,307.41427)">
      <path
         d="m 351.592,590.547 -3.24,-0.055 v 27.299 h 3.24 m 9.009,-27.244 3.24,-0.055 v 27.299 h -3.24"
         style="fill:none;stroke:#231f20;stroke-width:0.439;stroke-linecap:butt;stroke-linejoin:miter;stroke-miterlimit:2.613;stroke-dasharray:none;stroke-opacity:1"
         id="path1004" />
    </g>
    <g
       id="g1006"
       transform="matrix(0.35799888,0,0,-0.34762721,25.989226,307.41427)">
      <path
         d="m 229.927,433.948 c 2.421,0 4.395,1.974 4.395,4.394 0,2.421 -1.974,4.395 -4.395,4.395 -2.42,0 -4.394,-1.974 -4.394,-4.395 0,-2.42 1.974,-4.394 4.394,-4.394 z"
         style="fill:#ffffff;fill-opacity:1;fill-rule:evenodd;stroke:#231f20;stroke-width:0.439;stroke-linecap:butt;stroke-linejoin:miter;stroke-miterlimit:2.613;stroke-dasharray:none;stroke-opacity:1"
         id="path1008" />
    </g>
    <text
       transform="scale(1.0148557,0.98536173)"
       style="font-variant:normal;font-weight:normal;font-size:2.69123px;font-family:Swis721BT;-inkscape-font-specification:Swis721BT;writing-mode:lr-tb;fill:#231f20;fill-opacity:1;fill-rule:nonzero;stroke:none;stroke-width:0.347614"
       id="text1012"
       x="105.96143"
       y="158.21074"><tspan
         x="105.96143"
         y="158.21074"
         id="tspan1010"
         style="stroke-width:0.347614">5</tspan></text>
    <g
       id="g1014"
       transform="matrix(0.35799888,0,0,-0.34762721,25.989226,307.41427)">
      <path
         d="m 202.134,433.948 c 2.42,0 4.394,1.974 4.394,4.394 0,2.421 -1.974,4.395 -4.394,4.395 -2.42,0 -4.394,-1.974 -4.394,-4.395 0,-2.42 1.974,-4.394 4.394,-4.394 z"
         style="fill:#ffffff;fill-opacity:1;fill-rule:evenodd;stroke:#231f20;stroke-width:0.439;stroke-linecap:butt;stroke-linejoin:miter;stroke-miterlimit:2.613;stroke-dasharray:none;stroke-opacity:1"
         id="path1016" />
    </g>
    <text
       transform="scale(1.0148557,0.98536173)"
       style="font-variant:normal;font-weight:normal;font-size:2.69123px;font-family:Swis721BT;-inkscape-font-specification:Swis721BT;writing-mode:lr-tb;fill:#231f20;fill-opacity:1;fill-rule:nonzero;stroke:none;stroke-width:0.347614"
       id="text1020"
       x="96.060005"
       y="158.21074"><tspan
         x="96.060005"
         y="158.21074"
         id="tspan1018"
         style="stroke-width:0.347614">4</tspan></text>
    <g
       id="g1022"
       transform="matrix(0.35799888,0,0,-0.34762721,25.989226,307.41427)">
      <path
         d="m 172.967,433.948 c 2.421,0 4.395,1.974 4.395,4.394 0,2.421 -1.974,4.395 -4.395,4.395 -2.42,0 -4.394,-1.974 -4.394,-4.395 0,-2.42 1.974,-4.394 4.394,-4.394 z"
         style="fill:#ffffff;fill-opacity:1;fill-rule:evenodd;stroke:#231f20;stroke-width:0.439;stroke-linecap:butt;stroke-linejoin:miter;stroke-miterlimit:2.613;stroke-dasharray:none;stroke-opacity:1"
         id="path1024" />
    </g>
    <text
       transform="scale(1.0148557,0.98536173)"
       style="font-variant:normal;font-weight:normal;font-size:2.69123px;font-family:Swis721BT;-inkscape-font-specification:Swis721BT;writing-mode:lr-tb;fill:#231f20;fill-opacity:1;fill-rule:nonzero;stroke:none;stroke-width:0.347614"
       id="text1028"
       x="85.945145"
       y="158.21074"><tspan
         x="85.945145"
         y="158.21074"
         id="tspan1026"
         style="stroke-width:0.347614">3</tspan></text>
    <g
       id="g1030"
       transform="matrix(0.35799888,0,0,-0.34762721,25.989226,307.41427)">
      <path
         d="m 87.994,433.948 c 2.421,0 4.394,1.974 4.394,4.394 0,2.421 -1.973,4.395 -4.394,4.395 -2.42,0 -4.394,-1.974 -4.394,-4.395 0,-2.42 1.974,-4.394 4.394,-4.394 z"
         style="fill:#ffffff;fill-opacity:1;fill-rule:evenodd;stroke:#231f20;stroke-width:0.439;stroke-linecap:butt;stroke-linejoin:miter;stroke-miterlimit:2.613;stroke-dasharray:none;stroke-opacity:1"
         id="path1032" />
    </g>
    <text
       transform="scale(1.0148557,0.98536173)"
       style="font-variant:normal;font-weight:normal;font-size:2.69123px;font-family:Swis721BT;-inkscape-font-specification:Swis721BT;writing-mode:lr-tb;fill:#231f20;fill-opacity:1;fill-rule:nonzero;stroke:none;stroke-width:0.347614"
       id="text1036"
       x="55.853268"
       y="158.21074"><tspan
         x="55.853268"
         y="158.21074"
         id="tspan1034"
         style="stroke-width:0.347614">1</tspan></text>
    <g
       id="g1038"
       transform="matrix(0.35799888,0,0,-0.34762721,25.989226,307.41427)">
      <path
         d="m 53.005,433.948 c 2.421,0 4.394,1.974 4.394,4.394 0,2.421 -1.973,4.395 -4.394,4.395 -2.42,0 -4.394,-1.974 -4.394,-4.395 0,-2.42 1.974,-4.394 4.394,-4.394 z"
         style="fill:#ffffff;fill-opacity:1;fill-rule:evenodd;stroke:#231f20;stroke-width:0.439;stroke-linecap:butt;stroke-linejoin:miter;stroke-miterlimit:2.613;stroke-dasharray:none;stroke-opacity:1"
         id="path1040" />
    </g>
    <text
       transform="scale(1.0148557,0.98536173)"
       style="font-variant:normal;font-weight:normal;font-size:2.69123px;font-family:Swis721BT;-inkscape-font-specification:Swis721BT;writing-mode:lr-tb;fill:#231f20;fill-opacity:1;fill-rule:nonzero;stroke:none;stroke-width:0.347614"
       id="text1044"
       x="43.588066"
       y="158.21074"><tspan
         x="43.588066"
         y="158.21074"
         id="tspan1042"
         style="stroke-width:0.347614">2</tspan></text>
    <g
       id="g1046"
       transform="matrix(0.35799888,0,0,-0.34762721,25.989226,307.41427)">
      <path
         d="m 404.872,433.948 c 2.421,0 4.395,1.974 4.395,4.394 0,2.421 -1.974,4.395 -4.395,4.395 -2.42,0 -4.394,-1.974 -4.394,-4.395 0,-2.42 1.974,-4.394 4.394,-4.394 z"
         style="fill:#ffffff;fill-opacity:1;fill-rule:evenodd;stroke:#231f20;stroke-width:0.439;stroke-linecap:butt;stroke-linejoin:miter;stroke-miterlimit:2.613;stroke-dasharray:none;stroke-opacity:1"
         id="path1048" />
    </g>
    <text
       transform="scale(1.0148557,0.98536173)"
       style="font-variant:normal;font-weight:normal;font-size:2.69123px;font-family:Swis721BT;-inkscape-font-specification:Swis721BT;writing-mode:lr-tb;fill:#231f20;fill-opacity:1;fill-rule:nonzero;stroke:none;stroke-width:0.347614"
       id="text1052"
       x="167.67609"
       y="158.21074"><tspan
         x="167.67609"
         y="158.21074"
         id="tspan1050"
         style="stroke-width:0.347614">9</tspan></text>
    <g
       id="g1054"
       transform="matrix(0.35799888,0,0,-0.34762721,25.989226,307.41427)">
      <path
         d="m 356.426,433.948 c 2.42,0 4.394,1.974 4.394,4.394 0,2.421 -1.974,4.395 -4.394,4.395 -2.42,0 -4.394,-1.974 -4.394,-4.395 0,-2.42 1.974,-4.394 4.394,-4.394 z"
         style="fill:#ffffff;fill-opacity:1;fill-rule:evenodd;stroke:#231f20;stroke-width:0.439;stroke-linecap:butt;stroke-linejoin:miter;stroke-miterlimit:2.613;stroke-dasharray:none;stroke-opacity:1"
         id="path1056" />
    </g>
    <text
       transform="scale(1.0148557,0.98536173)"
       style="font-variant:normal;font-weight:normal;font-size:2.69123px;font-family:Swis721BT;-inkscape-font-specification:Swis721BT;writing-mode:lr-tb;fill:#231f20;fill-opacity:1;fill-rule:nonzero;stroke:none;stroke-width:0.347614"
       id="text1060"
       x="150.60512"
       y="158.21074"><tspan
         x="150.60512"
         y="158.21074"
         id="tspan1058"
         style="stroke-width:0.347614">8</tspan></text>
    <g
       id="g1062"
       transform="matrix(0.35799888,0,0,-0.34762721,25.989226,307.41427)">
      <path
         d="m 307.211,434.113 c 2.42,0 4.394,1.974 4.394,4.394 0,2.42 -1.974,4.394 -4.394,4.394 -2.42,0 -4.394,-1.974 -4.394,-4.394 0,-2.42 1.974,-4.394 4.394,-4.394 z"
         style="fill:#ffffff;fill-opacity:1;fill-rule:evenodd;stroke:#231f20;stroke-width:0.439;stroke-linecap:butt;stroke-linejoin:miter;stroke-miterlimit:2.613;stroke-dasharray:none;stroke-opacity:1"
         id="path1064" />
    </g>
    <text
       transform="scale(1.0148557,0.98536173)"
       style="font-variant:normal;font-weight:normal;font-size:2.69123px;font-family:Swis721BT;-inkscape-font-specification:Swis721BT;writing-mode:lr-tb;fill:#231f20;fill-opacity:1;fill-rule:nonzero;stroke:none;stroke-width:0.347614"
       id="text1068"
       x="133.30196"
       y="158.21074"><tspan
         x="133.30196"
         y="158.21074"
         id="tspan1066"
         style="stroke-width:0.347614">7</tspan></text>
    <g
       id="g1070"
       transform="matrix(0.35799888,0,0,-0.34762721,25.989226,307.41427)">
      <path
         d="m 268.322,433.948 c 2.42,0 4.394,1.974 4.394,4.394 0,2.421 -1.974,4.395 -4.394,4.395 -2.42,0 -4.394,-1.974 -4.394,-4.395 0,-2.42 1.974,-4.394 4.394,-4.394 z"
         style="fill:#ffffff;fill-opacity:1;fill-rule:evenodd;stroke:#231f20;stroke-width:0.439;stroke-linecap:butt;stroke-linejoin:miter;stroke-miterlimit:2.613;stroke-dasharray:none;stroke-opacity:1"
         id="path1072" />
    </g>
    <text
       transform="scale(1.0148557,0.98536173)"
       style="font-variant:normal;font-weight:normal;font-size:2.69123px;font-family:Swis721BT;-inkscape-font-specification:Swis721BT;writing-mode:lr-tb;fill:#231f20;fill-opacity:1;fill-rule:nonzero;stroke:none;stroke-width:0.347614"
       id="text1078"
       x="119.46692"
       y="158.21074"><tspan
         x="119.46692"
         y="158.21074"
         id="tspan1074"
         style="stroke-width:0.347614">6</tspan><tspan
         x="119.03632"
         y="86.128159"
         id="tspan1076"
         style="stroke-width:0.347614">G</tspan></text>
    <text
       transform="scale(1.0148086,0.98540745)"
       style="font-variant:normal;font-weight:normal;font-size:1.88381px;font-family:Swis721BT;-inkscape-font-specification:Swis721BT;writing-mode:lr-tb;fill:#231f20;fill-opacity:1;fill-rule:nonzero;stroke:none;stroke-width:0.34763"
       id="text1082"
       x="121.28466"
       y="86.874374"><tspan
         x="121.28466"
         y="86.874374"
         id="tspan1080"
         style="stroke-width:0.34763">a</tspan></text>
    <text
       transform="scale(1.0148557,0.98536173)"
       style="font-variant:normal;font-weight:normal;font-size:2.69123px;font-family:Swis721BT;-inkscape-font-specification:Swis721BT;writing-mode:lr-tb;fill:#231f20;fill-opacity:1;fill-rule:nonzero;stroke:none;stroke-width:0.347614"
       id="text1086"
       x="132.87126"
       y="86.125137"><tspan
         x="132.87126"
         y="86.125137"
         id="tspan1084"
         style="stroke-width:0.347614">G</tspan></text>
    <text
       transform="scale(1.0148086,0.98540745)"
       style="font-variant:normal;font-weight:normal;font-size:1.88381px;font-family:Swis721BT;-inkscape-font-specification:Swis721BT;writing-mode:lr-tb;fill:#231f20;fill-opacity:1;fill-rule:nonzero;stroke:none;stroke-width:0.34763"
       id="text1090"
       x="135.12033"
       y="86.874374"><tspan
         x="135.12033"
         y="86.874374"
         id="tspan1088"
         style="stroke-width:0.34763">a</tspan></text>
    <text
       transform="scale(1.0148557,0.98536173)"
       style="font-variant:normal;font-weight:normal;font-size:2.69123px;font-family:Swis721BT;-inkscape-font-specification:Swis721BT;writing-mode:lr-tb;fill:#231f20;fill-opacity:1;fill-rule:nonzero;stroke:none;stroke-width:0.347614"
       id="text1094"
       x="118.98827"
       y="92.131973"><tspan
         x="118.98827"
         y="92.131973"
         id="tspan1092"
         style="stroke-width:0.347614">G</tspan></text>
    <text
       transform="scale(1.0148086,0.98540745)"
       style="font-variant:normal;font-weight:normal;font-size:1.88381px;font-family:Swis721BT;-inkscape-font-specification:Swis721BT;writing-mode:lr-tb;fill:#231f20;fill-opacity:1;fill-rule:nonzero;stroke:none;stroke-width:0.34763"
       id="text1098"
       x="121.23669"
       y="92.881294"><tspan
         x="121.23669"
         y="92.881294"
         id="tspan1096"
         style="stroke-width:0.34763">b</tspan></text>
    <text
       transform="scale(1.0148557,0.98536173)"
       style="font-variant:normal;font-weight:normal;font-size:2.69123px;font-family:Swis721BT;-inkscape-font-specification:Swis721BT;writing-mode:lr-tb;fill:#231f20;fill-opacity:1;fill-rule:nonzero;stroke:none;stroke-width:0.347614"
       id="text1102"
       x="132.82294"
       y="92.131973"><tspan
         x="132.82294"
         y="92.131973"
         id="tspan1100"
         style="stroke-width:0.347614">G</tspan></text>
    <text
       transform="scale(1.0148086,0.98540745)"
       style="font-variant:normal;font-weight:normal;font-size:1.88381px;font-family:Swis721BT;-inkscape-font-specification:Swis721BT;writing-mode:lr-tb;fill:#231f20;fill-opacity:1;fill-rule:nonzero;stroke:none;stroke-width:0.34763"
       id="text1106"
       x="135.07236"
       y="92.881294"><tspan
         x="135.07236"
         y="92.881294"
         id="tspan1104"
         style="stroke-width:0.34763">b</tspan></text>
    <text
       transform="scale(1.0148557,0.98536173)"
       style="font-variant:normal;font-weight:normal;font-size:2.69123px;font-family:Swis721BT;-inkscape-font-specification:Swis721BT;writing-mode:lr-tb;fill:#231f20;fill-opacity:1;fill-rule:nonzero;stroke:none;stroke-width:0.347614"
       id="text1110"
       x="118.76266"
       y="112.2075"><tspan
         x="118.76266"
         y="112.2075"
         id="tspan1108"
         style="stroke-width:0.347614">G</tspan></text>
    <text
       transform="scale(1.0148086,0.98540745)"
       style="font-variant:normal;font-weight:normal;font-size:1.88381px;font-family:Swis721BT;-inkscape-font-specification:Swis721BT;writing-mode:lr-tb;fill:#231f20;fill-opacity:1;fill-rule:nonzero;stroke:none;stroke-width:0.34763"
       id="text1114"
       x="121.01108"
       y="112.95589"><tspan
         x="121.01108"
         y="112.95589"
         id="tspan1112"
         style="stroke-width:0.34763">c</tspan></text>
    <text
       transform="scale(1.0148557,0.98536173)"
       style="font-variant:normal;font-weight:normal;font-size:2.69123px;font-family:Swis721BT;-inkscape-font-specification:Swis721BT;writing-mode:lr-tb;fill:#231f20;fill-opacity:1;fill-rule:nonzero;stroke:none;stroke-width:0.347614"
       id="text1118"
       x="132.51982"
       y="112.2075"><tspan
         x="132.51982"
         y="112.2075"
         id="tspan1116"
         style="stroke-width:0.347614">G</tspan></text>
    <text
       transform="scale(1.0148086,0.98540745)"
       style="font-variant:normal;font-weight:normal;font-size:1.88381px;font-family:Swis721BT;-inkscape-font-specification:Swis721BT;writing-mode:lr-tb;fill:#231f20;fill-opacity:1;fill-rule:nonzero;stroke:none;stroke-width:0.34763"
       id="text1122"
       x="134.76888"
       y="112.95589"><tspan
         x="134.76888"
         y="112.95589"
         id="tspan1120"
         style="stroke-width:0.34763">c</tspan></text>
    <text
       transform="scale(1.0148557,0.98536173)"
       style="font-variant:normal;font-weight:normal;font-size:2.69123px;font-family:Swis721BT;-inkscape-font-specification:Swis721BT;writing-mode:lr-tb;fill:#231f20;fill-opacity:1;fill-rule:nonzero;stroke:none;stroke-width:0.347614"
       id="text1132"
       x="119.45267"
       y="118.2147"><tspan
         x="119.45267 133.21022"
         y="118.2147"
         sodipodi:role="line"
         id="tspan1124"
         style="stroke-width:0.347614">SS</tspan><tspan
         x="119.29766"
         y="136.56482"
         id="tspan1126"
         style="stroke-width:0.347614">S</tspan><tspan
         x="119.29766"
         y="142.97855"
         id="tspan1128"
         style="stroke-width:0.347614">S</tspan><tspan
         x="55.014511"
         y="86.126411"
         id="tspan1130"
         style="stroke-width:0.347614">G</tspan></text>
    <text
       transform="scale(1.0148086,0.98540745)"
       style="font-variant:normal;font-weight:normal;font-size:1.88381px;font-family:Swis721BT;-inkscape-font-specification:Swis721BT;writing-mode:lr-tb;fill:#231f20;fill-opacity:1;fill-rule:nonzero;stroke:none;stroke-width:0.34763"
       id="text1136"
       x="57.261326"
       y="86.874374"><tspan
         x="57.261326"
         y="86.874374"
         id="tspan1134"
         style="stroke-width:0.34763">a</tspan></text>
    <text
       transform="scale(1.0148557,0.98536173)"
       style="font-variant:normal;font-weight:normal;font-size:2.69123px;font-family:Swis721BT;-inkscape-font-specification:Swis721BT;writing-mode:lr-tb;fill:#231f20;fill-opacity:1;fill-rule:nonzero;stroke:none;stroke-width:0.347614"
       id="text1140"
       x="54.967548"
       y="92.131973"><tspan
         x="54.967548"
         y="92.131973"
         id="tspan1138"
         style="stroke-width:0.347614">G</tspan></text>
    <text
       transform="scale(1.0148086,0.98540745)"
       style="font-variant:normal;font-weight:normal;font-size:1.88381px;font-family:Swis721BT;-inkscape-font-specification:Swis721BT;writing-mode:lr-tb;fill:#231f20;fill-opacity:1;fill-rule:nonzero;stroke:none;stroke-width:0.34763"
       id="text1144"
       x="57.213005"
       y="92.881294"><tspan
         x="57.213005"
         y="92.881294"
         id="tspan1142"
         style="stroke-width:0.34763">b</tspan></text>
    <text
       transform="scale(1.0148557,0.98536173)"
       style="font-variant:normal;font-weight:normal;font-size:2.69123px;font-family:Swis721BT;-inkscape-font-specification:Swis721BT;writing-mode:lr-tb;fill:#231f20;fill-opacity:1;fill-rule:nonzero;stroke:none;stroke-width:0.347614"
       id="text1148"
       x="55.071484"
       y="112.2075"><tspan
         x="55.071484"
         y="112.2075"
         id="tspan1146"
         style="stroke-width:0.347614">G</tspan></text>
    <text
       transform="scale(1.0148086,0.98540745)"
       style="font-variant:normal;font-weight:normal;font-size:1.88381px;font-family:Swis721BT;-inkscape-font-specification:Swis721BT;writing-mode:lr-tb;fill:#231f20;fill-opacity:1;fill-rule:nonzero;stroke:none;stroke-width:0.34763"
       id="text1152"
       x="57.316948"
       y="112.95589"><tspan
         x="57.316948"
         y="112.95589"
         id="tspan1150"
         style="stroke-width:0.34763">c</tspan></text>
    <text
       transform="scale(1.0148557,0.98536173)"
       style="font-variant:normal;font-weight:normal;font-size:2.69123px;font-family:Swis721BT;-inkscape-font-specification:Swis721BT;writing-mode:lr-tb;fill:#231f20;fill-opacity:1;fill-rule:nonzero;stroke:none;stroke-width:0.347614"
       id="text1162"
       x="55.761497"
       y="118.2147"><tspan
         x="55.761497"
         y="118.2147"
         id="tspan1154"
         style="stroke-width:0.347614">S</tspan><tspan
         x="55.761497"
         y="136.56482"
         id="tspan1156"
         style="stroke-width:0.347614">S</tspan><tspan
         x="55.761497"
         y="142.97855"
         id="tspan1158"
         style="stroke-width:0.347614">S</tspan><tspan
         x="42.409519 44.177654 47.579365"
         y="94.53595"
         sodipodi:role="line"
         id="tspan1160"
         style="stroke-width:0.347614">P=/</tspan></text>
    <text
       transform="scale(1.0148086,0.98540745)"
       style="font-variant:normal;font-weight:normal;font-size:1.88381px;font-family:Swis721BT;-inkscape-font-specification:Swis721BT;writing-mode:lr-tb;fill:#231f20;fill-opacity:1;fill-rule:nonzero;stroke:none;stroke-width:0.34763"
       id="text1168"
       x="46.496967"
       y="93.965324"><tspan
         x="46.496967"
         y="93.965324"
         id="tspan1164"
         style="stroke-width:0.34763">1</tspan><tspan
         x="48.466675"
         y="95.095604"
         id="tspan1166"
         style="stroke-width:0.34763">3</tspan></text>
    <text
       transform="scale(1.0148557,0.98536173)"
       style="font-variant:normal;font-weight:normal;font-size:2.69123px;font-family:Swis721BT;-inkscape-font-specification:Swis721BT;writing-mode:lr-tb;fill:#231f20;fill-opacity:1;fill-rule:nonzero;stroke:none;stroke-width:0.347614"
       id="text1172"
       x="45.393917"
       y="110.50226"><tspan
         x="45.393917 47.162052 50.563763"
         y="110.50226"
         sodipodi:role="line"
         id="tspan1170"
         style="stroke-width:0.347614">P=/</tspan></text>
    <text
       transform="scale(1.0148086,0.98540745)"
       style="font-variant:normal;font-weight:normal;font-size:1.88381px;font-family:Swis721BT;-inkscape-font-specification:Swis721BT;writing-mode:lr-tb;fill:#231f20;fill-opacity:1;fill-rule:nonzero;stroke:none;stroke-width:0.34763"
       id="text1178"
       x="49.481022"
       y="109.93221"><tspan
         x="49.481022"
         y="109.93221"
         id="tspan1174"
         style="stroke-width:0.34763">1</tspan><tspan
         x="51.450729"
         y="111.06249"
         id="tspan1176"
         style="stroke-width:0.34763">3</tspan></text>
    <text
       transform="scale(1.0148557,0.98536173)"
       style="font-variant:normal;font-weight:normal;font-size:2.69123px;font-family:Swis721BT;-inkscape-font-specification:Swis721BT;writing-mode:lr-tb;fill:#231f20;fill-opacity:1;fill-rule:nonzero;stroke:none;stroke-width:0.347614"
       id="text1182"
       x="42.584156"
       y="134.55037"><tspan
         x="42.584156 44.352291 47.754002"
         y="134.55037"
         sodipodi:role="line"
         id="tspan1180"
         style="stroke-width:0.347614">P=/</tspan></text>
    <text
       transform="scale(1.0148086,0.98540745)"
       style="font-variant:normal;font-weight:normal;font-size:1.88381px;font-family:Swis721BT;-inkscape-font-specification:Swis721BT;writing-mode:lr-tb;fill:#231f20;fill-opacity:1;fill-rule:nonzero;stroke:none;stroke-width:0.34763"
       id="text1188"
       x="46.671131"
       y="133.97884"><tspan
         x="46.671131"
         y="133.97884"
         id="tspan1184"
         style="stroke-width:0.34763">1</tspan><tspan
         x="48.640839"
         y="135.10913"
         id="tspan1186"
         style="stroke-width:0.34763">3</tspan></text>
    <text
       transform="scale(1.0148557,0.98536173)"
       style="font-variant:normal;font-weight:normal;font-size:2.69123px;font-family:Swis721BT;-inkscape-font-specification:Swis721BT;writing-mode:lr-tb;fill:#231f20;fill-opacity:1;fill-rule:nonzero;stroke:none;stroke-width:0.347614"
       id="text1194"
       x="81.724762"
       y="111.10302"><tspan
         x="81.724762 83.492897 84.469818 86.598572 88.312881 91.364738 92.174797"
         y="111.10302"
         sodipodi:role="line"
         id="tspan1190"
         style="stroke-width:0.347614">P(G)=.5</tspan><tspan
         x="163.13811 164.90623 165.88315 168.0119 169.72623 173.86533"
         y="97.422707"
         sodipodi:role="line"
         id="tspan1192"
         style="stroke-width:0.347614">P(G)=/</tspan></text>
    <text
       transform="scale(1.0148086,0.98540745)"
       style="font-variant:normal;font-weight:normal;font-size:1.88381px;font-family:Swis721BT;-inkscape-font-specification:Swis721BT;writing-mode:lr-tb;fill:#231f20;fill-opacity:1;fill-rule:nonzero;stroke:none;stroke-width:0.34763"
       id="text1200"
       x="172.78984"
       y="96.852608"><tspan
         x="172.78984"
         y="96.852608"
         id="tspan1196"
         style="stroke-width:0.34763">2</tspan><tspan
         x="174.75955"
         y="97.982887"
         id="tspan1198"
         style="stroke-width:0.34763">3</tspan></text>
    <text
       transform="scale(1.0148557,0.98536173)"
       style="font-variant:normal;font-weight:normal;font-size:2.69123px;font-family:Swis721BT;-inkscape-font-specification:Swis721BT;writing-mode:lr-tb;fill:#231f20;fill-opacity:1;fill-rule:nonzero;stroke:none;stroke-width:0.347614"
       id="text1206"
       x="81.883278"
       y="115.11425"><tspan
         x="81.883278 83.651413 84.628326 86.439522 88.153831 91.205681 92.015739"
         y="115.11425"
         sodipodi:role="line"
         id="tspan1202"
         style="stroke-width:0.347614">P(S)=.5</tspan><tspan
         x="163.29662 165.06474 166.04166 167.85286 169.56717 173.70628"
         y="101.95739"
         sodipodi:role="line"
         id="tspan1204"
         style="stroke-width:0.347614">P(S)=/</tspan></text>
    <text
       transform="scale(1.0148086,0.98540745)"
       style="font-variant:normal;font-weight:normal;font-size:1.88381px;font-family:Swis721BT;-inkscape-font-specification:Swis721BT;writing-mode:lr-tb;fill:#231f20;fill-opacity:1;fill-rule:nonzero;stroke:none;stroke-width:0.34763"
       id="text1212"
       x="172.63098"
       y="101.3867"><tspan
         x="172.63098"
         y="101.3867"
         id="tspan1208"
         style="stroke-width:0.34763">1</tspan><tspan
         x="174.60069"
         y="102.51698"
         id="tspan1210"
         style="stroke-width:0.34763">3</tspan></text>
    <text
       transform="scale(1.0148557,0.98536173)"
       style="font-variant:normal;font-weight:normal;font-size:2.69123px;font-family:Swis721BT;-inkscape-font-specification:Swis721BT;writing-mode:lr-tb;fill:#231f20;fill-opacity:1;fill-rule:nonzero;stroke:none;stroke-width:0.347614"
       id="text1230"
       x="102.2232"
       y="113.13764"><tspan
         x="102.2232"
         y="113.13764"
         id="tspan1214"
         style="stroke-width:0.347614">G</tspan><tspan
         x="102.78782 105.29335 108.3452"
         y="100.58146"
         sodipodi:role="line"
         id="tspan1216"
         style="stroke-width:0.347614">P=?</tspan><tspan
         x="106.64381 109.14934 112.20119"
         y="115.42437"
         sodipodi:role="line"
         id="tspan1218"
         style="stroke-width:0.347614">P=?</tspan><tspan
         x="149.42514 150.97528"
         y="98.043098"
         sodipodi:role="line"
         id="tspan1220"
         style="stroke-width:0.347614">2G</tspan><tspan
         x="149.58392 151.13406"
         y="101.91604"
         sodipodi:role="line"
         id="tspan1222"
         style="stroke-width:0.347614">1S</tspan><tspan
         x="60.198643"
         y="77.968704"
         id="tspan1224"
         style="stroke-width:0.347614">I</tspan><tspan
         x="59.852276"
         y="76.728592"
         id="tspan1226"
         style="stroke-width:0.347614">–</tspan><tspan
         x="59.852276"
         y="78.646896"
         id="tspan1228"
         style="stroke-width:0.347614">–</tspan></text>
    <path
       d="m 60.775584,100.13969 h 2.09938 v 0.1337 h -2.09938 z"
       style="fill:#231f20;fill-opacity:1;fill-rule:evenodd;stroke:none;stroke-width:0.352778"
       id="path1232" />
    <path
       d="m 60.775584,102.10643 h 2.09938 v 0.1337 h -2.09938 z"
       style="fill:#231f20;fill-opacity:1;fill-rule:evenodd;stroke:none;stroke-width:0.352778"
       id="path1234" />
    <text
       transform="scale(1.0148557,0.98536173)"
       style="font-variant:normal;font-weight:normal;font-size:2.69123px;font-family:Swis721BT;-inkscape-font-specification:Swis721BT;writing-mode:lr-tb;fill:#231f20;fill-opacity:1;fill-rule:nonzero;stroke:none;stroke-width:0.347614"
       id="text1240"
       x="60.203999"
       y="103.70063"><tspan
         x="60.203999 60.968307"
         y="103.70063"
         sodipodi:role="line"
         id="tspan1236"
         style="stroke-width:0.347614">II</tspan><tspan
         x="60.150715 60.915024 61.679329"
         y="129.39456"
         sodipodi:role="line"
         id="tspan1238"
         style="stroke-width:0.347614">III</tspan></text>
    <path
       d="m 60.775584,125.4776 h 2.733322 v 0.1337 h -2.733322 z"
       style="fill:#231f20;fill-opacity:1;fill-rule:evenodd;stroke:none;stroke-width:0.352778"
       id="path1242" />
    <path
       d="m 60.775584,127.42529 h 2.733322 v 0.1337 h -2.733322 z"
       style="fill:#231f20;fill-opacity:1;fill-rule:evenodd;stroke:none;stroke-width:0.352778"
       id="path1244" />
    <text
       transform="scale(1.0148557,0.98536173)"
       style="font-variant:normal;font-weight:normal;font-size:2.69123px;font-family:Swis721BT;-inkscape-font-specification:Swis721BT;writing-mode:lr-tb;fill:#231f20;fill-opacity:1;fill-rule:nonzero;stroke:none;stroke-width:0.347614"
       id="text1258"
       x="123.65775"
       y="77.966972"><tspan
         x="123.65775"
         y="77.966972"
         id="tspan1246"
         style="stroke-width:0.347614">I</tspan><tspan
         x="123.31139"
         y="76.726852"
         id="tspan1248"
         style="stroke-width:0.347614">–</tspan><tspan
         x="123.31139"
         y="78.645157"
         id="tspan1250"
         style="stroke-width:0.347614">–</tspan><tspan
         x="137.8031"
         y="77.966972"
         id="tspan1252"
         style="stroke-width:0.347614">I</tspan><tspan
         x="137.45674"
         y="76.726852"
         id="tspan1254"
         style="stroke-width:0.347614">–</tspan><tspan
         x="137.45674"
         y="78.645157"
         id="tspan1256"
         style="stroke-width:0.347614">–</tspan></text>
    <path
       d="m 125.11802,100.19684 h 2.09938 v 0.1337 h -2.09938 z"
       style="fill:#231f20;fill-opacity:1;fill-rule:evenodd;stroke:none;stroke-width:0.352778"
       id="path1260" />
    <path
       d="m 125.11802,102.16358 h 2.09938 v 0.1337 h -2.09938 z"
       style="fill:#231f20;fill-opacity:1;fill-rule:evenodd;stroke:none;stroke-width:0.352778"
       id="path1262" />
    <text
       transform="scale(1.0148557,0.98536173)"
       style="font-variant:normal;font-weight:normal;font-size:2.69123px;font-family:Swis721BT;-inkscape-font-specification:Swis721BT;writing-mode:lr-tb;fill:#231f20;fill-opacity:1;fill-rule:nonzero;stroke:none;stroke-width:0.347614"
       id="text1266"
       x="123.62369"
       y="103.75898"><tspan
         x="123.62369 124.388"
         y="103.75898"
         sodipodi:role="line"
         id="tspan1264"
         style="stroke-width:0.347614">II</tspan></text>
    <path
       d="m 139.47325,100.19684 h 2.09938 v 0.1337 h -2.09938 z"
       style="fill:#231f20;fill-opacity:1;fill-rule:evenodd;stroke:none;stroke-width:0.352778"
       id="path1268" />
    <path
       d="m 139.47325,102.16358 h 2.09938 v 0.1337 h -2.09938 z"
       style="fill:#231f20;fill-opacity:1;fill-rule:evenodd;stroke:none;stroke-width:0.352778"
       id="path1270" />
    <text
       transform="scale(1.0148557,0.98536173)"
       style="font-variant:normal;font-weight:normal;font-size:2.69123px;font-family:Swis721BT;-inkscape-font-specification:Swis721BT;writing-mode:lr-tb;fill:#231f20;fill-opacity:1;fill-rule:nonzero;stroke:none;stroke-width:0.347614"
       id="text1276"
       x="137.76878"
       y="103.75898"><tspan
         x="137.76878 138.5331"
         y="103.75898"
         sodipodi:role="line"
         id="tspan1272"
         style="stroke-width:0.347614">II</tspan><tspan
         x="123.53166 124.29597 125.06028"
         y="128.81348"
         sodipodi:role="line"
         id="tspan1274"
         style="stroke-width:0.347614">III</tspan></text>
    <path
       d="m 125.09826,124.90504 h 2.73332 v 0.13371 h -2.73332 z"
       style="fill:#231f20;fill-opacity:1;fill-rule:evenodd;stroke:none;stroke-width:0.352778"
       id="path1278" />
    <path
       d="m 125.09826,126.85238 h 2.73332 v 0.1337 h -2.73332 z"
       style="fill:#231f20;fill-opacity:1;fill-rule:evenodd;stroke:none;stroke-width:0.352778"
       id="path1280" />
    <g
       id="g1282"
       transform="matrix(0.35799888,0,0,-0.34762721,25.989226,307.41427)">
      <path
         d="m 255.744,517.328 25.431,-56.081 m -0.494,56.081 -25.432,-56.081"
         style="fill:none;stroke:#231f20;stroke-width:1.099;stroke-linecap:butt;stroke-linejoin:miter;stroke-miterlimit:2.613;stroke-dasharray:none;stroke-opacity:1"
         id="path1284" />
    </g>
  </g>
</svg>
