<?xml version="1.0" encoding="UTF-8" standalone="no"?>
<!-- Created with Inkscape (http://www.inkscape.org/) -->

<svg
   width="77.646736mm"
   height="86.636162mm"
   viewBox="0 0 77.646736 86.636162"
   version="1.1"
   id="svg5106"
   inkscape:version="1.2.2 (b0a8486, 2022-12-01)"
   sodipodi:docname="success_case5.svg"
   xmlns:inkscape="http://www.inkscape.org/namespaces/inkscape"
   xmlns:sodipodi="http://sodipodi.sourceforge.net/DTD/sodipodi-0.dtd"
   xmlns="http://www.w3.org/2000/svg"
   xmlns:svg="http://www.w3.org/2000/svg">
  <sodipodi:namedview
     id="namedview5108"
     pagecolor="#ffffff"
     bordercolor="#666666"
     borderopacity="1.0"
     inkscape:showpageshadow="2"
     inkscape:pageopacity="0.0"
     inkscape:pagecheckerboard="0"
     inkscape:deskcolor="#d1d1d1"
     inkscape:document-units="mm"
     showgrid="false"
     inkscape:zoom="0.73139029"
     inkscape:cx="-158.60205"
     inkscape:cy="76.566507"
     inkscape:window-width="708"
     inkscape:window-height="480"
     inkscape:window-x="0"
     inkscape:window-y="25"
     inkscape:window-maximized="0"
     inkscape:current-layer="layer1" />
  <defs
     id="defs5103" />
  <g
     inkscape:label="Layer 1"
     inkscape:groupmode="layer"
     id="layer1"
     transform="translate(-146.75641,-128.51505)">
    <text
       xml:space="preserve"
       transform="scale(1.0322368,0.96876994)"
       style="font-variant:normal;font-weight:normal;font-size:3.13497px;font-family:Swis721BT;-inkscape-font-specification:Swis721BT;writing-mode:lr-tb;fill:#231f20;fill-opacity:1;fill-rule:nonzero;stroke:none;stroke-width:0.34176"
       id="text861"
       x="142.09315"
       y="178.63138"><tspan
         x="142.09315 144.03998 144.82059 146.55109 149.03084 151.52628"
         y="178.63138"
         sodipodi:role="line"
         id="tspan855"
         style="stroke-width:0.34176">pick#:</tspan><tspan
         x="141.89001 143.83682 144.61743 146.34795 148.8277 151.32314"
         y="200.18774"
         sodipodi:role="line"
         id="tspan857"
         style="stroke-width:0.34176">pick#:</tspan><tspan
         x="141.89001 143.83682 144.61743 146.34795 148.8277 151.32314"
         y="221.33781"
         sodipodi:role="line"
         id="tspan859"
         style="stroke-width:0.34176">pick#:</tspan></text>
    <g
       id="g863"
       transform="matrix(0.36417249,0,0,-0.34173583,79.825577,244.31805)">
      <path
         d="m 216.821,245.513 v -27.194 h 89.963 v 27.194"
         style="fill:none;stroke:#231f20;stroke-width:0.512;stroke-linecap:butt;stroke-linejoin:miter;stroke-miterlimit:2.613;stroke-dasharray:none;stroke-opacity:1"
         id="path865" />
    </g>
    <g
       id="g867"
       transform="matrix(0.36417249,0,0,-0.34173583,79.825577,244.31805)">
      <path
         d="m 232.042,219.215 c 7.044,0 12.789,5.745 12.789,12.789 0,7.044 -5.745,12.789 -12.789,12.789 -7.044,0 -12.789,-5.745 -12.789,-12.789 0,-7.044 5.745,-12.789 12.789,-12.789 z"
         style="fill:#ffffff;fill-opacity:1;fill-rule:evenodd;stroke:#231f20;stroke-width:0.512;stroke-linecap:butt;stroke-linejoin:miter;stroke-miterlimit:2.613;stroke-dasharray:none;stroke-opacity:1"
         id="path869" />
    </g>
    <g
       id="g871"
       transform="matrix(0.36417249,0,0,-0.34173583,79.825577,244.31805)">
      <path
         d="m 261.795,219.215 c 7.044,0 12.789,5.745 12.789,12.789 0,7.044 -5.745,12.789 -12.789,12.789 -7.044,0 -12.789,-5.745 -12.789,-12.789 0,-7.044 5.745,-12.789 12.789,-12.789 z"
         style="fill:#ffffff;fill-opacity:1;fill-rule:evenodd;stroke:#231f20;stroke-width:0.512;stroke-linecap:butt;stroke-linejoin:miter;stroke-miterlimit:2.613;stroke-dasharray:none;stroke-opacity:1"
         id="path873" />
    </g>
    <g
       id="g875"
       transform="matrix(0.36417249,0,0,-0.34173583,79.825577,244.31805)">
      <path
         d="m 291.804,219.215 c 7.044,0 12.789,5.745 12.789,12.789 0,7.044 -5.745,12.789 -12.789,12.789 -7.044,0 -12.789,-5.745 -12.789,-12.789 0,-7.044 5.745,-12.789 12.789,-12.789 z"
         style="fill:#ffffff;fill-opacity:1;fill-rule:evenodd;stroke:#231f20;stroke-width:0.512;stroke-linecap:butt;stroke-linejoin:miter;stroke-miterlimit:2.613;stroke-dasharray:none;stroke-opacity:1"
         id="path877" />
    </g>
    <g
       id="g879"
       transform="matrix(0.36417249,0,0,-0.34173583,79.825577,244.31805)">
      <path
         d="m 247.022,245.449 v -27.156 m 30.009,27.156 v -27.156 m -60.21,-31.007 v -27.193 h 89.963 v 27.193"
         style="fill:none;stroke:#231f20;stroke-width:0.512;stroke-linecap:butt;stroke-linejoin:miter;stroke-miterlimit:2.613;stroke-dasharray:none;stroke-opacity:1"
         id="path881" />
    </g>
    <g
       id="g883"
       transform="matrix(0.36417249,0,0,-0.34173583,79.825577,244.31805)">
      <path
         d="m 232.042,161.052 c 7.044,0 12.789,5.745 12.789,12.789 0,7.045 -5.745,12.79 -12.789,12.79 -7.044,0 -12.789,-5.745 -12.789,-12.79 0,-7.044 5.745,-12.789 12.789,-12.789 z"
         style="fill:#ffffff;fill-opacity:1;fill-rule:evenodd;stroke:#231f20;stroke-width:0.512;stroke-linecap:butt;stroke-linejoin:miter;stroke-miterlimit:2.613;stroke-dasharray:none;stroke-opacity:1"
         id="path885" />
    </g>
    <g
       id="g887"
       transform="matrix(0.36417249,0,0,-0.34173583,79.825577,244.31805)">
      <path
         d="m 261.795,161.052 c 7.044,0 12.789,5.745 12.789,12.789 0,7.045 -5.745,12.79 -12.789,12.79 -7.044,0 -12.789,-5.745 -12.789,-12.79 0,-7.044 5.745,-12.789 12.789,-12.789 z"
         style="fill:#ffffff;fill-opacity:1;fill-rule:evenodd;stroke:#231f20;stroke-width:0.512;stroke-linecap:butt;stroke-linejoin:miter;stroke-miterlimit:2.613;stroke-dasharray:none;stroke-opacity:1"
         id="path889" />
    </g>
    <g
       id="g891"
       transform="matrix(0.36417249,0,0,-0.34173583,79.825577,244.31805)">
      <path
         d="m 291.804,161.052 c 7.044,0 12.789,5.745 12.789,12.789 0,7.045 -5.745,12.79 -12.789,12.79 -7.044,0 -12.789,-5.745 -12.789,-12.79 0,-7.044 5.745,-12.789 12.789,-12.789 z"
         style="fill:#ffffff;fill-opacity:1;fill-rule:evenodd;stroke:#231f20;stroke-width:0.512;stroke-linecap:butt;stroke-linejoin:miter;stroke-miterlimit:2.613;stroke-dasharray:none;stroke-opacity:1"
         id="path893" />
    </g>
    <g
       id="g895"
       transform="matrix(0.36417249,0,0,-0.34173583,79.825577,244.31805)">
      <path
         d="M 247.022,187.286 V 160.13 m 30.009,27.156 V 160.13 m -60.21,-35.933 V 97.003 h 89.963 v 27.194"
         style="fill:none;stroke:#231f20;stroke-width:0.512;stroke-linecap:butt;stroke-linejoin:miter;stroke-miterlimit:2.613;stroke-dasharray:none;stroke-opacity:1"
         id="path897" />
    </g>
    <g
       id="g899"
       transform="matrix(0.36417249,0,0,-0.34173583,79.825577,244.31805)">
      <path
         d="m 232.042,97.963 c 7.044,0 12.789,5.745 12.789,12.789 0,7.044 -5.745,12.789 -12.789,12.789 -7.044,0 -12.789,-5.745 -12.789,-12.789 0,-7.044 5.745,-12.789 12.789,-12.789 z"
         style="fill:#ffffff;fill-opacity:1;fill-rule:evenodd;stroke:#231f20;stroke-width:0.512;stroke-linecap:butt;stroke-linejoin:miter;stroke-miterlimit:2.613;stroke-dasharray:none;stroke-opacity:1"
         id="path901" />
    </g>
    <g
       id="g903"
       transform="matrix(0.36417249,0,0,-0.34173583,79.825577,244.31805)">
      <path
         d="m 261.795,97.963 c 7.044,0 12.789,5.745 12.789,12.789 0,7.044 -5.745,12.789 -12.789,12.789 -7.044,0 -12.789,-5.745 -12.789,-12.789 0,-7.044 5.745,-12.789 12.789,-12.789 z"
         style="fill:#ffffff;fill-opacity:1;fill-rule:evenodd;stroke:#231f20;stroke-width:0.512;stroke-linecap:butt;stroke-linejoin:miter;stroke-miterlimit:2.613;stroke-dasharray:none;stroke-opacity:1"
         id="path905" />
    </g>
    <g
       id="g907"
       transform="matrix(0.36417249,0,0,-0.34173583,79.825577,244.31805)">
      <path
         d="m 291.804,97.963 c 7.044,0 12.789,5.745 12.789,12.789 0,7.044 -5.745,12.789 -12.789,12.789 -7.044,0 -12.789,-5.745 -12.789,-12.789 0,-7.044 5.745,-12.789 12.789,-12.789 z"
         style="fill:#ffffff;fill-opacity:1;fill-rule:evenodd;stroke:#231f20;stroke-width:0.512;stroke-linecap:butt;stroke-linejoin:miter;stroke-miterlimit:2.613;stroke-dasharray:none;stroke-opacity:1"
         id="path909" />
    </g>
    <g
       id="g911"
       transform="matrix(0.36417249,0,0,-0.34173583,79.825577,244.31805)">
      <path
         d="M 247.022,124.197 V 97.041 m 30.009,27.156 V 97.041 m 119.716,148.472 v -27.194 h -89.963 v 27.194"
         style="fill:none;stroke:#231f20;stroke-width:0.512;stroke-linecap:butt;stroke-linejoin:miter;stroke-miterlimit:2.613;stroke-dasharray:none;stroke-opacity:1"
         id="path913" />
    </g>
    <g
       id="g915"
       transform="matrix(0.36417249,0,0,-0.34173583,79.825577,244.31805)">
      <path
         d="m 381.527,219.215 c -7.044,0 -12.789,5.745 -12.789,12.789 0,7.044 5.745,12.789 12.789,12.789 7.044,0 12.789,-5.745 12.789,-12.789 0,-7.044 -5.745,-12.789 -12.789,-12.789 z"
         style="fill:#ffffff;fill-opacity:1;fill-rule:evenodd;stroke:#231f20;stroke-width:0.512;stroke-linecap:butt;stroke-linejoin:miter;stroke-miterlimit:2.613;stroke-dasharray:none;stroke-opacity:1"
         id="path917" />
    </g>
    <g
       id="g919"
       transform="matrix(0.36417249,0,0,-0.34173583,79.825577,244.31805)">
      <path
         d="m 351.774,219.215 c -7.044,0 -12.789,5.745 -12.789,12.789 0,7.044 5.745,12.789 12.789,12.789 7.044,0 12.789,-5.745 12.789,-12.789 0,-7.044 -5.745,-12.789 -12.789,-12.789 z"
         style="fill:#ffffff;fill-opacity:1;fill-rule:evenodd;stroke:#231f20;stroke-width:0.512;stroke-linecap:butt;stroke-linejoin:miter;stroke-miterlimit:2.613;stroke-dasharray:none;stroke-opacity:1"
         id="path921" />
    </g>
    <g
       id="g923"
       transform="matrix(0.36417249,0,0,-0.34173583,79.825577,244.31805)">
      <path
         d="m 321.765,219.215 c -7.044,0 -12.789,5.745 -12.789,12.789 0,7.044 5.745,12.789 12.789,12.789 7.044,0 12.789,-5.745 12.789,-12.789 0,-7.044 -5.745,-12.789 -12.789,-12.789 z"
         style="fill:#ffffff;fill-opacity:1;fill-rule:evenodd;stroke:#231f20;stroke-width:0.512;stroke-linecap:butt;stroke-linejoin:miter;stroke-miterlimit:2.613;stroke-dasharray:none;stroke-opacity:1"
         id="path925" />
    </g>
    <g
       id="g927"
       transform="matrix(0.36417249,0,0,-0.34173583,79.825577,244.31805)">
      <path
         d="m 366.547,245.449 v -27.156 m -30.01,27.156 v -27.156 m 60.21,-31.007 v -27.193 h -89.963 v 27.193"
         style="fill:none;stroke:#231f20;stroke-width:0.512;stroke-linecap:butt;stroke-linejoin:miter;stroke-miterlimit:2.613;stroke-dasharray:none;stroke-opacity:1"
         id="path929" />
    </g>
    <g
       id="g931"
       transform="matrix(0.36417249,0,0,-0.34173583,79.825577,244.31805)">
      <path
         d="m 381.527,161.052 c -7.044,0 -12.789,5.745 -12.789,12.789 0,7.045 5.745,12.79 12.789,12.79 7.044,0 12.789,-5.745 12.789,-12.79 0,-7.044 -5.745,-12.789 -12.789,-12.789 z"
         style="fill:#ffffff;fill-opacity:1;fill-rule:evenodd;stroke:#231f20;stroke-width:0.512;stroke-linecap:butt;stroke-linejoin:miter;stroke-miterlimit:2.613;stroke-dasharray:none;stroke-opacity:1"
         id="path933" />
    </g>
    <g
       id="g935"
       transform="matrix(0.36417249,0,0,-0.34173583,79.825577,244.31805)">
      <path
         d="m 351.774,161.052 c -7.044,0 -12.789,5.745 -12.789,12.789 0,7.045 5.745,12.79 12.789,12.79 7.044,0 12.789,-5.745 12.789,-12.79 0,-7.044 -5.745,-12.789 -12.789,-12.789 z"
         style="fill:#ffffff;fill-opacity:1;fill-rule:evenodd;stroke:#231f20;stroke-width:0.512;stroke-linecap:butt;stroke-linejoin:miter;stroke-miterlimit:2.613;stroke-dasharray:none;stroke-opacity:1"
         id="path937" />
    </g>
    <g
       id="g939"
       transform="matrix(0.36417249,0,0,-0.34173583,79.825577,244.31805)">
      <path
         d="m 321.765,161.052 c -7.044,0 -12.789,5.745 -12.789,12.789 0,7.045 5.745,12.79 12.789,12.79 7.044,0 12.789,-5.745 12.789,-12.79 0,-7.044 -5.745,-12.789 -12.789,-12.789 z"
         style="fill:#ffffff;fill-opacity:1;fill-rule:evenodd;stroke:#231f20;stroke-width:0.512;stroke-linecap:butt;stroke-linejoin:miter;stroke-miterlimit:2.613;stroke-dasharray:none;stroke-opacity:1"
         id="path941" />
    </g>
    <g
       id="g943"
       transform="matrix(0.36417249,0,0,-0.34173583,79.825577,244.31805)">
      <path
         d="M 366.547,187.286 V 160.13 m -30.01,27.156 V 160.13 m 60.21,-35.933 V 97.003 h -89.963 v 27.194"
         style="fill:none;stroke:#231f20;stroke-width:0.512;stroke-linecap:butt;stroke-linejoin:miter;stroke-miterlimit:2.613;stroke-dasharray:none;stroke-opacity:1"
         id="path945" />
    </g>
    <g
       id="g947"
       transform="matrix(0.36417249,0,0,-0.34173583,79.825577,244.31805)">
      <path
         d="m 381.527,97.963 c -7.044,0 -12.789,5.745 -12.789,12.789 0,7.044 5.745,12.789 12.789,12.789 7.044,0 12.789,-5.745 12.789,-12.789 0,-7.044 -5.745,-12.789 -12.789,-12.789 z"
         style="fill:#ffffff;fill-opacity:1;fill-rule:evenodd;stroke:#231f20;stroke-width:0.512;stroke-linecap:butt;stroke-linejoin:miter;stroke-miterlimit:2.613;stroke-dasharray:none;stroke-opacity:1"
         id="path949" />
    </g>
    <g
       id="g951"
       transform="matrix(0.36417249,0,0,-0.34173583,79.825577,244.31805)">
      <path
         d="m 351.774,97.963 c -7.044,0 -12.789,5.745 -12.789,12.789 0,7.044 5.745,12.789 12.789,12.789 7.044,0 12.789,-5.745 12.789,-12.789 0,-7.044 -5.745,-12.789 -12.789,-12.789 z"
         style="fill:#ffffff;fill-opacity:1;fill-rule:evenodd;stroke:#231f20;stroke-width:0.512;stroke-linecap:butt;stroke-linejoin:miter;stroke-miterlimit:2.613;stroke-dasharray:none;stroke-opacity:1"
         id="path953" />
    </g>
    <g
       id="g955"
       transform="matrix(0.36417249,0,0,-0.34173583,79.825577,244.31805)">
      <path
         d="m 321.765,97.963 c -7.044,0 -12.789,5.745 -12.789,12.789 0,7.044 5.745,12.789 12.789,12.789 7.044,0 12.789,-5.745 12.789,-12.789 0,-7.044 -5.745,-12.789 -12.789,-12.789 z"
         style="fill:#ffffff;fill-opacity:1;fill-rule:evenodd;stroke:#231f20;stroke-width:0.512;stroke-linecap:butt;stroke-linejoin:miter;stroke-miterlimit:2.613;stroke-dasharray:none;stroke-opacity:1"
         id="path957" />
    </g>
    <g
       id="g959"
       transform="matrix(0.36417249,0,0,-0.34173583,79.825577,244.31805)">
      <path
         d="M 366.547,124.197 V 97.041 m -30.01,27.156 V 97.041"
         style="fill:none;stroke:#231f20;stroke-width:0.512;stroke-linecap:butt;stroke-linejoin:miter;stroke-miterlimit:2.613;stroke-dasharray:none;stroke-opacity:1"
         id="path961" />
    </g>
    <text
       xml:space="preserve"
       transform="scale(1.0322761,0.96873303)"
       style="font-variant:normal;font-weight:normal;font-size:3.23669px;font-family:Swis721BT;-inkscape-font-specification:Swis721BT;writing-mode:lr-tb;fill:#231f20;fill-opacity:1;fill-rule:nonzero;stroke:none;stroke-width:0.341747"
       id="text1005"
       x="168.66306"
       y="179.27037"><tspan
         x="168.66306"
         y="179.27037"
         id="tspan963"
         style="stroke-width:0.341747">2</tspan><tspan
         x="168.66306"
         y="199.78937"
         id="tspan965"
         style="stroke-width:0.341747">2</tspan><tspan
         x="168.66306"
         y="192.18217"
         id="tspan967"
         style="stroke-width:0.341747">2</tspan><tspan
         x="168.66306"
         y="222.04648"
         id="tspan969"
         style="stroke-width:0.341747">2</tspan><tspan
         x="200.44606"
         y="179.27037"
         id="tspan971"
         style="stroke-width:0.341747">5</tspan><tspan
         x="200.44606"
         y="199.78937"
         id="tspan973"
         style="stroke-width:0.341747">5</tspan><tspan
         x="200.44606"
         y="222.04648"
         id="tspan975"
         style="stroke-width:0.341747">5</tspan><tspan
         x="179.27228"
         y="179.27037"
         id="tspan977"
         style="stroke-width:0.341747">3</tspan><tspan
         x="179.27228"
         y="199.78937"
         id="tspan979"
         style="stroke-width:0.341747">3</tspan><tspan
         x="179.27228"
         y="214.46193"
         id="tspan981"
         style="stroke-width:0.341747">3</tspan><tspan
         x="179.27228"
         y="222.04648"
         id="tspan983"
         style="stroke-width:0.341747">3</tspan><tspan
         x="211.07794"
         y="179.27037"
         id="tspan985"
         style="stroke-width:0.341747">6</tspan><tspan
         x="211.07794"
         y="199.78937"
         id="tspan987"
         style="stroke-width:0.341747">6</tspan><tspan
         x="211.07794"
         y="222.04648"
         id="tspan989"
         style="stroke-width:0.341747">6</tspan><tspan
         x="158.36942"
         y="171.48257"
         id="tspan991"
         style="stroke-width:0.341747">1</tspan><tspan
         x="158.36942"
         y="200.10527"
         id="tspan993"
         style="stroke-width:0.341747">1</tspan><tspan
         x="158.36942"
         y="179.27037"
         id="tspan995"
         style="stroke-width:0.341747">1</tspan><tspan
         x="158.36942"
         y="222.04648"
         id="tspan997"
         style="stroke-width:0.341747">1</tspan><tspan
         x="190.15242"
         y="179.27037"
         id="tspan999"
         style="stroke-width:0.341747">4</tspan><tspan
         x="190.15242"
         y="199.78937"
         id="tspan1001"
         style="stroke-width:0.341747">4</tspan><tspan
         x="190.15242"
         y="222.04648"
         id="tspan1003"
         style="stroke-width:0.341747">4</tspan></text>
    <g
       id="g1007"
       transform="matrix(0.36417249,0,0,-0.34173583,79.825577,244.31805)">
      <path
         d="m 215.094,338.867 v -70.703 h 77.486 v 70.703"
         style="fill:none;stroke:#231f20;stroke-width:0.512;stroke-linecap:butt;stroke-linejoin:miter;stroke-miterlimit:2.613;stroke-dasharray:none;stroke-opacity:1"
         id="path1009" />
    </g>
    <g
       id="g1011"
       transform="matrix(0.36417249,0,0,-0.34173583,79.825577,244.31805)">
      <path
         d="m 228.031,271.171 c 5.576,0 10.123,4.547 10.123,10.122 0,5.575 -4.547,10.122 -10.123,10.122 -5.575,0 -10.122,-4.547 -10.122,-10.122 0,-5.575 4.547,-10.122 10.122,-10.122 z"
         style="fill:#ffffff;fill-opacity:1;fill-rule:evenodd;stroke:#231f20;stroke-width:0.512;stroke-linecap:butt;stroke-linejoin:miter;stroke-miterlimit:2.613;stroke-dasharray:none;stroke-opacity:1"
         id="path1013" />
    </g>
    <g
       id="g1015"
       transform="matrix(0.36417249,0,0,-0.34173583,79.825577,244.31805)">
      <path
         d="m 240.828,293.374 c 5.576,0 10.123,4.547 10.123,10.122 0,5.575 -4.547,10.122 -10.123,10.122 -5.575,0 -10.122,-4.547 -10.122,-10.122 0,-5.575 4.547,-10.122 10.122,-10.122 z"
         style="fill:#ffffff;fill-opacity:1;fill-rule:evenodd;stroke:#231f20;stroke-width:0.512;stroke-linecap:butt;stroke-linejoin:miter;stroke-miterlimit:2.613;stroke-dasharray:none;stroke-opacity:1"
         id="path1017" />
    </g>
    <g
       id="g1019"
       transform="matrix(0.36417249,0,0,-0.34173583,79.825577,244.31805)">
      <path
         d="m 266.422,293.374 c 5.576,0 10.123,4.547 10.123,10.122 0,5.575 -4.547,10.122 -10.123,10.122 -5.575,0 -10.122,-4.547 -10.122,-10.122 0,-5.575 4.547,-10.122 10.122,-10.122 z"
         style="fill:#ffffff;fill-opacity:1;fill-rule:evenodd;stroke:#231f20;stroke-width:0.512;stroke-linecap:butt;stroke-linejoin:miter;stroke-miterlimit:2.613;stroke-dasharray:none;stroke-opacity:1"
         id="path1021" />
    </g>
    <g
       id="g1023"
       transform="matrix(0.36417249,0,0,-0.34173583,79.825577,244.31805)">
      <path
         d="m 253.753,315.513 c 5.576,0 10.123,4.547 10.123,10.122 0,5.575 -4.547,10.122 -10.123,10.122 -5.575,0 -10.122,-4.547 -10.122,-10.122 0,-5.575 4.547,-10.122 10.122,-10.122 z"
         style="fill:#ffffff;fill-opacity:1;fill-rule:evenodd;stroke:#231f20;stroke-width:0.512;stroke-linecap:butt;stroke-linejoin:miter;stroke-miterlimit:2.613;stroke-dasharray:none;stroke-opacity:1"
         id="path1025" />
    </g>
    <g
       id="g1027"
       transform="matrix(0.36417249,0,0,-0.34173583,79.825577,244.31805)">
      <path
         d="m 253.625,271.171 c 5.576,0 10.123,4.547 10.123,10.122 0,5.575 -4.547,10.122 -10.123,10.122 -5.575,0 -10.122,-4.547 -10.122,-10.122 0,-5.575 4.547,-10.122 10.122,-10.122 z"
         style="fill:#ffffff;fill-opacity:1;fill-rule:evenodd;stroke:#231f20;stroke-width:0.512;stroke-linecap:butt;stroke-linejoin:miter;stroke-miterlimit:2.613;stroke-dasharray:none;stroke-opacity:1"
         id="path1029" />
    </g>
    <g
       id="g1031"
       transform="matrix(0.36417249,0,0,-0.34173583,79.825577,244.31805)">
      <path
         d="m 279.411,271.171 c 5.576,0 10.123,4.547 10.123,10.122 0,5.575 -4.547,10.122 -10.123,10.122 -5.575,0 -10.122,-4.547 -10.122,-10.122 0,-5.575 4.547,-10.122 10.122,-10.122 z"
         style="fill:#ffffff;fill-opacity:1;fill-rule:evenodd;stroke:#231f20;stroke-width:0.512;stroke-linecap:butt;stroke-linejoin:miter;stroke-miterlimit:2.613;stroke-dasharray:none;stroke-opacity:1"
         id="path1033" />
    </g>
    <text
       xml:space="preserve"
       transform="scale(1.0322187,0.96878691)"
       style="font-variant:normal;font-weight:normal;font-size:3.15895px;font-family:Swis721BT;-inkscape-font-specification:Swis721BT;writing-mode:lr-tb;fill:#231f20;fill-opacity:1;fill-rule:nonzero;stroke:none;stroke-width:0.341766"
       id="text1041"
       x="166.07501"
       y="138.24797"><tspan
         x="166.07501"
         y="138.24797"
         id="tspan1035"
         style="stroke-width:0.341766">5</tspan><tspan
         x="161.53781 170.61348"
         y="146.05815"
         sodipodi:role="line"
         id="tspan1037"
         style="stroke-width:0.341766">13</tspan><tspan
         x="157.04579 166.07407 175.23817"
         y="153.93594"
         sodipodi:role="line"
         id="tspan1039"
         style="stroke-width:0.341766">426</tspan></text>
    <g
       id="g1043"
       transform="matrix(0.36417249,0,0,-0.34173583,79.825577,244.31805)">
      <path
         d="m 241.264,293.438 -6.271,-45.046"
         style="fill:none;stroke:#231f20;stroke-width:0.896;stroke-linecap:butt;stroke-linejoin:miter;stroke-miterlimit:2.613;stroke-dasharray:4.479, 2.687;stroke-dashoffset:0;stroke-opacity:1"
         id="path1045" />
    </g>
    <g
       id="g1047"
       transform="matrix(0.36417249,0,0,-0.34173583,79.825577,244.31805)">
      <path
         d="m 237.839,251.473 -2.998,-4.186 -1.746,4.846"
         style="fill:none;stroke:#231f20;stroke-width:0.896;stroke-linecap:butt;stroke-linejoin:miter;stroke-miterlimit:2.613;stroke-dasharray:none;stroke-opacity:1"
         id="path1049" />
    </g>
    <g
       id="g1051"
       transform="matrix(0.36417249,0,0,-0.34173583,79.825577,244.31805)">
      <path
         d="m 253.421,270.851 6.974,-80.365"
         style="fill:none;stroke:#231f20;stroke-width:0.896;stroke-linecap:butt;stroke-linejoin:miter;stroke-miterlimit:2.613;stroke-dasharray:4.479, 2.687;stroke-dashoffset:0;stroke-opacity:1"
         id="path1053" />
    </g>
    <g
       id="g1055"
       transform="matrix(0.36417249,0,0,-0.34173583,79.825577,244.31805)">
      <path
         d="m 262.482,194.123 -1.989,-4.749 -2.782,4.335"
         style="fill:none;stroke:#231f20;stroke-width:0.896;stroke-linecap:butt;stroke-linejoin:miter;stroke-miterlimit:2.613;stroke-dasharray:none;stroke-opacity:1"
         id="path1057" />
    </g>
    <g
       id="g1059"
       transform="matrix(0.36417249,0,0,-0.34173583,79.825577,244.31805)">
      <path
         d="m 266.73,293.374 23.61,-165.85"
         style="fill:none;stroke:#231f20;stroke-width:0.896;stroke-linecap:butt;stroke-linejoin:miter;stroke-miterlimit:2.613;stroke-dasharray:4.479, 2.687;stroke-dashoffset:0;stroke-opacity:1"
         id="path1061" />
    </g>
    <g
       id="g1063"
       transform="matrix(0.36417249,0,0,-0.34173583,79.825577,244.31805)">
      <path
         d="m 292.224,131.271 -1.725,-4.852 -3.015,4.177"
         style="fill:none;stroke:#231f20;stroke-width:0.896;stroke-linecap:butt;stroke-linejoin:miter;stroke-miterlimit:2.613;stroke-dasharray:none;stroke-opacity:1"
         id="path1065" />
    </g>
    <text
       xml:space="preserve"
       transform="scale(1.0322368,0.96876994)"
       style="font-variant:normal;font-weight:normal;font-size:3.13497px;font-family:Swis721BT;-inkscape-font-specification:Swis721BT;writing-mode:lr-tb;fill:#231f20;fill-opacity:1;fill-rule:nonzero;stroke:none;stroke-width:0.34176"
       id="text1071"
       x="181.11333"
       y="182.9655"><tspan
         x="181.11333 183.01938 184.91917 186.05717 187.8441 189.71254 191.65936"
         y="182.9655"
         sodipodi:role="line"
         id="tspan1067"
         style="stroke-width:0.34176">or(and)</tspan><tspan
         x="181.11333 183.01938 184.91917 186.05717 187.8441 189.71254 191.65936"
         y="203.82213"
         sodipodi:role="line"
         id="tspan1069"
         style="stroke-width:0.34176">or(and)</tspan></text>
  </g>
</svg>
