<?xml version="1.0" encoding="UTF-8" standalone="no"?>
<!-- Created with Inkscape (http://www.inkscape.org/) -->

<svg
   width="103.7523mm"
   height="67.451958mm"
   viewBox="0 0 103.7523 67.451958"
   version="1.1"
   id="svg3594"
   inkscape:version="1.1 (c4e8f9e, 2021-05-24)"
   sodipodi:docname="success_case2.svg"
   xmlns:inkscape="http://www.inkscape.org/namespaces/inkscape"
   xmlns:sodipodi="http://sodipodi.sourceforge.net/DTD/sodipodi-0.dtd"
   xmlns="http://www.w3.org/2000/svg"
   xmlns:svg="http://www.w3.org/2000/svg">
  <sodipodi:namedview
     id="namedview3596"
     pagecolor="#ffffff"
     bordercolor="#666666"
     borderopacity="1.0"
     inkscape:pageshadow="2"
     inkscape:pageopacity="0.0"
     inkscape:pagecheckerboard="0"
     inkscape:document-units="mm"
     showgrid="false"
     fit-margin-left="5"
     lock-margins="true"
     fit-margin-top="5"
     fit-margin-right="5"
     fit-margin-bottom="5"
     inkscape:zoom="0.7046647"
     inkscape:cx="195.12826"
     inkscape:cy="128.42988"
     inkscape:window-width="1342"
     inkscape:window-height="647"
     inkscape:window-x="0"
     inkscape:window-y="25"
     inkscape:window-maximized="0"
     inkscape:current-layer="layer1" />
  <defs
     id="defs3591">
    <clipPath
       clipPathUnits="userSpaceOnUse"
       id="clipPath3261">
      <path
         d="M 150,579 H 416.04 V 416.04 H 150 Z"
         id="path3259" />
    </clipPath>
  </defs>
  <g
     inkscape:label="Layer 1"
     inkscape:groupmode="layer"
     id="layer1"
     transform="translate(-53.256596,-114.58628)">
    <g
       id="g3255"
       transform="matrix(0.35277777,0,0,-0.35277777,5.2892991,323.84461)">
      <g
         id="g3257"
         clip-path="url(#clipPath3261)">
        <g
           id="g3263"
           transform="scale(1.034,0.9671)">
          <path
             d="M 157.398,442.111 H 263.942 V 559.254 H 157.398 Z"
             style="fill:#e9e9e9;fill-opacity:1;fill-rule:evenodd;stroke:#231f20;stroke-width:0.473;stroke-linecap:butt;stroke-linejoin:miter;stroke-miterlimit:2.613;stroke-dasharray:none;stroke-opacity:1"
             id="path3265" />
          <path
             d="m 145.443,450.752 11.966,-8.642 h 106.544 l -11.966,8.642 z"
             style="fill:#e9e9e9;fill-opacity:1;fill-rule:evenodd;stroke:#231f20;stroke-width:0.473;stroke-linecap:butt;stroke-linejoin:bevel;stroke-miterlimit:2.613;stroke-dasharray:none;stroke-opacity:1"
             id="path3267" />
          <path
             d="m 251.973,450.752 11.965,-8.642 v 117.143 l -11.965,8.642 z"
             style="fill:#e9e9e9;fill-opacity:1;fill-rule:evenodd;stroke:#231f20;stroke-width:0.473;stroke-linecap:butt;stroke-linejoin:bevel;stroke-miterlimit:2.613;stroke-dasharray:none;stroke-opacity:1"
             id="path3269" />
          <path
             d="M 145.443,450.752 H 251.987 V 567.895 H 145.443 Z"
             style="fill:#ffffff;fill-opacity:1;fill-rule:evenodd;stroke:#231f20;stroke-width:0.473;stroke-linecap:butt;stroke-linejoin:miter;stroke-miterlimit:2.613;stroke-dasharray:none;stroke-opacity:1"
             id="path3271" />
          <path
             d="m 311.393,442.111 h 90.553 v 27.402 h -90.553 z"
             style="fill:#ffffff;fill-opacity:1;fill-rule:evenodd;stroke:#231f20;stroke-width:0.473;stroke-linecap:butt;stroke-linejoin:miter;stroke-miterlimit:2.613;stroke-dasharray:none;stroke-opacity:1"
             id="path3273" />
          <path
             d="m 306.244,449.095 5.133,-6.98 h 90.553 l -5.133,6.98 z"
             style="fill:#e9e9e9;fill-opacity:1;fill-rule:evenodd;stroke:#231f20;stroke-width:0.473;stroke-linecap:butt;stroke-linejoin:bevel;stroke-miterlimit:2.613;stroke-dasharray:none;stroke-opacity:1"
             id="path3275" />
          <path
             d="m 396.853,449.095 5.133,-6.98 v 27.402 l -5.133,6.98 z"
             style="fill:#e9e9e9;fill-opacity:1;fill-rule:evenodd;stroke:#231f20;stroke-width:0.473;stroke-linecap:butt;stroke-linejoin:bevel;stroke-miterlimit:2.613;stroke-dasharray:none;stroke-opacity:1"
             id="path3277" />
          <path
             d="m 306.244,449.095 h 90.553 v 27.402 h -90.553 z"
             style="fill:#ffffff;fill-opacity:1;fill-rule:evenodd;stroke:#231f20;stroke-width:0.473;stroke-linecap:butt;stroke-linejoin:miter;stroke-miterlimit:2.613;stroke-dasharray:none;stroke-opacity:1"
             id="path3279" />
          <path
             d="m 311.393,489.28 h 90.553 v 27.402 h -90.553 z"
             style="fill:#ffffff;fill-opacity:1;fill-rule:evenodd;stroke:#231f20;stroke-width:0.473;stroke-linecap:butt;stroke-linejoin:miter;stroke-miterlimit:2.613;stroke-dasharray:none;stroke-opacity:1"
             id="path3281" />
          <path
             d="m 306.244,496.264 5.133,-6.98 h 90.553 l -5.133,6.98 z"
             style="fill:#e9e9e9;fill-opacity:1;fill-rule:evenodd;stroke:#231f20;stroke-width:0.473;stroke-linecap:butt;stroke-linejoin:bevel;stroke-miterlimit:2.613;stroke-dasharray:none;stroke-opacity:1"
             id="path3283" />
          <path
             d="m 396.853,496.264 5.133,-6.98 v 27.402 l -5.133,6.98 z"
             style="fill:#e9e9e9;fill-opacity:1;fill-rule:evenodd;stroke:#231f20;stroke-width:0.473;stroke-linecap:butt;stroke-linejoin:bevel;stroke-miterlimit:2.613;stroke-dasharray:none;stroke-opacity:1"
             id="path3285" />
          <path
             d="m 306.244,496.264 h 90.553 v 27.402 h -90.553 z"
             style="fill:#ffffff;fill-opacity:1;fill-rule:evenodd;stroke:#231f20;stroke-width:0.473;stroke-linecap:butt;stroke-linejoin:miter;stroke-miterlimit:2.613;stroke-dasharray:none;stroke-opacity:1"
             id="path3287" />
          <path
             d="m 311.393,533.431 h 90.553 v 27.402 h -90.553 z"
             style="fill:#ffffff;fill-opacity:1;fill-rule:evenodd;stroke:#231f20;stroke-width:0.473;stroke-linecap:butt;stroke-linejoin:miter;stroke-miterlimit:2.613;stroke-dasharray:none;stroke-opacity:1"
             id="path3289" />
          <path
             d="m 306.244,540.414 5.133,-6.979 h 90.553 l -5.133,6.979 z"
             style="fill:#e9e9e9;fill-opacity:1;fill-rule:evenodd;stroke:#231f20;stroke-width:0.473;stroke-linecap:butt;stroke-linejoin:bevel;stroke-miterlimit:2.613;stroke-dasharray:none;stroke-opacity:1"
             id="path3291" />
          <path
             d="m 396.853,540.414 5.133,-6.979 v 27.402 l -5.133,6.98 z"
             style="fill:#e9e9e9;fill-opacity:1;fill-rule:evenodd;stroke:#231f20;stroke-width:0.473;stroke-linecap:butt;stroke-linejoin:bevel;stroke-miterlimit:2.613;stroke-dasharray:none;stroke-opacity:1"
             id="path3293" />
          <path
             d="m 306.244,540.414 h 90.553 v 27.402 h -90.553 z"
             style="fill:#ffffff;fill-opacity:1;fill-rule:evenodd;stroke:#231f20;stroke-width:0.473;stroke-linecap:butt;stroke-linejoin:miter;stroke-miterlimit:2.613;stroke-dasharray:none;stroke-opacity:1"
             id="path3295" />
          <path
             d="m 163.193,451.403 c 9.58,0 17.394,7.814 17.394,17.394 0,9.581 -7.814,17.394 -17.394,17.394 -9.581,0 -17.395,-7.813 -17.395,-17.394 0,-9.58 7.814,-17.394 17.395,-17.394 z"
             style="fill:#ffffff;fill-opacity:1;fill-rule:evenodd;stroke:#231f20;stroke-width:0.473;stroke-linecap:butt;stroke-linejoin:miter;stroke-miterlimit:2.613;stroke-dasharray:none;stroke-opacity:1"
             id="path3297" />
          <path
             d="m 180.77,481.942 c 9.58,0 17.394,7.813 17.394,17.394 0,9.58 -7.814,17.394 -17.394,17.394 -9.58,0 -17.394,-7.814 -17.394,-17.394 0,-9.581 7.814,-17.394 17.394,-17.394 z"
             style="fill:#ffffff;fill-opacity:1;fill-rule:evenodd;stroke:#231f20;stroke-width:0.473;stroke-linecap:butt;stroke-linejoin:miter;stroke-miterlimit:2.613;stroke-dasharray:none;stroke-opacity:1"
             id="path3299" />
          <path
             d="m 215.925,481.942 c 9.58,0 17.394,7.813 17.394,17.394 0,9.58 -7.814,17.394 -17.394,17.394 -9.581,0 -17.394,-7.814 -17.394,-17.394 0,-9.581 7.813,-17.394 17.394,-17.394 z"
             style="fill:#ffffff;fill-opacity:1;fill-rule:evenodd;stroke:#231f20;stroke-width:0.473;stroke-linecap:butt;stroke-linejoin:miter;stroke-miterlimit:2.613;stroke-dasharray:none;stroke-opacity:1"
             id="path3301" />
          <path
             d="m 198.525,512.362 c 9.58,0 17.394,7.813 17.394,17.394 0,9.58 -7.814,17.394 -17.394,17.394 -9.58,0 -17.394,-7.814 -17.394,-17.394 0,-9.581 7.814,-17.394 17.394,-17.394 z"
             style="fill:#ffffff;fill-opacity:1;fill-rule:evenodd;stroke:#231f20;stroke-width:0.473;stroke-linecap:butt;stroke-linejoin:miter;stroke-miterlimit:2.613;stroke-dasharray:none;stroke-opacity:1"
             id="path3303" />
          <path
             d="m 198.347,451.403 c 9.581,0 17.394,7.814 17.394,17.394 0,9.581 -7.813,17.394 -17.394,17.394 -9.58,0 -17.394,-7.813 -17.394,-17.394 0,-9.58 7.814,-17.394 17.394,-17.394 z"
             style="fill:#ffffff;fill-opacity:1;fill-rule:evenodd;stroke:#231f20;stroke-width:0.473;stroke-linecap:butt;stroke-linejoin:miter;stroke-miterlimit:2.613;stroke-dasharray:none;stroke-opacity:1"
             id="path3305" />
          <path
             d="m 233.857,451.403 c 9.58,0 17.394,7.814 17.394,17.394 0,9.581 -7.814,17.394 -17.394,17.394 -9.58,0 -17.394,-7.813 -17.394,-17.394 0,-9.58 7.814,-17.394 17.394,-17.394 z"
             style="fill:#ffffff;fill-opacity:1;fill-rule:evenodd;stroke:#231f20;stroke-width:0.473;stroke-linecap:butt;stroke-linejoin:miter;stroke-miterlimit:2.613;stroke-dasharray:none;stroke-opacity:1"
             id="path3307" />
          <path
             d="m 321.6,541.361 c 7.088,0 12.87,5.782 12.87,12.871 0,7.088 -5.782,12.87 -12.87,12.87 -7.089,0 -12.871,-5.782 -12.871,-12.87 0,-7.089 5.782,-12.871 12.871,-12.871 z"
             style="fill:#ffffff;fill-opacity:1;fill-rule:evenodd;stroke:#231f20;stroke-width:0.473;stroke-linecap:butt;stroke-linejoin:miter;stroke-miterlimit:2.613;stroke-dasharray:none;stroke-opacity:1"
             id="path3309" />
          <path
             d="m 351.546,541.361 c 7.089,0 12.87,5.782 12.87,12.871 0,7.088 -5.781,12.87 -12.87,12.87 -7.088,0 -12.87,-5.782 -12.87,-12.87 0,-7.089 5.782,-12.871 12.87,-12.871 z"
             style="fill:#ffffff;fill-opacity:1;fill-rule:evenodd;stroke:#231f20;stroke-width:0.473;stroke-linecap:butt;stroke-linejoin:miter;stroke-miterlimit:2.613;stroke-dasharray:none;stroke-opacity:1"
             id="path3311" />
          <path
             d="m 381.73,541.361 c 7.088,0 12.87,5.782 12.87,12.871 0,7.088 -5.782,12.87 -12.87,12.87 -7.089,0 -12.871,-5.782 -12.871,-12.87 0,-7.089 5.782,-12.871 12.871,-12.871 z"
             style="fill:#ffffff;fill-opacity:1;fill-rule:evenodd;stroke:#231f20;stroke-width:0.473;stroke-linecap:butt;stroke-linejoin:miter;stroke-miterlimit:2.613;stroke-dasharray:none;stroke-opacity:1"
             id="path3313" />
          <path
             d="m 336.605,567.757 v -27.328 m 30.183,27.328 v -27.328"
             style="fill:none;stroke:#231f20;stroke-width:0.473;stroke-linecap:butt;stroke-linejoin:miter;stroke-miterlimit:2.613;stroke-dasharray:none;stroke-opacity:1"
             id="path3315" />
          <path
             d="m 321.6,497.211 c 7.088,0 12.87,5.781 12.87,12.87 0,7.089 -5.782,12.87 -12.87,12.87 -7.089,0 -12.871,-5.781 -12.871,-12.87 0,-7.089 5.782,-12.87 12.871,-12.87 z"
             style="fill:#ffffff;fill-opacity:1;fill-rule:evenodd;stroke:#231f20;stroke-width:0.473;stroke-linecap:butt;stroke-linejoin:miter;stroke-miterlimit:2.613;stroke-dasharray:none;stroke-opacity:1"
             id="path3317" />
          <path
             d="m 351.546,497.211 c 7.089,0 12.87,5.781 12.87,12.87 0,7.089 -5.781,12.87 -12.87,12.87 -7.088,0 -12.87,-5.781 -12.87,-12.87 0,-7.089 5.782,-12.87 12.87,-12.87 z"
             style="fill:#ffffff;fill-opacity:1;fill-rule:evenodd;stroke:#231f20;stroke-width:0.473;stroke-linecap:butt;stroke-linejoin:miter;stroke-miterlimit:2.613;stroke-dasharray:none;stroke-opacity:1"
             id="path3319" />
          <path
             d="m 381.73,497.211 c 7.088,0 12.87,5.781 12.87,12.87 0,7.089 -5.782,12.87 -12.87,12.87 -7.089,0 -12.871,-5.781 -12.871,-12.87 0,-7.089 5.782,-12.87 12.871,-12.87 z"
             style="fill:#ffffff;fill-opacity:1;fill-rule:evenodd;stroke:#231f20;stroke-width:0.473;stroke-linecap:butt;stroke-linejoin:miter;stroke-miterlimit:2.613;stroke-dasharray:none;stroke-opacity:1"
             id="path3321" />
          <path
             d="m 336.605,523.666 v -27.329 m 30.183,27.329 v -27.329"
             style="fill:none;stroke:#231f20;stroke-width:0.473;stroke-linecap:butt;stroke-linejoin:miter;stroke-miterlimit:2.613;stroke-dasharray:none;stroke-opacity:1"
             id="path3323" />
          <path
             d="m 321.6,450.042 c 7.088,0 12.87,5.781 12.87,12.87 0,7.089 -5.782,12.87 -12.87,12.87 -7.089,0 -12.871,-5.781 -12.871,-12.87 0,-7.089 5.782,-12.87 12.871,-12.87 z"
             style="fill:#ffffff;fill-opacity:1;fill-rule:evenodd;stroke:#231f20;stroke-width:0.473;stroke-linecap:butt;stroke-linejoin:miter;stroke-miterlimit:2.613;stroke-dasharray:none;stroke-opacity:1"
             id="path3325" />
          <path
             d="m 351.546,450.042 c 7.089,0 12.87,5.781 12.87,12.87 0,7.089 -5.781,12.87 -12.87,12.87 -7.088,0 -12.87,-5.781 -12.87,-12.87 0,-7.089 5.782,-12.87 12.87,-12.87 z"
             style="fill:#ffffff;fill-opacity:1;fill-rule:evenodd;stroke:#231f20;stroke-width:0.473;stroke-linecap:butt;stroke-linejoin:miter;stroke-miterlimit:2.613;stroke-dasharray:none;stroke-opacity:1"
             id="path3327" />
          <path
             d="m 381.73,450.042 c 7.088,0 12.87,5.781 12.87,12.87 0,7.089 -5.782,12.87 -12.87,12.87 -7.089,0 -12.871,-5.781 -12.871,-12.87 0,-7.089 5.782,-12.87 12.871,-12.87 z"
             style="fill:#ffffff;fill-opacity:1;fill-rule:evenodd;stroke:#231f20;stroke-width:0.473;stroke-linecap:butt;stroke-linejoin:miter;stroke-miterlimit:2.613;stroke-dasharray:none;stroke-opacity:1"
             id="path3329" />
          <path
             d="m 336.605,476.438 v -27.329 m 30.183,27.329 v -27.329"
             style="fill:none;stroke:#231f20;stroke-width:0.473;stroke-linecap:butt;stroke-linejoin:miter;stroke-miterlimit:2.613;stroke-dasharray:none;stroke-opacity:1"
             id="path3331" />
        </g>
        <text
           transform="matrix(1,0,0,-0.93521886,287.743,417.541)"
           style="font-variant:normal;font-weight:normal;font-size:7.425px;font-family:Swis721BT;-inkscape-font-specification:Swis721BT;writing-mode:lr-tb;fill:#231f20;fill-opacity:1;fill-rule:nonzero;stroke:none"
           id="text3335"><tspan
             x="0 4.6109252 6.4597502 10.55835 16.431524 22.341825 42.968475 73.262474 104.59598"
             y="0"
             sodipodi:role="line"
             id="tspan3333">pick#:123</tspan></text>
        <text
           transform="matrix(1,0,0,-0.93526762,202.484,509.632)"
           style="font-variant:normal;font-weight:normal;font-size:9.547px;font-family:Swis721BT;-inkscape-font-specification:Swis721BT;writing-mode:lr-tb;fill:#231f20;fill-opacity:1;fill-rule:nonzero;stroke:none"
           id="text3363"><tspan
             x="0"
             y="0"
             id="tspan3337">5</tspan><tspan
             x="-18.298735"
             y="31.456409"
             id="tspan3339">1</tspan><tspan
             x="157.95511"
             y="-24.847021"
             id="tspan3341">2</tspan><tspan
             x="157.95511"
             y="20.379026"
             id="tspan3343">2</tspan><tspan
             x="127.23287"
             y="69.522209"
             id="tspan3345">2</tspan><tspan
             x="189.28932"
             y="-24.847021"
             id="tspan3347">3</tspan><tspan
             x="127.11067"
             y="20.379026"
             id="tspan3349">3</tspan><tspan
             x="158.07732"
             y="69.522209"
             id="tspan3351">3</tspan><tspan
             x="127.66153"
             y="-24.847021"
             id="tspan3353">1</tspan><tspan
             x="190.08459"
             y="20.379026"
             id="tspan3355">1</tspan><tspan
             x="189.35042"
             y="69.522209"
             id="tspan3357">1</tspan><tspan
             x="18.297779"
             y="31.456409"
             id="tspan3359">3</tspan><tspan
             x="-36.353065 0.0019094 36.967892"
             y="63.158176"
             sodipodi:role="line"
             id="tspan3361">426</tspan></text>
        <g
           id="g3365"
           transform="scale(1.034,0.9671)">
          <path
             d="m 195.657,508.178 126.191,77.996 v -19.13 m -94.306,-55.173 153.962,85.826 v -30.763 m -167.745,-89.836 137.38,119.063 v -29.212 m -121.36,-57.183 92.067,20.127 V 523.06 M 214.904,475.136 351.139,529.94 v -7.238 m -153.481,-18.666 183.69,24.891 0.111,-6.241 m -185.651,-32.932 185.314,-8.902 v -5.681 m -148.857,30.207 119.029,-24.194 v -5.682 m -137.435,0.344 107.24,6.439 v -7.15"
             style="fill:none;stroke:#231f20;stroke-width:1.184;stroke-linecap:butt;stroke-linejoin:miter;stroke-miterlimit:2.613;stroke-dasharray:none;stroke-opacity:1"
             id="path3367" />
        </g>
      </g>
    </g>
  </g>
</svg>
