<?xml version="1.0" encoding="UTF-8" standalone="no"?>
<!-- Created with Inkscape (http://www.inkscape.org/) -->

<svg
   width="117.50317mm"
   height="65.646996mm"
   viewBox="0 0 117.50317 65.646996"
   version="1.1"
   id="svg2847"
   inkscape:version="1.1 (c4e8f9e, 2021-05-24)"
   sodipodi:docname="success_case1.svg"
   xmlns:inkscape="http://www.inkscape.org/namespaces/inkscape"
   xmlns:sodipodi="http://sodipodi.sourceforge.net/DTD/sodipodi-0.dtd"
   xmlns="http://www.w3.org/2000/svg"
   xmlns:svg="http://www.w3.org/2000/svg">
  <sodipodi:namedview
     id="namedview2849"
     pagecolor="#ffffff"
     bordercolor="#666666"
     borderopacity="1.0"
     inkscape:pageshadow="2"
     inkscape:pageopacity="0.0"
     inkscape:pagecheckerboard="0"
     inkscape:document-units="mm"
     showgrid="false"
     fit-margin-left="5"
     lock-margins="true"
     fit-margin-top="5"
     fit-margin-right="5"
     fit-margin-bottom="5"
     inkscape:zoom="0.7046647"
     inkscape:cx="89.404223"
     inkscape:cy="103.59537"
     inkscape:window-width="1729"
     inkscape:window-height="662"
     inkscape:window-x="0"
     inkscape:window-y="25"
     inkscape:window-maximized="0"
     inkscape:current-layer="layer1" />
  <defs
     id="defs2844" />
  <g
     inkscape:label="Layer 1"
     inkscape:groupmode="layer"
     id="layer1"
     transform="translate(-81.300249,-120.74541)">
    <g
       id="g2641"
       transform="matrix(0.35905721,0,0,-0.34660416,32.983126,206.1957)">
      <path
         d="M 162.695,85.306 H 286.81 V 221.768 H 162.695 Z"
         style="fill:#e9e9e9;fill-opacity:1;fill-rule:evenodd;stroke:#231f20;stroke-width:0.552;stroke-linecap:butt;stroke-linejoin:miter;stroke-miterlimit:2.613;stroke-dasharray:none;stroke-opacity:1"
         id="path2643" />
    </g>
    <g
       id="g2645"
       transform="matrix(0.35905721,0,0,-0.34660416,32.983126,206.1957)">
      <path
         d="M 148.768,95.372 162.707,85.305 H 286.822 L 272.883,95.372 Z"
         style="fill:#e9e9e9;fill-opacity:1;fill-rule:evenodd;stroke:#231f20;stroke-width:0.552;stroke-linecap:butt;stroke-linejoin:bevel;stroke-miterlimit:2.613;stroke-dasharray:none;stroke-opacity:1"
         id="path2647" />
    </g>
    <g
       id="g2649"
       transform="matrix(0.35905721,0,0,-0.34660416,32.983126,206.1957)">
      <path
         d="m 272.867,95.372 13.938,-10.067 v 136.462 l -13.938,10.067 z"
         style="fill:#e9e9e9;fill-opacity:1;fill-rule:evenodd;stroke:#231f20;stroke-width:0.552;stroke-linecap:butt;stroke-linejoin:bevel;stroke-miterlimit:2.613;stroke-dasharray:none;stroke-opacity:1"
         id="path2651" />
    </g>
    <g
       id="g2653"
       transform="matrix(0.35905721,0,0,-0.34660416,32.983126,206.1957)">
      <path
         d="M 148.768,95.372 H 272.883 V 231.834 H 148.768 Z"
         style="fill:#ffffff;fill-opacity:1;fill-rule:evenodd;stroke:#231f20;stroke-width:0.552;stroke-linecap:butt;stroke-linejoin:miter;stroke-miterlimit:2.613;stroke-dasharray:none;stroke-opacity:1"
         id="path2655" />
    </g>
    <g
       id="g2657"
       transform="matrix(0.35905721,0,0,-0.34660416,32.983126,206.1957)">
      <path
         d="m 342.086,85.306 h 105.487 v 31.921 H 342.086 Z"
         style="fill:#ffffff;fill-opacity:1;fill-rule:evenodd;stroke:#231f20;stroke-width:0.552;stroke-linecap:butt;stroke-linejoin:miter;stroke-miterlimit:2.613;stroke-dasharray:none;stroke-opacity:1"
         id="path2659" />
    </g>
    <g
       id="g2661"
       transform="matrix(0.35905721,0,0,-0.34660416,32.983126,206.1957)">
      <path
         d="m 336.088,93.442 5.98,-8.131 h 105.487 l -5.98,8.131 z"
         style="fill:#e9e9e9;fill-opacity:1;fill-rule:evenodd;stroke:#231f20;stroke-width:0.552;stroke-linecap:butt;stroke-linejoin:bevel;stroke-miterlimit:2.613;stroke-dasharray:none;stroke-opacity:1"
         id="path2663" />
    </g>
    <g
       id="g2665"
       transform="matrix(0.35905721,0,0,-0.34660416,32.983126,206.1957)">
      <path
         d="m 441.641,93.442 5.979,-8.131 v 31.921 l -5.979,8.131 z"
         style="fill:#e9e9e9;fill-opacity:1;fill-rule:evenodd;stroke:#231f20;stroke-width:0.552;stroke-linecap:butt;stroke-linejoin:bevel;stroke-miterlimit:2.613;stroke-dasharray:none;stroke-opacity:1"
         id="path2667" />
    </g>
    <g
       id="g2669"
       transform="matrix(0.35905721,0,0,-0.34660416,32.983126,206.1957)">
      <path
         d="m 336.088,93.442 h 105.487 v 31.921 H 336.088 Z"
         style="fill:#ffffff;fill-opacity:1;fill-rule:evenodd;stroke:#231f20;stroke-width:0.552;stroke-linecap:butt;stroke-linejoin:miter;stroke-miterlimit:2.613;stroke-dasharray:none;stroke-opacity:1"
         id="path2671" />
    </g>
    <g
       id="g2673"
       transform="matrix(0.35905721,0,0,-0.34660416,32.983126,206.1957)">
      <path
         d="m 169.445,96.13 c 11.16,0 20.262,9.103 20.262,20.263 0,11.16 -9.102,20.263 -20.262,20.263 -11.161,0 -20.263,-9.103 -20.263,-20.263 0,-11.16 9.102,-20.263 20.263,-20.263 z"
         style="fill:#ffffff;fill-opacity:1;fill-rule:evenodd;stroke:#231f20;stroke-width:0.552;stroke-linecap:butt;stroke-linejoin:miter;stroke-miterlimit:2.613;stroke-dasharray:none;stroke-opacity:1"
         id="path2675" />
    </g>
    <g
       id="g2677"
       transform="matrix(0.35905721,0,0,-0.34660416,32.983126,206.1957)">
      <path
         d="m 189.921,131.705 c 11.16,0 20.263,9.103 20.263,20.263 0,11.16 -9.103,20.263 -20.263,20.263 -11.16,0 -20.263,-9.103 -20.263,-20.263 0,-11.16 9.103,-20.263 20.263,-20.263 z"
         style="fill:#ffffff;fill-opacity:1;fill-rule:evenodd;stroke:#231f20;stroke-width:0.552;stroke-linecap:butt;stroke-linejoin:miter;stroke-miterlimit:2.613;stroke-dasharray:none;stroke-opacity:1"
         id="path2679" />
    </g>
    <g
       id="g2681"
       transform="matrix(0.35905721,0,0,-0.34660416,32.983126,206.1957)">
      <path
         d="m 230.873,131.705 c 11.161,0 20.263,9.103 20.263,20.263 0,11.16 -9.102,20.263 -20.263,20.263 -11.16,0 -20.262,-9.103 -20.262,-20.263 0,-11.16 9.102,-20.263 20.262,-20.263 z"
         style="fill:#ffffff;fill-opacity:1;fill-rule:evenodd;stroke:#231f20;stroke-width:0.552;stroke-linecap:butt;stroke-linejoin:miter;stroke-miterlimit:2.613;stroke-dasharray:none;stroke-opacity:1"
         id="path2683" />
    </g>
    <g
       id="g2685"
       transform="matrix(0.35905721,0,0,-0.34660416,32.983126,206.1957)">
      <path
         d="m 210.604,167.142 c 11.16,0 20.263,9.103 20.263,20.263 0,11.16 -9.103,20.263 -20.263,20.263 -11.16,0 -20.263,-9.103 -20.263,-20.263 0,-11.16 9.103,-20.263 20.263,-20.263 z"
         style="fill:#ffffff;fill-opacity:1;fill-rule:evenodd;stroke:#231f20;stroke-width:0.552;stroke-linecap:butt;stroke-linejoin:miter;stroke-miterlimit:2.613;stroke-dasharray:none;stroke-opacity:1"
         id="path2687" />
    </g>
    <g
       id="g2689"
       transform="matrix(0.35905721,0,0,-0.34660416,32.983126,206.1957)">
      <path
         d="m 210.397,96.13 c 11.16,0 20.263,9.103 20.263,20.263 0,11.16 -9.103,20.263 -20.263,20.263 -11.16,0 -20.263,-9.103 -20.263,-20.263 0,-11.16 9.103,-20.263 20.263,-20.263 z"
         style="fill:#ffffff;fill-opacity:1;fill-rule:evenodd;stroke:#231f20;stroke-width:0.552;stroke-linecap:butt;stroke-linejoin:miter;stroke-miterlimit:2.613;stroke-dasharray:none;stroke-opacity:1"
         id="path2691" />
    </g>
    <g
       id="g2693"
       transform="matrix(0.35905721,0,0,-0.34660416,32.983126,206.1957)">
      <path
         d="m 251.763,96.13 c 11.161,0 20.263,9.103 20.263,20.263 0,11.16 -9.102,20.263 -20.263,20.263 -11.16,0 -20.263,-9.103 -20.263,-20.263 0,-11.16 9.103,-20.263 20.263,-20.263 z"
         style="fill:#ffffff;fill-opacity:1;fill-rule:evenodd;stroke:#231f20;stroke-width:0.552;stroke-linecap:butt;stroke-linejoin:miter;stroke-miterlimit:2.613;stroke-dasharray:none;stroke-opacity:1"
         id="path2695" />
    </g>
    <g
       id="g2697"
       transform="matrix(0.35905721,0,0,-0.34660416,32.983126,206.1957)">
      <path
         d="m 353.976,94.545 c 8.258,0 14.993,6.735 14.993,14.992 0,8.258 -6.735,14.993 -14.993,14.993 -8.257,0 -14.992,-6.735 -14.992,-14.993 0,-8.257 6.735,-14.992 14.992,-14.992 z"
         style="fill:#ffffff;fill-opacity:1;fill-rule:evenodd;stroke:#231f20;stroke-width:0.552;stroke-linecap:butt;stroke-linejoin:miter;stroke-miterlimit:2.613;stroke-dasharray:none;stroke-opacity:1"
         id="path2699" />
    </g>
    <g
       id="g2701"
       transform="matrix(0.35905721,0,0,-0.34660416,32.983126,206.1957)">
      <path
         d="m 388.862,94.545 c 8.258,0 14.993,6.735 14.993,14.992 0,8.258 -6.735,14.993 -14.993,14.993 -8.258,0 -14.993,-6.735 -14.993,-14.993 0,-8.257 6.735,-14.992 14.993,-14.992 z"
         style="fill:#ffffff;fill-opacity:1;fill-rule:evenodd;stroke:#231f20;stroke-width:0.552;stroke-linecap:butt;stroke-linejoin:miter;stroke-miterlimit:2.613;stroke-dasharray:none;stroke-opacity:1"
         id="path2703" />
    </g>
    <g
       id="g2705"
       transform="matrix(0.35905721,0,0,-0.34660416,32.983126,206.1957)">
      <path
         d="m 424.023,94.545 c 8.258,0 14.993,6.735 14.993,14.992 0,8.258 -6.735,14.993 -14.993,14.993 -8.258,0 -14.993,-6.735 -14.993,-14.993 0,-8.257 6.735,-14.992 14.993,-14.992 z"
         style="fill:#ffffff;fill-opacity:1;fill-rule:evenodd;stroke:#231f20;stroke-width:0.552;stroke-linecap:butt;stroke-linejoin:miter;stroke-miterlimit:2.613;stroke-dasharray:none;stroke-opacity:1"
         id="path2707" />
    </g>
    <g
       id="g2709"
       transform="matrix(0.35905721,0,0,-0.34660416,32.983126,206.1957)">
      <path
         d="M 371.456,125.362 V 93.527 m 35.161,31.835 V 93.527"
         style="fill:none;stroke:#231f20;stroke-width:0.552;stroke-linecap:butt;stroke-linejoin:miter;stroke-miterlimit:2.613;stroke-dasharray:none;stroke-opacity:1"
         id="path2711" />
    </g>
    <text
       transform="scale(1.017788,0.98252287)"
       style="font-variant:normal;font-weight:normal;font-size:2.95106px;font-family:Swis721BT;-inkscape-font-specification:Swis721BT;writing-mode:lr-tb;fill:#231f20;fill-opacity:1;fill-rule:nonzero;stroke:none;stroke-width:0.346612"
       id="text2715"
       x="139.47346"
       y="184.02534"><tspan
         x="139.47346 141.30608 142.04088 143.66986 146.00415 148.3532 156.55122 168.59154 181.045"
         y="184.02534"
         sodipodi:role="line"
         id="tspan2713"
         style="stroke-width:0.346612">pick#:123</tspan></text>
    <text
       transform="scale(1.0177752,0.98253523)"
       style="font-variant:normal;font-weight:normal;font-size:3.79407px;font-family:Swis721BT;-inkscape-font-specification:Swis721BT;writing-mode:lr-tb;fill:#231f20;fill-opacity:1;fill-rule:nonzero;stroke:none;stroke-width:0.346617"
       id="text2727"
       x="105.59102"
       y="144.88925"><tspan
         x="105.59102"
         y="144.88925"
         id="tspan2717"
         style="stroke-width:0.346617">5</tspan><tspan
         x="98.318932"
         y="157.39032"
         id="tspan2719"
         style="stroke-width:0.346617">1</tspan><tspan
         x="168.36383 180.81595 156.32487"
         y="172.51802"
         sodipodi:role="line"
         id="tspan2721"
         style="stroke-width:0.346617">231</tspan><tspan
         x="112.86311"
         y="157.39032"
         id="tspan2723"
         style="stroke-width:0.346617">3</tspan><tspan
         x="91.144356 105.59216 120.28278"
         y="169.98851"
         sodipodi:role="line"
         id="tspan2725"
         style="stroke-width:0.346617">426</tspan></text>
    <g
       id="g2729"
       transform="matrix(0.35905721,0,0,-0.34660416,32.983126,206.1957)">
      <path
         d="m 207.263,162.268 145.755,-14.971 v -23.059 m -107.923,42.332 178.666,0.517 v -42.806 m -195.411,1.782 160.64,33.513 0.56,-35.406"
         style="fill:none;stroke:#231f20;stroke-width:1.379;stroke-linecap:butt;stroke-linejoin:miter;stroke-miterlimit:2.613;stroke-dasharray:none;stroke-opacity:1"
         id="path2731" />
    </g>
  </g>
</svg>
