<?xml version="1.0" standalone="no"?>
<!DOCTYPE svg PUBLIC "-//W3C//DTD SVG 20010904//EN" "http://www.w3.org/TR/2001/REC-SVG-20010904/DTD/svg10.dtd">
<!-- Created using Krita: https://krita.org -->
<svg xmlns="http://www.w3.org/2000/svg" 
    xmlns:xlink="http://www.w3.org/1999/xlink"
    xmlns:krita="http://krita.org/namespaces/svg/krita"
    xmlns:sodipodi="http://sodipodi.sourceforge.net/DTD/sodipodi-0.dtd"
    width="1620.72pt"
    height="2480.4pt"
    viewBox="0 0 1620.72 2480.4">
<defs/>
<path id="shape0" transform="translate(643.376746532156, 490.900176544767)" fill="none" stroke="#000000" stroke-width="28.8" stroke-linecap="square" stroke-linejoin="bevel" d="M0 0C265.284 136.361 265.284 280.16 0 431.397" sodipodi:nodetypes="cc"/><path id="shape0" transform="matrix(-0.999999967814605 0 0 0.999999967814605 1528.6876973913 476.579170791989)" fill="none" stroke="#000000" stroke-width="28.8" stroke-linecap="square" stroke-linejoin="bevel" d="M0 0C265.284 136.361 265.284 280.16 0 431.397" sodipodi:nodetypes="cc"/><path id="shape1" transform="matrix(0.99929276552485 0.0376027760902887 -0.0376027760902887 0.99929276552485 635.352349922961 931.265199982327)" fill="none" stroke="#000000" stroke-width="28.8" stroke-linecap="square" stroke-linejoin="miter" stroke-miterlimit="2" d="M0 0L43.2134 754.604" sodipodi:nodetypes="cc"/><path id="shape01" transform="matrix(0.999292746037041 0.0376027753569743 -0.0376027753569743 0.999292746037041 1538.28770342555 919.814246578576)" fill="none" stroke="#000000" stroke-width="28.8" stroke-linecap="square" stroke-linejoin="miter" stroke-miterlimit="2" d="M0 0L43.2134 754.604" sodipodi:nodetypes="cc"/><path id="shape2" transform="translate(654.48, 1698.56)" fill="none" stroke="#000000" stroke-width="28.8" stroke-linecap="square" stroke-linejoin="miter" stroke-miterlimit="2" d="M0 0L306.72 244.08" sodipodi:nodetypes="cc"/><path id="shape02" transform="matrix(-0.99999994281082 0 0 0.99999994281082 1546.82394255095 1688.91995810092)" fill="none" stroke="#000000" stroke-width="28.8" stroke-linecap="square" stroke-linejoin="miter" stroke-miterlimit="2" d="M0 0L306.72 244.08" sodipodi:nodetypes="cc"/><path id="shape3" transform="translate(1082.17477402156, 1832.98942542732)" fill="#000000" d="M8.62523 12.7306C13.5252 21.2176 15.9752 25.4611 15.9752 25.4611L1.27523 9.14026e-15L15.9752 25.4611C15.9573 25.5839 15.9454 25.6785 15.9396 25.745C15.6994 28.4737 15.4735 30.811 15.2638 33.5423C14.8331 39.1517 14.4488 43.9591 14.11 49.5748C13.9598 52.0645 13.9182 54.2033 13.8668 56.697C13.6449 67.4498 13.0731 76.669 13.3292 87.421C13.6256 99.8622 14.0635 110.547 15.4441 122.915C16.8809 135.786 18.8735 146.732 21.3686 159.441C23.5798 170.704 25.9319 180.271 28.8822 191.363C33.4749 208.63 37.7287 223.348 42.9141 240.447C44.2845 244.966 45.6287 248.808 47.604 253.097C52.0489 262.748 58.7095 276.388 67.5859 294.017L55.2411 272.635C64.4674 285.922 71.7658 295.991 77.1363 302.841C80.376 306.974 83.6591 310.105 87.4569 313.731C95.5603 321.47 102.724 327.873 111.12 335.293C114.942 338.672 118.421 341.33 122.356 344.576C123.442 345.473 124.997 346.751 127.021 348.41L141.188 372.948C139.015 371.024 137.343 369.545 136.173 368.509C131.97 364.79 128.302 361.674 124.162 357.883C115.61 350.052 108.244 343.373 99.9135 335.307C96.1375 331.651 92.8261 328.543 89.5859 324.405C84.1895 317.512 76.8562 307.383 67.5859 294.017L55.2411 272.635C46.2266 254.773 39.4617 240.952 34.9463 231.173C32.966 226.884 31.6131 223.042 30.2535 218.518C25.1804 201.638 21.0653 187.095 16.5771 170.05C13.6615 158.977 11.3523 149.427 9.10479 138.2C6.50524 125.214 4.32971 114.048 2.73469 100.901C1.20271 88.2738 0.647673 77.3596 0.181401 64.6482C-0.223248 53.6167 0.163316 44.1472 0.247964 33.1086C0.267151 30.6066 0.371261 28.4633 0.478052 25.9636C0.727316 20.1288 1.07503 15.1331 1.26524 9.29612C1.36657 6.18665 1.30753 3.51844 1.31087 0.40733C1.31097 0.311923 1.29909 0.176147 1.27523 9.14026e-15L15.9752 25.4611L1.27523 9.14026e-15L1.27523 9.14026e-15C1.27523 -2.2741e-07 3.72523 4.24352 8.62523 12.7306Z" sodipodi:nodetypes="ccccccccccccccccccccccccccccccccccccccccccc"/><path id="shape4" transform="translate(1208.80659521908, 2127.70476141771)" fill="#000000" d="M8.3534 72.2552C3.45341 63.7682 1.00341 59.5247 1.00341 59.5247L15.7034 84.9858L1.00341 59.5247C1.10768 57.3022 1.16634 55.5921 1.17938 54.3943C1.25082 47.8339 1.31006 42.2099 1.26341 35.6492C1.25476 34.4331 1.04581 33.3988 1.02144 32.1829C0.945998 28.4183 1.08034 25.1889 0.978346 21.4249C0.92695 19.5282 0.70584 17.9115 0.583428 16.0181C0.503658 14.7842 0.45942 13.7251 0.400715 12.4901C0.360617 11.6465 0.328217 10.9232 0.301136 10.0791C0.225689 7.72749 0.12531 4.36778 0 0L14.5934 25.2765C14.6135 29.4695 14.6363 32.6948 14.6617 34.9524C14.671 35.7768 14.6919 36.4833 14.7287 37.3069C14.7843 38.551 14.8558 39.6161 14.9256 40.8595C15.0286 42.6925 15.1896 44.2609 15.2225 46.0964C15.2892 49.8276 15.1518 53.0272 15.2102 56.7585C15.2291 57.969 15.4263 58.9991 15.4434 60.2097C15.5374 66.8718 15.4575 72.5835 15.5274 79.2459C15.5415 80.5858 15.6001 82.4991 15.7034 84.9858L1.00341 59.5247L15.7034 84.9858L15.7034 84.9858C15.7034 84.9858 13.2534 80.7423 8.3534 72.2552Z" sodipodi:nodetypes="ccccccccccccccccccccccccc"/><path id="shape5" transform="translate(1163.58897419295, 2177.53773148644)" fill="#000000" d="M58.761 32.9928L44.061 7.53169L58.761 32.9928C58.7639 32.931 58.7585 32.8857 58.7448 32.8568C58.7169 32.7977 58.6873 32.7382 58.6277 32.7114C58.1147 32.4808 57.666 32.2986 57.1292 32.1305C56.2285 31.8484 55.4469 31.6334 54.526 31.4267C52.5404 30.981 50.8268 30.6523 48.8286 30.2673C47.4616 30.004 46.2826 29.818 44.9119 29.5745C43.7348 29.3653 42.7323 29.1466 41.5493 28.9738C38.9271 28.5908 36.6635 28.3772 34.0424 27.987C33.3498 27.8839 32.7778 27.6778 32.0867 27.5651C30.3311 27.2787 28.8108 27.135 27.0554 26.8471C25.6732 26.6203 24.5102 26.3012 23.1248 26.0949C21.4831 25.8504 20.0674 25.6903 18.4126 25.5599C17.1692 25.4619 16.0958 25.5198 14.8509 25.4429C14.791 25.4392 14.7146 25.4002 14.6218 25.3257L0 0C0.0941845 0.0753259 0.171849 0.116645 0.232994 0.123956C1.52226 0.278129 2.63562 0.331625 3.92673 0.469563C5.58166 0.646371 7.0062 0.760372 8.64967 1.02317C10.0554 1.24795 11.2281 1.61278 12.6298 1.86122C14.3926 2.17364 15.9226 2.32471 17.6875 2.62496C18.3801 2.74277 18.9566 2.93085 19.648 3.05516C22.3351 3.53829 24.6545 3.86051 27.3386 4.36017C28.5587 4.58729 29.5828 4.88701 30.7995 5.13111C32.1692 5.40588 33.3496 5.6086 34.7269 5.84236C36.6653 6.17139 38.3289 6.44239 40.2725 6.73901C41.1021 6.86562 41.8214 6.91758 42.6498 7.05147C43.1194 7.12736 43.5203 7.20949 43.9783 7.33792C44.0291 7.35217 44.0565 7.40321 44.0772 7.45175C44.0847 7.46926 44.0793 7.4959 44.061 7.53169L58.761 32.9928L44.061 7.53169L44.061 7.53169Z" sodipodi:nodetypes="cccccccccccccccccccccccccccccccccccc"/><text id="shape6" krita:useRichText="true" krita:textVersion="2" transform="translate(1076.47386061081, 205.394956930305)" fill="#000000" stroke-opacity="0" stroke="#000000" stroke-width="0" stroke-linecap="square" stroke-linejoin="bevel" font-family="Helvetica" font-size="144" font-size-adjust="0.522816" font-stretch="normal" letter-spacing="0" word-spacing="0"><tspan x="0">3.7</tspan></text><path id="shape7" transform="translate(1092.06462941306, 185.903161085583)" fill="#000000" d="M0 0L14.7 25.4611" sodipodi:nodetypes="cc"/><path id="shape03" transform="matrix(-1.41176181412258 0 0 1.12534164344022 1169.79523884103 239.82762725137)" fill="#000000" stroke-opacity="0" stroke="#000000" stroke-width="0" stroke-linecap="square" stroke-linejoin="bevel" d="M7.32593 16.4438C11.4878 27.4062 13.5687 32.8874 13.5687 32.8874L1.08313 1.18061e-14L13.5687 32.8874C13.5535 33.0461 13.5434 33.1683 13.5385 33.2541C13.3345 36.7787 13.1426 39.7978 12.9645 43.3257C12.5987 50.5712 12.2722 56.7808 11.9845 64.0345C11.8569 67.2504 11.8216 70.013 11.7779 73.234C11.5894 87.1232 11.1038 99.0314 11.3213 112.919C11.573 128.989 11.945 142.791 13.1176 158.766C14.338 175.391 16.0304 189.53 18.1496 205.946C20.0278 220.494 22.0255 232.851 24.5314 247.179C28.4323 269.482 32.0453 288.493 36.4495 310.579C37.6135 316.416 38.7552 321.379 40.433 326.919C44.2083 339.385 49.8655 357.003 57.4048 379.774L46.9196 352.156C54.7561 369.318 60.955 382.324 65.5165 391.172C68.2682 396.51 71.0567 400.555 74.2824 405.238C81.1651 415.234 87.2497 423.505 94.3809 433.089C97.6272 437.454 100.582 440.887 103.924 445.08C104.847 446.239 106.168 447.889 107.887 450.032L119.92 481.727C118.074 479.242 116.654 477.332 115.66 475.994C112.09 471.19 108.975 467.165 105.458 462.268C98.1946 452.153 91.9382 443.526 84.8626 433.107C81.6554 428.385 78.8428 424.37 76.0907 419.026C71.5072 410.122 65.2786 397.039 57.4048 379.774L46.9196 352.156C39.2631 329.084 33.5172 311.231 29.682 298.6C28 293.06 26.8509 288.098 25.6961 282.254C21.3872 260.451 17.892 241.666 14.0799 219.649C11.6035 205.346 9.6422 193.011 7.73325 178.509C5.52529 161.736 3.67748 147.313 2.32274 130.331C1.02153 114.021 0.550108 99.9234 0.154075 83.5044C-0.189618 69.2553 0.138714 57.0238 0.210611 42.7655C0.226907 39.5338 0.315334 36.7653 0.406038 33.5365C0.617753 25.9998 0.913088 19.547 1.07464 12.0076C1.16071 7.99114 1.11056 4.54468 1.1134 0.526138C1.11349 0.402903 1.1034 0.227525 1.08313 1.18061e-14L13.5687 32.8874L1.08313 1.18061e-14L1.08313 1.18061e-14C1.08313 -2.9374e-07 3.16406 5.48124 7.32593 16.4438Z" sodipodi:nodetypes="ccccccccccccccccccccccccccccccccccccccccccc"/><path id="shape1" transform="matrix(-1.41176181412258 0 0 1.12534164344022 1016.04729915631 688.896881427517)" fill="#000000" stroke-opacity="0" stroke="#000000" stroke-width="0" stroke-linecap="square" stroke-linejoin="bevel" d="M8.3534 72.2552C3.45341 63.7682 1.00341 59.5247 1.00341 59.5247L15.7034 84.9858L1.00341 59.5247C1.10768 57.3022 1.16634 55.5921 1.17938 54.3943C1.25082 47.8339 1.31006 42.2099 1.26341 35.6492C1.25476 34.4331 1.04581 33.3988 1.02144 32.1829C0.945998 28.4183 1.08034 25.1889 0.978346 21.4249C0.92695 19.5282 0.70584 17.9115 0.583428 16.0181C0.503658 14.7842 0.45942 13.7251 0.400715 12.4901C0.360617 11.6465 0.328217 10.9232 0.301136 10.0791C0.225689 7.72749 0.12531 4.36778 0 0L14.5934 25.2765C14.6135 29.4695 14.6363 32.6948 14.6617 34.9524C14.671 35.7768 14.6919 36.4833 14.7287 37.3069C14.7843 38.551 14.8558 39.6161 14.9256 40.8595C15.0286 42.6925 15.1896 44.2609 15.2225 46.0964C15.2892 49.8276 15.1518 53.0272 15.2102 56.7585C15.2291 57.969 15.4263 58.9991 15.4434 60.2097C15.5374 66.8718 15.4575 72.5835 15.5274 79.2459C15.5415 80.5858 15.6001 82.4991 15.7034 84.9858L1.00341 59.5247L15.7034 84.9858L15.7034 84.9858C15.7034 84.9858 13.2534 80.7423 8.3534 72.2552Z" sodipodi:nodetypes="ccccccccccccccccccccccccc"/><path id="shape2" transform="matrix(-1.41176181412258 0 0 1.12534164344022 1079.88380984647 744.975997862168)" fill="#000000" stroke-opacity="0" stroke="#000000" stroke-width="0" stroke-linecap="square" stroke-linejoin="bevel" d="M58.761 32.9928L44.061 7.53169L58.761 32.9928C58.7639 32.931 58.7585 32.8857 58.7448 32.8568C58.7169 32.7977 58.6873 32.7382 58.6277 32.7114C58.1147 32.4808 57.666 32.2986 57.1292 32.1305C56.2285 31.8484 55.4469 31.6334 54.526 31.4267C52.5404 30.981 50.8268 30.6523 48.8286 30.2673C47.4616 30.004 46.2826 29.818 44.9119 29.5745C43.7348 29.3653 42.7323 29.1466 41.5493 28.9738C38.9271 28.5908 36.6635 28.3772 34.0424 27.987C33.3498 27.8839 32.7778 27.6778 32.0867 27.5651C30.3311 27.2787 28.8108 27.135 27.0554 26.8471C25.6732 26.6203 24.5102 26.3012 23.1248 26.0949C21.4831 25.8504 20.0674 25.6903 18.4126 25.5599C17.1692 25.4619 16.0958 25.5198 14.8509 25.4429C14.791 25.4392 14.7146 25.4002 14.6218 25.3257L0 0C0.0941845 0.0753259 0.171849 0.116645 0.232994 0.123956C1.52226 0.278129 2.63562 0.331625 3.92673 0.469563C5.58166 0.646371 7.0062 0.760372 8.64967 1.02317C10.0554 1.24795 11.2281 1.61278 12.6298 1.86122C14.3926 2.17364 15.9226 2.32471 17.6875 2.62496C18.3801 2.74277 18.9566 2.93085 19.648 3.05516C22.3351 3.53829 24.6545 3.86051 27.3386 4.36017C28.5587 4.58729 29.5828 4.88701 30.7995 5.13111C32.1692 5.40588 33.3496 5.6086 34.7269 5.84236C36.6653 6.17139 38.3289 6.44239 40.2725 6.73901C41.1021 6.86562 41.8214 6.91758 42.6498 7.05147C43.1194 7.12736 43.5203 7.20949 43.9783 7.33792C44.0291 7.35217 44.0565 7.40321 44.0772 7.45175C44.0847 7.46926 44.0793 7.4959 44.061 7.53169L58.761 32.9928L44.061 7.53169L44.061 7.53169Z" sodipodi:nodetypes="cccccccccccccccccccccccccccccccccccc"/><text id="shape8" krita:useRichText="true" krita:textVersion="2" transform="translate(46.1938919342208, 212.324040720439)" fill="#000000" stroke-opacity="0" stroke="#000000" stroke-width="0" stroke-linecap="square" stroke-linejoin="bevel" font-family="Helvetica" font-size="144" font-size-adjust="0.522816" font-stretch="normal" font-style="italic" font-weight="300" kerning="0" letter-spacing="0" word-spacing="0"><tspan x="0">Argument:</tspan></text><text id="shape9" krita:useRichText="true" krita:textVersion="2" transform="translate(185.943429913861, 2428.3068128426)" fill="#000000" stroke-opacity="0" stroke="#000000" stroke-width="0" stroke-linecap="square" stroke-linejoin="bevel" font-family="Helvetica" font-size="144" font-size-adjust="0.522816" font-stretch="normal" font-style="italic" font-weight="300" letter-spacing="0" word-spacing="0"><tspan x="0">Return value:</tspan></text><text id="shape10" krita:useRichText="true" krita:textVersion="2" transform="translate(73.9362568519969, 1025.33653876273)" fill="#000000" stroke-opacity="0" stroke="#000000" stroke-width="0" stroke-linecap="square" stroke-linejoin="bevel" font-family="Helvetica" font-size="144" font-size-adjust="0.522816" font-stretch="normal" font-style="italic" font-weight="300" letter-spacing="0" word-spacing="0"><tspan x="0">Name:</tspan></text><text id="shape11" krita:useRichText="true" krita:textVersion="2" transform="translate(118.988316366484, 1241.98913077525)" fill="#000000" stroke-opacity="0" stroke="#000000" stroke-width="0" stroke-linecap="square" stroke-linejoin="bevel" font-family="American Typewriter" font-size="144" font-size-adjust="0.433409" font-stretch="normal" font-weight="300" kerning="0" letter-spacing="0" word-spacing="0"><tspan x="0">round</tspan></text><path id="shape12" transform="translate(783.039920877641, 1030.71681444981)" fill="#000000" d="M241.703 20.1422C236.803 11.6551 234.353 7.41159 234.353 7.41159C234.469 7.33358 234.562 7.28488 234.633 7.26549C237.041 6.60857 239.098 6.01254 241.531 5.45357C246.265 4.36571 250.289 3.19197 255.106 2.56142C264.745 1.29958 273.048 0.198517 282.769 0.0553463C295.401 -0.130708 306.29 0.0951424 318.831 1.62285C337.385 3.88306 353.322 6.22484 371.43 10.8558C385.427 14.4354 397.528 18.0753 410.212 24.9926C421.907 31.3704 430.602 39.1819 440.237 48.3806C452.273 59.8718 461.842 70.5937 471.878 83.8679C478.167 92.1879 486.099 104.801 495.672 121.708L505.719 139.111C518.532 163.175 527.563 182.042 532.811 195.71C540.363 215.377 546.126 232.729 549.643 253.501C553.287 275.015 554.389 293.962 553.14 315.747C551.94 336.692 548.933 354.74 542.694 374.77C536.341 395.164 528.154 411.85 517.447 430.333C506.892 448.554 496.832 463.937 482.245 479.123C471.496 490.313 459.903 497.744 446.026 504.686C430.623 512.391 416.151 516.366 399.442 520.545C385.951 523.919 373.964 524.971 360.11 526.174C337.118 528.169 317.32 530.709 294.265 529.672C255.225 527.918 221.795 524.34 183.197 518.223C162.896 515.006 145.854 509.877 126.457 503.077C109.63 497.178 95.3758 491.173 80.0485 482.062C66.8216 474.2 56.0444 466.095 45.4565 454.929C39.0487 448.172 31.5696 437.17 23.0193 421.923L12.2022 403.187C6.29553 388.717 2.66028 377.367 1.29645 369.137C-0.461624 358.528 -0.457882 348.992 1.46835 338.411C3.16812 329.075 6.23873 321.126 11.478 313.213C16.6835 305.352 23.1223 299.959 30.6708 294.31C37.7915 288.98 44.5675 285.024 52.9839 282.147C65.0003 278.041 75.9036 276.431 88.4636 274.558C94.9237 273.595 100.601 273.658 107.119 274.075C118.783 274.822 128.948 275.078 140.296 277.878C153.799 281.209 164.825 286.055 177.635 291.473C182.67 293.603 186.746 296.081 191.112 299.372C199.076 305.372 205.941 310.624 212.737 317.921C218.839 324.473 222.809 331.17 227.708 338.665C229.32 341.131 231.284 344.855 233.599 349.836L246.429 372.059C248.674 376.946 250.323 380.737 251.378 383.432C253.669 389.29 255.728 394.294 257.488 400.333C260.255 409.824 261.939 418.146 264.296 427.747C266.357 436.145 268.118 443.344 270.11 451.759C272.315 461.069 273.97 469.106 276.287 478.39C278.702 488.064 280.332 496.506 283.629 505.916C292.76 531.977 301.446 554.012 311.758 579.629C316.287 590.879 320.985 600.174 326.016 611.208C328.134 615.853 330.033 619.795 332.182 624.425C334.047 628.443 335.587 631.915 337.485 635.917C340.315 641.883 342.856 646.942 345.692 652.905C347.625 656.97 349.32 660.439 351.113 664.568C351.785 666.115 352.192 667.509 352.73 669.108C353.762 672.178 354.825 674.761 355.598 677.906C355.991 679.508 356.007 680.95 356.045 682.6C356.074 683.859 355.97 684.943 355.787 686.188C354.907 692.154 354.102 697.262 353.008 703.192C352.683 704.951 352.199 706.414 351.734 708.141C350.865 711.373 350.059 714.126 349.195 717.359C348.841 718.686 348.658 719.855 348.254 721.168C347.173 724.683 346.051 727.635 344.955 731.146C344.715 731.915 344.584 732.596 344.439 733.388C344.21 734.642 344.159 735.742 343.888 736.987C343.75 737.622 343.46 738.117 343.275 738.74C342.98 739.731 342.734 740.584 342.519 741.596C342.196 743.12 341.961 744.436 341.738 745.978C341.601 746.92 341.778 747.779 341.493 748.688C341.192 749.643 340.557 750.297 340.099 751.187C339.74 751.884 339.439 752.488 339.16 753.22C338.705 754.411 338.475 755.489 338.005 756.674C337.915 756.902 337.748 757.053 337.574 757.226C337.448 757.35 337.333 757.491 337.157 757.513C337.001 757.533 336.782 757.484 336.499 757.364L321.993 732.239C322.259 732.304 322.465 732.329 322.609 732.314C322.786 732.297 322.946 732.242 323.084 732.129C323.274 731.973 323.411 731.797 323.513 731.574C324.019 730.474 324.343 729.485 324.812 728.369C325.119 727.638 325.418 727.028 325.73 726.299C326.155 725.304 326.642 724.491 326.919 723.445C327.158 722.539 327.032 721.704 327.189 720.78C327.44 719.302 327.735 718.049 328.082 716.59C328.319 715.594 328.581 714.755 328.858 713.77C329.043 713.112 329.268 712.565 329.4 711.894C329.649 710.641 329.715 709.541 329.945 708.284C330.09 707.497 330.199 706.811 330.471 706.058C331.665 702.75 332.936 700.007 334.127 696.698C334.577 695.446 334.785 694.317 335.154 693.039C336.069 689.872 336.905 687.173 337.796 683.999C338.278 682.28 338.772 680.821 339.076 679.061C340.121 673.006 340.842 667.787 341.645 661.695C341.814 660.416 341.897 659.303 341.85 658.014C341.789 656.324 341.747 654.85 341.339 653.209C340.556 650.06 339.485 647.475 338.462 644.396C337.961 642.885 337.604 641.562 336.984 640.096C335.382 636.307 333.862 633.123 332.119 629.396C329.512 623.822 327.165 619.098 324.557 613.525C322.778 609.722 321.339 606.423 319.586 602.608C317.518 598.11 315.679 594.285 313.641 589.774C308.828 579.121 304.364 570.132 300.012 559.284C289.692 533.56 280.911 511.468 271.736 485.315C268.44 475.921 266.852 467.483 264.417 457.83C262.03 448.371 260.258 440.196 257.961 430.715C255.892 422.177 254.098 414.864 251.941 406.348C249.427 396.426 247.531 387.847 244.615 378.036C242.823 372.006 240.793 366.993 238.504 361.134C237.458 358.457 235.823 354.691 233.599 349.836L246.429 372.059C244.1 367.054 242.125 363.311 240.505 360.831C235.566 353.268 231.554 346.522 225.421 339.891C218.514 332.424 211.582 326.986 203.494 320.817C199.131 317.489 195.033 315.011 189.983 312.862C177.152 307.401 166.087 302.599 152.576 299.148C141.109 296.218 130.85 295.648 119.05 294.741C112.52 294.239 106.812 294.121 100.341 295.131C87.8471 297.081 77.06 299.009 65.1148 303.159C56.7111 306.078 49.8501 309.853 42.7046 315.153C35.1339 320.768 28.7649 326.213 23.4951 334.028C18.2451 341.813 15.0704 349.613 13.2549 358.826C11.2217 369.145 11.0804 378.476 12.6888 388.869C13.9245 396.854 17.3681 407.872 23.0193 421.923L12.2022 403.187C20.9387 418.742 28.5588 429.988 35.0623 436.926C45.8638 448.449 56.8137 456.886 70.2789 465.141C85.8323 474.675 100.305 481.057 117.408 487.404C137.07 494.701 154.302 500.526 174.985 503.999C213.596 510.483 247.111 514.112 286.228 515.752C309.132 516.712 328.8 513.959 351.581 511.401C365.165 509.875 376.816 507.897 389.948 504.102C406.411 499.344 420.657 494.987 435.842 487.047C449.6 479.853 461.134 472.407 471.92 461.241C486.493 446.154 496.902 431.104 507.413 412.952C518.178 394.36 525.953 377.374 532.357 356.867C538.554 337.025 541.929 319.217 543.164 298.466C544.464 276.61 543.215 257.6 539.547 236.014C536.021 215.26 530.282 197.917 522.738 178.263C517.496 164.605 508.474 145.754 495.672 121.708L505.719 139.111C496.507 122.841 488.858 110.716 482.772 102.738C472.972 89.8903 463.627 79.5171 451.836 68.4697C442.437 59.6642 433.836 52.3642 422.493 46.2639C409.652 39.3577 397.57 35.3858 383.463 31.6983C365.334 26.9594 349.372 24.4507 330.76 22.2847C318.359 20.8415 307.571 20.8207 295.101 21.415C285.605 21.8675 277.534 23.3926 268.214 25.2652C263.58 26.1964 259.769 27.7051 255.357 29.4004C253.106 30.2649 251.347 31.3938 249.235 32.5569C249.161 32.5979 249.1 32.7032 249.053 32.8727L249.053 32.8727C249.053 32.8727 246.603 28.6292 241.703 20.1422Z" sodipodi:nodetypes="ccccccccccccccccccccccccccccccccccccccccccccccccccccccccccccccccccccccccccccccccccccccccccccccccccccccccccccccccccccccccccccccccccccccccccccccccccccccccc"/><text id="shape13" krita:useRichText="true" krita:textVersion="2" transform="translate(807.277306186374, 908.762036021926)" fill="#000000" stroke-opacity="0" stroke="#000000" stroke-width="0" stroke-linecap="square" stroke-linejoin="bevel" font-family="Helvetica" font-size="96" font-size-adjust="0.522816" font-stretch="normal" kerning="0" letter-spacing="0" word-spacing="0"><tspan x="0">round to</tspan><tspan x="0" dy="96">nearest integer</tspan></text><text id="shape14" krita:useRichText="true" krita:textVersion="2" transform="translate(1315.73866875489, 2424.90734534064)" fill="#000000" stroke-opacity="0" stroke="#000000" stroke-width="0" stroke-linecap="square" stroke-linejoin="bevel" font-family="Helvetica" font-size="144" font-size-adjust="0.522816" font-stretch="normal" font-weight="300" letter-spacing="0" word-spacing="0"><tspan x="0">3</tspan></text>
</svg>
