<?xml version="1.0" encoding="UTF-8" standalone="no"?>
<!-- Created using Krita: https://krita.org -->

<svg
   width="1620.72pt"
   height="2480.4pt"
   viewBox="0 0 1620.72 2480.4"
   version="1.1"
   id="svg51"
   sodipodi:docname="sample_pl.svg"
   inkscape:version="1.2.2 (b0a8486, 2022-12-01)"
   xmlns:inkscape="http://www.inkscape.org/namespaces/inkscape"
   xmlns:sodipodi="http://sodipodi.sourceforge.net/DTD/sodipodi-0.dtd"
   xmlns="http://www.w3.org/2000/svg"
   xmlns:svg="http://www.w3.org/2000/svg"
   xmlns:krita="http://krita.org/namespaces/svg/krita">
  <sodipodi:namedview
     id="namedview53"
     pagecolor="#ffffff"
     bordercolor="#666666"
     borderopacity="1.0"
     inkscape:showpageshadow="2"
     inkscape:pageopacity="0.0"
     inkscape:pagecheckerboard="0"
     inkscape:deskcolor="#d1d1d1"
     inkscape:document-units="pt"
     showgrid="false"
     inkscape:zoom="0.24824626"
     inkscape:cx="733.14297"
     inkscape:cy="1043.3188"
     inkscape:window-width="1231"
     inkscape:window-height="862"
     inkscape:window-x="0"
     inkscape:window-y="25"
     inkscape:window-maximized="0"
     inkscape:current-layer="svg51" />
  <defs
     id="defs9" />
  <path
     id="shape0"
     fill="none"
     stroke="#000000"
     stroke-width="28.8"
     stroke-linecap="square"
     stroke-linejoin="bevel"
     d="M0 0C265.284 136.361 265.284 280.16 0 431.397"
     sodipodi:nodetypes="cc"
     transform="translate(643.376746532156, 490.900176544767)" />
  <path
     id="path12"
     transform="matrix(-0.999999967814605 0 0 0.999999967814605 1528.6876973913 476.579170791989)"
     fill="none"
     stroke="#000000"
     stroke-width="28.8"
     stroke-linecap="square"
     stroke-linejoin="bevel"
     d="M0 0C265.284 136.361 265.284 280.16 0 431.397"
     sodipodi:nodetypes="cc" />
  <path
     id="shape1"
     transform="matrix(0.99929276552485 0.0376027760902887 -0.0376027760902887 0.99929276552485 635.352349922961 931.265199982327)"
     fill="none"
     stroke="#000000"
     stroke-width="28.8"
     stroke-linecap="square"
     stroke-linejoin="miter"
     stroke-miterlimit="2"
     d="M0 0L43.2134 754.604"
     sodipodi:nodetypes="cc" />
  <path
     id="shape01"
     transform="matrix(0.999292746037041 0.0376027753569743 -0.0376027753569743 0.999292746037041 1538.28770342555 919.814246578576)"
     fill="none"
     stroke="#000000"
     stroke-width="28.8"
     stroke-linecap="square"
     stroke-linejoin="miter"
     stroke-miterlimit="2"
     d="M0 0L43.2134 754.604"
     sodipodi:nodetypes="cc" />
  <path
     id="shape2"
     transform="translate(654.48, 1698.56)"
     fill="none"
     stroke="#000000"
     stroke-width="28.8"
     stroke-linecap="square"
     stroke-linejoin="miter"
     stroke-miterlimit="2"
     d="M0 0L306.72 244.08"
     sodipodi:nodetypes="cc" />
  <path
     id="shape02"
     transform="matrix(-0.99999994281082 0 0 0.99999994281082 1546.82394255095 1688.91995810092)"
     fill="none"
     stroke="#000000"
     stroke-width="28.8"
     stroke-linecap="square"
     stroke-linejoin="miter"
     stroke-miterlimit="2"
     d="M0 0L306.72 244.08"
     sodipodi:nodetypes="cc" />
  <path
     id="shape3"
     transform="translate(1082.17477402156, 1832.98942542732)"
     fill="#000000"
     d="M8.62523 12.7306C13.5252 21.2176 15.9752 25.4611 15.9752 25.4611L1.27523 9.14026e-15L15.9752 25.4611C15.9573 25.5839 15.9454 25.6785 15.9396 25.745C15.6994 28.4737 15.4735 30.811 15.2638 33.5423C14.8331 39.1517 14.4488 43.9591 14.11 49.5748C13.9598 52.0645 13.9182 54.2033 13.8668 56.697C13.6449 67.4498 13.0731 76.669 13.3292 87.421C13.6256 99.8622 14.0635 110.547 15.4441 122.915C16.8809 135.786 18.8735 146.732 21.3686 159.441C23.5798 170.704 25.9319 180.271 28.8822 191.363C33.4749 208.63 37.7287 223.348 42.9141 240.447C44.2845 244.966 45.6287 248.808 47.604 253.097C52.0489 262.748 58.7095 276.388 67.5859 294.017L55.2411 272.635C64.4674 285.922 71.7658 295.991 77.1363 302.841C80.376 306.974 83.6591 310.105 87.4569 313.731C95.5603 321.47 102.724 327.873 111.12 335.293C114.942 338.672 118.421 341.33 122.356 344.576C123.442 345.473 124.997 346.751 127.021 348.41L141.188 372.948C139.015 371.024 137.343 369.545 136.173 368.509C131.97 364.79 128.302 361.674 124.162 357.883C115.61 350.052 108.244 343.373 99.9135 335.307C96.1375 331.651 92.8261 328.543 89.5859 324.405C84.1895 317.512 76.8562 307.383 67.5859 294.017L55.2411 272.635C46.2266 254.773 39.4617 240.952 34.9463 231.173C32.966 226.884 31.6131 223.042 30.2535 218.518C25.1804 201.638 21.0653 187.095 16.5771 170.05C13.6615 158.977 11.3523 149.427 9.10479 138.2C6.50524 125.214 4.32971 114.048 2.73469 100.901C1.20271 88.2738 0.647673 77.3596 0.181401 64.6482C-0.223248 53.6167 0.163316 44.1472 0.247964 33.1086C0.267151 30.6066 0.371261 28.4633 0.478052 25.9636C0.727316 20.1288 1.07503 15.1331 1.26524 9.29612C1.36657 6.18665 1.30753 3.51844 1.31087 0.40733C1.31097 0.311923 1.29909 0.176147 1.27523 9.14026e-15L15.9752 25.4611L1.27523 9.14026e-15L1.27523 9.14026e-15C1.27523 -2.2741e-07 3.72523 4.24352 8.62523 12.7306Z"
     sodipodi:nodetypes="ccccccccccccccccccccccccccccccccccccccccccc" />
  <path
     id="shape4"
     transform="translate(1208.80659521908, 2127.70476141771)"
     fill="#000000"
     d="M8.3534 72.2552C3.45341 63.7682 1.00341 59.5247 1.00341 59.5247L15.7034 84.9858L1.00341 59.5247C1.10768 57.3022 1.16634 55.5921 1.17938 54.3943C1.25082 47.8339 1.31006 42.2099 1.26341 35.6492C1.25476 34.4331 1.04581 33.3988 1.02144 32.1829C0.945998 28.4183 1.08034 25.1889 0.978346 21.4249C0.92695 19.5282 0.70584 17.9115 0.583428 16.0181C0.503658 14.7842 0.45942 13.7251 0.400715 12.4901C0.360617 11.6465 0.328217 10.9232 0.301136 10.0791C0.225689 7.72749 0.12531 4.36778 0 0L14.5934 25.2765C14.6135 29.4695 14.6363 32.6948 14.6617 34.9524C14.671 35.7768 14.6919 36.4833 14.7287 37.3069C14.7843 38.551 14.8558 39.6161 14.9256 40.8595C15.0286 42.6925 15.1896 44.2609 15.2225 46.0964C15.2892 49.8276 15.1518 53.0272 15.2102 56.7585C15.2291 57.969 15.4263 58.9991 15.4434 60.2097C15.5374 66.8718 15.4575 72.5835 15.5274 79.2459C15.5415 80.5858 15.6001 82.4991 15.7034 84.9858L1.00341 59.5247L15.7034 84.9858L15.7034 84.9858C15.7034 84.9858 13.2534 80.7423 8.3534 72.2552Z"
     sodipodi:nodetypes="ccccccccccccccccccccccccc" />
  <path
     id="shape5"
     transform="translate(1163.58897419295, 2177.53773148644)"
     fill="#000000"
     d="M58.761 32.9928L44.061 7.53169L58.761 32.9928C58.7639 32.931 58.7585 32.8857 58.7448 32.8568C58.7169 32.7977 58.6873 32.7382 58.6277 32.7114C58.1147 32.4808 57.666 32.2986 57.1292 32.1305C56.2285 31.8484 55.4469 31.6334 54.526 31.4267C52.5404 30.981 50.8268 30.6523 48.8286 30.2673C47.4616 30.004 46.2826 29.818 44.9119 29.5745C43.7348 29.3653 42.7323 29.1466 41.5493 28.9738C38.9271 28.5908 36.6635 28.3772 34.0424 27.987C33.3498 27.8839 32.7778 27.6778 32.0867 27.5651C30.3311 27.2787 28.8108 27.135 27.0554 26.8471C25.6732 26.6203 24.5102 26.3012 23.1248 26.0949C21.4831 25.8504 20.0674 25.6903 18.4126 25.5599C17.1692 25.4619 16.0958 25.5198 14.8509 25.4429C14.791 25.4392 14.7146 25.4002 14.6218 25.3257L0 0C0.0941845 0.0753259 0.171849 0.116645 0.232994 0.123956C1.52226 0.278129 2.63562 0.331625 3.92673 0.469563C5.58166 0.646371 7.0062 0.760372 8.64967 1.02317C10.0554 1.24795 11.2281 1.61278 12.6298 1.86122C14.3926 2.17364 15.9226 2.32471 17.6875 2.62496C18.3801 2.74277 18.9566 2.93085 19.648 3.05516C22.3351 3.53829 24.6545 3.86051 27.3386 4.36017C28.5587 4.58729 29.5828 4.88701 30.7995 5.13111C32.1692 5.40588 33.3496 5.6086 34.7269 5.84236C36.6653 6.17139 38.3289 6.44239 40.2725 6.73901C41.1021 6.86562 41.8214 6.91758 42.6498 7.05147C43.1194 7.12736 43.5203 7.20949 43.9783 7.33792C44.0291 7.35217 44.0565 7.40321 44.0772 7.45175C44.0847 7.46926 44.0793 7.4959 44.061 7.53169L58.761 32.9928L44.061 7.53169L44.061 7.53169Z"
     sodipodi:nodetypes="cccccccccccccccccccccccccccccccccccc" />
  <text
     id="shape6"
     krita:useRichText="true"
     krita:textVersion="2"
     fill="#000000"
     stroke-opacity="0"
     stroke="#000000"
     stroke-width="0"
     stroke-linecap="square"
     stroke-linejoin="bevel"
     font-family="Helvetica"
     font-size="72px"
     font-size-adjust="0.522816"
     font-stretch="normal"
     kerning="0"
     letter-spacing="0"
     word-spacing="0"
     x="262.87097"
     y="307.17911"><tspan
       x="262.87097"
       id="tspan21">[0, 1, 2, 3, 4, 5, 6, 7, 8, 9]</tspan></text>
  <text
     id="shape6-4"
     krita:useRichText="true"
     krita:textVersion="2"
     fill="#000000"
     stroke-opacity="0"
     stroke="#000000"
     stroke-width="0"
     stroke-linecap="square"
     stroke-linejoin="bevel"
     font-family="Helvetica"
     font-size="72px"
     font-size-adjust="0.522816"
     font-stretch="normal"
     kerning="0"
     letter-spacing="0"
     word-spacing="0"
     x="1312.6631"
     y="304.46985"><tspan
       x="1312.6631"
       id="tspan21-8">1</tspan></text>
  <path
     id="shape7"
     transform="translate(1092.06462941306, 185.903161085583)"
     fill="#000000"
     d="M0 0L14.7 25.4611"
     sodipodi:nodetypes="cc" />
  <path
     id="shape03"
     fill="#000000"
     stroke-opacity="0"
     stroke="#000000"
     stroke-width="0"
     stroke-linecap="square"
     stroke-linejoin="bevel"
     d="m 1323.7727,376.42624 c -6.9242,8.48636 -10.3861,12.72954 -10.3861,12.72954 l 20.7721,-25.45922 -20.7721,25.45922 c 0.025,0.12285 0.042,0.21745 0.051,0.28386 0.3394,2.72851 0.6587,5.0657 0.955,7.79676 0.6085,5.60898 1.1516,10.41603 1.6303,16.03136 0.2123,2.48953 0.2711,4.62815 0.3438,7.12164 0.3135,10.75207 1.1215,19.97061 0.7597,30.72145 -0.4188,12.44031 -1.0377,23.1249 -2.9886,35.49166 -2.0304,12.86995 -4.846,23.81542 -8.3718,36.52358 -3.1247,11.26209 -6.4482,20.82803 -10.6172,31.91981 -6.49,17.26548 -12.5008,31.98252 -19.8282,49.08001 -1.9365,4.51861 -3.8359,8.36064 -6.6273,12.64934 -6.2808,9.65033 -15.6928,23.289 -28.2358,40.91678 l 17.4441,-21.38 c -13.0375,13.28566 -23.3506,23.35404 -30.9395,30.20356 -4.578,4.13232 -9.2171,7.26369 -14.5838,10.88894 -11.4507,7.73824 -21.5737,14.14109 -33.4378,21.56037 -5.4009,3.3791 -10.3166,6.0367 -15.8768,9.28264 -1.5355,0.89722 -3.7333,2.17453 -6.5932,3.8335 l -20.0192,24.53613 c 3.0712,-1.92371 5.4335,-3.40231 7.0873,-4.4381 5.9394,-3.71893 11.1219,-6.83481 16.9731,-10.62574 12.084,-7.83035 22.4928,-14.5088 34.2644,-22.57449 5.3358,-3.65545 10.0151,-6.76359 14.5937,-10.90056 7.6255,-6.89287 17.988,-17.02086 31.0877,-30.38625 l 17.4441,-21.38 c 12.7382,-17.86079 22.2975,-31.68138 28.6782,-41.45945 2.7982,-4.28869 4.7101,-8.12994 6.6313,-12.65398 7.1686,-16.87841 12.9836,-31.42049 19.3258,-48.46457 4.1199,-11.07243 7.3829,-20.62135 10.5588,-31.84782 3.6733,-12.98452 6.7476,-24.14984 9.0014,-37.29616 2.1648,-12.6261 2.9491,-23.53952 3.6081,-36.25 0.5717,-11.0307 0.027,-20.49951 -0.094,-31.53731 -0.027,-2.50177 -0.1742,-4.64496 -0.3251,-7.14447 -0.3522,-5.83442 -0.8435,-10.82974 -1.1123,-16.66623 -0.1433,-3.10927 -0.06,-5.77729 -0.065,-8.88818 -3e-4,-0.0954 0.016,-0.23116 0.049,-0.4073 l -20.7721,25.45922 20.7721,-25.45922 v 0 c 0,0 -3.462,4.2432 -10.386,12.72968 z"
     sodipodi:nodetypes="ccccccccccccccccccccccccccccccccccccccccccc" />
  <path
     id="shape03-2"
     fill="#000000"
     stroke-opacity="0"
     stroke="#000000"
     stroke-width="0"
     stroke-linecap="square"
     stroke-linejoin="bevel"
     d="m 793.0499,372.89915 c 6.91634,8.34886 10.37445,12.52328 10.37445,12.52328 l -20.74895,-25.0467 20.74895,25.0467 c -0.0253,0.12086 -0.042,0.21393 -0.0502,0.27927 -0.33902,2.6843 -0.65792,4.98362 -0.95389,7.67043 -0.6079,5.51809 -1.15048,10.24726 -1.6286,15.7716 -0.21205,2.44919 -0.27071,4.55316 -0.34334,7.00625 -0.31324,10.57786 -1.12024,19.64703 -0.75879,30.22367 0.41828,12.23875 1.03649,22.75021 2.98515,34.9166 2.0281,12.66142 4.84059,23.42954 8.36235,35.93179 3.12127,11.07961 6.4411,20.49056 10.6055,31.40262 6.48265,16.98573 12.48684,31.46431 19.80589,48.28477 1.93439,4.4454 3.8317,8.22517 6.61993,12.44438 6.27391,9.49397 15.67524,22.91166 28.20431,40.25381 l -17.42467,-21.03358 c 13.02296,13.0704 23.32451,22.97564 30.90497,29.71418 4.57286,4.06536 9.20689,7.14599 14.56747,10.71251 11.4379,7.61285 21.5495,13.91196 33.40038,21.21103 5.39482,3.32434 10.30514,5.93888 15.85903,9.13223 1.53386,0.88268 3.7291,2.1393 6.5858,3.77139 l 19.9969,24.13857 c -3.0678,-1.89254 -5.4275,-3.34718 -7.0794,-4.36619 -5.9327,-3.65867 -11.1094,-6.72407 -16.954,-10.45357 -12.07064,-7.70348 -22.46775,-14.27372 -34.22617,-22.20872 -5.32986,-3.59622 -10.00394,-6.654 -14.57744,-10.72394 -7.61703,-6.78119 -17.96793,-16.74507 -31.05287,-29.89391 l -17.42467,-21.03358 c -12.72382,-17.57139 -22.27256,-31.16805 -28.64602,-40.78769 -2.79521,-4.2192 -4.70482,-7.99821 -6.6239,-12.44894 -7.16069,-16.60494 -12.96912,-30.91139 -19.3042,-47.67931 -4.11537,-10.89302 -7.37473,-20.28722 -10.54708,-31.33179 -3.66926,-12.77414 -6.74001,-23.75855 -8.99137,-36.69186 -2.16239,-12.42152 -2.94582,-23.15811 -3.60396,-35.66264 -0.57116,-10.85197 -0.0256,-20.16736 0.0939,-31.02632 0.0271,-2.46123 0.17403,-4.5697 0.32476,-7.02871 0.35183,-5.73988 0.84264,-10.65426 1.11111,-16.39619 0.14303,-3.05889 0.0597,-5.68368 0.0644,-8.74416 1.6e-4,-0.0939 -0.0166,-0.22742 -0.0503,-0.4007 l 20.74895,25.0467 -20.74895,-25.0467 v 0 c 0,0 3.45816,4.17445 10.3745,12.52342 z"
     sodipodi:nodetypes="ccccccccccccccccccccccccccccccccccccccccccc" />
  <g
     id="g356">
    <path
       id="path26"
       fill="#000000"
       stroke-opacity="0"
       stroke="#000000"
       stroke-width="0"
       stroke-linecap="square"
       stroke-linejoin="bevel"
       d="m 1144.7292,723.36957 c 6.9176,-9.55077 10.3764,-14.32616 10.3764,-14.32616 l -20.7529,28.65243 20.7529,-28.65243 c -0.1472,-2.50107 -0.23,-4.42552 -0.2484,-5.77345 -0.1009,-7.3827 -0.1845,-13.71162 -0.1186,-21.09465 0.012,-1.36852 0.3072,-2.53246 0.3416,-3.90077 0.1065,-4.23646 -0.083,-7.87064 0.061,-12.10642 0.073,-2.13444 0.3847,-3.95378 0.5575,-6.0845 0.1127,-1.38856 0.1751,-2.58041 0.258,-3.97021 0.057,-0.94933 0.1023,-1.76329 0.1406,-2.71319 0.1065,-2.64637 0.2482,-6.42719 0.4251,-11.34244 l -20.6024,28.4447 c -0.028,4.71856 -0.061,8.34812 -0.096,10.8887 -0.013,0.92773 -0.043,1.72278 -0.095,2.64961 -0.079,1.40004 -0.1794,2.59864 -0.278,3.99789 -0.1454,2.06275 -0.3727,3.82774 -0.4191,5.8933 -0.094,4.19888 0.1,7.79952 0.017,11.99851 -0.027,1.36222 -0.3051,2.52144 -0.3292,3.88378 -0.1327,7.49714 -0.02,13.92475 -0.1186,21.42223 -0.02,1.50784 -0.1026,3.66096 -0.2485,6.45934 l 20.7529,-28.65243 -20.7529,28.65243 v 0 c 0,0 3.4589,-4.77538 10.3765,-14.32627 z"
       sodipodi:nodetypes="ccccccccccccccccccccccccc" />
    <path
       id="path28"
       fill="#000000"
       stroke-opacity="0"
       stroke="#000000"
       stroke-width="0"
       stroke-linecap="square"
       stroke-linejoin="bevel"
       d="m 1138.9234,736.78627 20.7529,-28.65245 -20.7529,28.65245 c 0,-0.0695 0,-0.12053 0.023,-0.15305 0.039,-0.0665 0.081,-0.13347 0.1654,-0.16362 0.7242,-0.25951 1.3576,-0.46455 2.1155,-0.65372 1.2716,-0.31745 2.375,-0.5594 3.6751,-0.79201 2.8032,-0.50157 5.2224,-0.87147 8.0434,-1.30472 1.9298,-0.2963 3.5943,-0.50562 5.5294,-0.77964 1.6618,-0.23542 3.0771,-0.48153 4.7472,-0.67599 3.7019,-0.43101 6.8976,-0.67138 10.5979,-1.11049 0.9778,-0.11602 1.7854,-0.34795 2.761,-0.47478 2.4785,-0.3223 4.6248,-0.48401 7.103,-0.808 1.9514,-0.25522 3.5932,-0.61432 5.5491,-0.84648 2.3177,-0.27514 4.3163,-0.45531 6.6525,-0.60206 1.7554,-0.11028 3.2708,-0.0451 5.0283,-0.13166 0.084,-0.004 0.1924,-0.048 0.3234,-0.13189 l 20.6425,-28.50007 c -0.133,0.0848 -0.2426,0.13127 -0.3289,0.1395 -1.8202,0.17349 -3.392,0.2337 -5.2147,0.38892 -2.3364,0.19897 -4.3475,0.32726 -6.6677,0.623 -1.9845,0.25295 -3.6401,0.66351 -5.619,0.94309 -2.4886,0.35158 -4.6486,0.52159 -7.1402,0.85947 -0.9778,0.13258 -1.7917,0.34423 -2.7678,0.48412 -3.7935,0.54369 -7.068,0.9063 -10.8573,1.46859 -1.7225,0.25558 -3.1683,0.59287 -4.886,0.86757 -1.9336,0.30921 -3.6001,0.53734 -5.5445,0.8004 -2.7366,0.37027 -5.0852,0.67523 -7.8291,1.00903 -1.1712,0.14248 -2.1866,0.20096 -3.3562,0.35163 -0.6629,0.0854 -1.2289,0.17782 -1.8755,0.32235 -0.072,0.016 -0.1104,0.0735 -0.1396,0.1281 -0.011,0.0197 0,0.0497 0.023,0.09 l -20.7529,28.65245 20.7529,-28.65245 v 0 z"
       sodipodi:nodetypes="cccccccccccccccccccccccccccccccccccc" />
  </g>
  <path
     id="path26-5"
     fill="#000000"
     stroke-opacity="0"
     stroke="#000000"
     stroke-width="0"
     stroke-linecap="square"
     stroke-linejoin="bevel"
     d="m 981.16482,729.86728 c -8.6028,-9.55077 -12.9042,-14.32616 -12.9042,-14.32616 l 25.80852,28.65243 -25.80852,-28.65243 c 0.18306,-2.50107 0.28604,-4.42552 0.30892,-5.77345 0.12548,-7.3827 0.22944,-13.71162 0.14749,-21.09465 -0.0149,-1.36852 -0.38204,-2.53246 -0.42482,-3.90077 -0.13244,-4.23646 0.10322,-7.87064 -0.0759,-12.10642 -0.0908,-2.13444 -0.47841,-3.95378 -0.69331,-6.0845 -0.14016,-1.38856 -0.21776,-2.58041 -0.32085,-3.97021 -0.0709,-0.94933 -0.12722,-1.76329 -0.17485,-2.71319 -0.13245,-2.64637 -0.30867,-6.42719 -0.52866,-11.34244 l 25.62135,28.4447 c 0.0348,4.71856 0.0759,8.34812 0.11939,10.8887 0.0162,0.92773 0.0535,1.72278 0.11814,2.64961 0.0982,1.40004 0.2231,2.59864 0.34572,3.99789 0.18082,2.06275 0.4635,3.82774 0.5212,5.8933 0.1169,4.19888 -0.12436,7.79952 -0.0211,11.99851 0.0336,1.36222 0.37942,2.52144 0.40939,3.88378 0.16503,7.49714 0.0249,13.92475 0.1475,21.42223 0.0249,1.50784 0.12759,3.66096 0.30903,6.45934 l -25.80851,-28.65243 25.80851,28.65243 v 0 c 0,0 -4.30152,-4.77538 -12.90432,-14.32627 z"
     sodipodi:nodetypes="ccccccccccccccccccccccccc" />
  <path
     id="path28-9"
     fill="#000000"
     stroke-opacity="0"
     stroke="#000000"
     stroke-width="0"
     stroke-linecap="square"
     stroke-linejoin="bevel"
     d="m 989.88497,741.78398 -25.80851,-28.65245 25.80851,28.65245 c 0,-0.0695 0,-0.12053 -0.0286,-0.15305 -0.0485,-0.0665 -0.10073,-0.13347 -0.2057,-0.16362 -0.90062,-0.25951 -1.68832,-0.46455 -2.63085,-0.65372 -1.58138,-0.31745 -2.95358,-0.5594 -4.57039,-0.79201 -3.48609,-0.50157 -6.49463,-0.87147 -10.00286,-1.30472 -2.39991,-0.2963 -4.4699,-0.50562 -6.87641,-0.77964 -2.06663,-0.23542 -3.82672,-0.48153 -5.90367,-0.67599 -4.60372,-0.43101 -8.57792,-0.67138 -13.17965,-1.11049 -1.21601,-0.11602 -2.22034,-0.34795 -3.43361,-0.47478 -3.08229,-0.3223 -5.75145,-0.48401 -8.83336,-0.808 -2.42678,-0.25522 -4.46854,-0.61432 -6.90092,-0.84648 -2.88231,-0.27514 -5.36779,-0.45531 -8.27311,-0.60206 -2.18304,-0.11028 -4.0676,-0.0451 -6.25325,-0.13166 -0.10446,-0.004 -0.23927,-0.048 -0.40218,-0.13189 L 886.71919,704.6558 c 0.1654,0.0848 0.3017,0.13127 0.40902,0.1395 2.26362,0.17349 4.21833,0.2337 6.48506,0.38892 2.90557,0.19897 5.40659,0.32726 8.29201,0.623 2.46795,0.25295 4.52687,0.66351 6.98785,0.94309 3.09485,0.35158 5.78104,0.52159 8.87962,0.85947 1.216,0.13258 2.22818,0.34423 3.44207,0.48412 4.71763,0.54369 8.78983,0.9063 13.50224,1.46859 2.14212,0.25558 3.94013,0.59287 6.07628,0.86757 2.40465,0.30921 4.47712,0.53734 6.8952,0.8004 3.40326,0.37027 6.324,0.67523 9.73634,1.00903 1.45652,0.14248 2.71928,0.20096 4.17381,0.35163 0.82439,0.0854 1.52827,0.17782 2.33239,0.32235 0.0895,0.016 0.13729,0.0735 0.17361,0.1281 0.0137,0.0197 0,0.0497 -0.0286,0.09 l 25.80852,28.65245 -25.80852,-28.65245 v 0 z"
     sodipodi:nodetypes="cccccccccccccccccccccccccccccccccccc" />
  <text
     id="shape8"
     krita:useRichText="true"
     krita:textVersion="2"
     transform="translate(46.193892,212.32404)"
     fill="#000000"
     stroke-opacity="0"
     stroke="#000000"
     stroke-width="0"
     stroke-linecap="square"
     stroke-linejoin="bevel"
     font-family="Helvetica"
     font-size="144px"
     font-size-adjust="0.522816"
     font-stretch="normal"
     font-style="italic"
     font-weight="300"
     kerning="0"
     letter-spacing="0"
     word-spacing="0"><tspan
       x="0"
       id="tspan30">Arguments:</tspan></text>
  <text
     id="shape9"
     krita:useRichText="true"
     krita:textVersion="2"
     transform="translate(185.943429913861, 2428.3068128426)"
     fill="#000000"
     stroke-opacity="0"
     stroke="#000000"
     stroke-width="0"
     stroke-linecap="square"
     stroke-linejoin="bevel"
     font-family="Helvetica"
     font-size="96"
     font-size-adjust="0.522816"
     font-stretch="normal"
     font-style="italic"
     font-weight="300"
     letter-spacing="0"
     word-spacing="0"><tspan
       x="0"
       id="tspan33">Example return value:</tspan></text>
  <text
     id="shape10"
     krita:useRichText="true"
     krita:textVersion="2"
     transform="translate(73.9362568519969, 1025.33653876273)"
     fill="#000000"
     stroke-opacity="0"
     stroke="#000000"
     stroke-width="0"
     stroke-linecap="square"
     stroke-linejoin="bevel"
     font-family="Helvetica"
     font-size="144"
     font-size-adjust="0.522816"
     font-stretch="normal"
     font-style="italic"
     font-weight="300"
     letter-spacing="0"
     word-spacing="0"><tspan
       x="0"
       id="tspan36">Name:</tspan></text>
  <text
     id="shape11"
     krita:useRichText="true"
     krita:textVersion="2"
     transform="translate(88.988316366484, 1246.98913077525)"
     fill="#000000"
     stroke-opacity="0"
     stroke="#000000"
     stroke-width="0"
     stroke-linecap="square"
     stroke-linejoin="bevel"
     font-family="American Typewriter"
     font-size="144"
     font-size-adjust="0.433409"
     font-stretch="normal"
     font-weight="300"
     kerning="0"
     letter-spacing="0"
     word-spacing="0"><tspan
       x="0"
       id="tspan39">sample</tspan></text>
  <path
     id="shape12"
     fill="#000000"
     d="m 1024.7429,1112.6171 c -4.9,-7.7763 -7.35,-11.6644 -7.35,-11.6644 0.116,-0.072 0.209,-0.1161 0.28,-0.1338 2.408,-0.6019 4.465,-1.1481 6.898,-1.6602 4.734,-0.9968 8.758,-2.0722 13.575,-2.6499 9.639,-1.1562 17.942,-2.165 27.663,-2.2962 12.632,-0.1705 23.521,0.036 36.062,1.4362 18.554,2.0709 34.491,4.2166 52.599,8.4597 13.997,3.2798 26.098,6.6148 38.782,12.9528 11.695,5.8436 20.39,13.0008 30.025,21.4291 12.036,10.5288 21.605,20.3527 31.641,32.5151 6.289,7.6232 14.221,19.1799 23.794,34.6709 l 10.047,15.9454 c 12.813,22.0485 21.844,39.3353 27.092,51.8586 7.552,18.0198 13.315,33.9185 16.832,52.9508 3.644,19.7121 4.746,37.0722 3.497,57.0326 -1.2,19.1908 -4.207,35.7272 -10.446,54.0796 -6.353,18.6859 -14.54,33.9744 -25.247,50.9094 -10.555,16.6949 -20.615,30.7895 -35.202,44.7036 -10.749,10.2528 -22.342,17.0615 -36.219,23.422 -15.403,7.0597 -29.875,10.7018 -46.584,14.5308 -13.491,3.0914 -25.478,4.0553 -39.332,5.1575 -22.992,1.8279 -42.79,4.1552 -65.845,3.2051 -39.04,-1.6071 -72.47,-4.8855 -111.06798,-10.4901 -20.301,-2.9476 -37.343,-7.647 -56.74,-13.8775 -16.827,-5.4049 -31.0812,-10.907 -46.4085,-19.2549 -13.2269,-7.2035 -24.0041,-14.6297 -34.592,-24.8605 -6.4078,-6.1911 -13.8869,-16.2716 -22.4372,-30.2416 l -10.8171,-17.1668 c -5.90667,-13.2581 -9.54192,-23.6575 -10.90575,-31.1982 -1.75807,-9.7205 -1.75433,-18.4578 0.1719,-28.1526 1.69977,-8.554 4.77038,-15.8373 10.00965,-23.0875 5.2055,-7.2027 11.6443,-12.144 19.1928,-17.3198 7.1207,-4.8836 13.8967,-8.5083 22.3131,-11.1443 12.0164,-3.7622 22.9197,-5.2373 35.4797,-6.9534 6.4601,-0.8824 12.1374,-0.8247 18.6554,-0.4426 11.664,0.6845 21.829,0.919 33.177,3.4845 13.503,3.052 24.529,7.4921 37.339,12.4564 5.035,1.9516 9.111,4.222 13.477,7.2374 7.964,5.4975 14.829,10.3096 21.625,16.9954 6.10198,6.0033 10.07198,12.1394 14.97098,19.0066 1.612,2.2595 3.576,5.6716 5.891,10.2354 l 12.83,20.3618 c 2.245,4.4777 3.894,7.9512 4.949,10.4204 2.291,5.3674 4.35,9.9523 6.11,15.4855 2.767,8.6961 4.451,16.3211 6.808,25.118 2.061,7.6946 3.822,14.2907 5.814,22.0009 2.205,8.5302 3.86,15.8941 6.177,24.4005 2.415,8.8638 4.045,16.5987 7.342,25.2206 9.131,23.8783 17.817,44.0678 28.129,67.5393 4.529,10.3077 9.227,18.8242 14.258,28.9341 2.118,4.256 4.017,7.8678 6.166,12.11 1.865,3.6815 3.405,6.8627 5.303,10.5295 2.83,5.4663 5.371,10.1016 8.207,15.5652 1.933,3.7246 3.628,6.903 5.421,10.6862 0.672,1.4174 1.079,2.6947 1.617,4.1597 1.032,2.8129 2.095,5.1796 2.868,8.0612 0.393,1.4678 0.409,2.789 0.447,4.3008 0.029,1.1536 -0.075,2.1468 -0.258,3.2875 -0.88,5.4664 -1.685,10.1465 -2.779,15.5799 -0.325,1.6117 -0.809,2.9521 -1.274,4.5345 -0.869,2.9613 -1.675,5.4837 -2.539,8.4459 -0.354,1.2159 -0.537,2.287 -0.941,3.49 -1.081,3.2206 -2.203,5.9254 -3.299,9.1423 -0.24,0.7046 -0.371,1.3286 -0.516,2.0542 -0.229,1.149 -0.28,2.1569 -0.551,3.2976 -0.138,0.5818 -0.428,1.0354 -0.613,1.6062 -0.295,0.908 -0.541,1.6895 -0.756,2.6168 -0.323,1.3963 -0.558,2.6021 -0.781,4.015 -0.137,0.8631 0.04,1.6501 -0.245,2.483 -0.301,0.875 -0.936,1.4742 -1.394,2.2897 -0.359,0.6386 -0.66,1.192 -0.939,1.8627 -0.455,1.0913 -0.685,2.079 -1.155,3.1647 -0.09,0.209 -0.257,0.3473 -0.431,0.5058 -0.126,0.1136 -0.241,0.2428 -0.417,0.263 -0.156,0.018 -0.375,-0.027 -0.658,-0.1365 l -14.506,-23.0207 c 0.266,0.059 0.472,0.082 0.616,0.069 0.177,-0.016 0.337,-0.066 0.475,-0.1695 0.19,-0.1429 0.327,-0.3042 0.429,-0.5085 0.506,-1.0079 0.83,-1.9141 1.299,-2.9366 0.307,-0.6698 0.606,-1.2287 0.918,-1.8966 0.425,-0.9117 0.912,-1.6566 1.189,-2.615 0.239,-0.8301 0.113,-1.5952 0.27,-2.4418 0.251,-1.3542 0.546,-2.5023 0.893,-3.8391 0.237,-0.9125 0.499,-1.6813 0.776,-2.5838 0.185,-0.6029 0.41,-1.104 0.542,-1.7189 0.249,-1.148 0.315,-2.1559 0.545,-3.3076 0.145,-0.7211 0.254,-1.3496 0.526,-2.0396 1.194,-3.0309 2.465,-5.5442 3.656,-8.576 0.45,-1.1472 0.658,-2.1816 1.027,-3.3526 0.915,-2.9017 1.751,-5.3747 2.642,-8.2828 0.482,-1.5751 0.976,-2.9119 1.28,-4.5245 1.045,-5.5478 1.766,-10.3297 2.569,-15.9115 0.169,-1.1719 0.252,-2.1916 0.205,-3.3727 -0.061,-1.5484 -0.103,-2.899 -0.511,-4.4026 -0.783,-2.8852 -1.854,-5.2537 -2.877,-8.0748 -0.501,-1.3845 -0.858,-2.5967 -1.478,-3.9399 -1.602,-3.4716 -3.122,-6.389 -4.865,-9.8038 -2.607,-5.1072 -4.954,-9.4355 -7.562,-14.5418 -1.779,-3.4844 -3.218,-6.5071 -4.971,-10.0026 -2.068,-4.1213 -3.907,-7.6259 -5.945,-11.7591 -4.813,-9.7608 -9.277,-17.9969 -13.629,-27.9364 -10.32,-23.5695 -19.101,-43.8112 -28.276,-67.7738 -3.296,-8.6072 -4.884,-16.3385 -7.319,-25.183 -2.387,-8.6668 -4.159,-16.1571 -6.456,-24.844 -2.069,-7.8229 -3.863,-14.5234 -6.02,-22.3262 -2.514,-9.091 -4.41,-16.9514 -7.326,-25.9407 -1.792,-5.525 -3.822,-10.1181 -6.111,-15.4864 -1.046,-2.4528 -2.681,-5.9034 -4.905,-10.3518 l 12.83,20.3618 c -2.329,-4.5858 -4.304,-8.0153 -5.924,-10.2876 -4.939,-6.9296 -8.951,-13.1106 -15.084,-19.1862 -6.907,-6.8416 -13.83898,-11.8242 -21.92698,-17.4765 -4.363,-3.0493 -8.461,-5.3197 -13.511,-7.2887 -12.831,-5.0037 -23.896,-9.4035 -37.407,-12.5654 -11.467,-2.6846 -21.726,-3.2069 -33.526,-4.0379 -6.53,-0.46 -12.238,-0.5681 -18.709,0.3573 -12.4939,1.7867 -23.281,3.5532 -35.2262,7.3556 -8.4037,2.6745 -15.2647,6.1334 -22.4102,10.9895 -7.5707,5.1447 -13.9397,10.1337 -19.2095,17.2941 -5.25,7.133 -8.4247,14.2797 -10.2402,22.7211 -2.0332,9.4547 -2.1745,18.0042 -0.5661,27.5268 1.2357,7.3162 4.6793,17.4114 10.3305,30.2856 l -10.8171,-17.1668 c 8.7365,14.2522 16.3566,24.5563 22.8601,30.9132 10.8015,10.5579 21.7514,18.2883 35.2166,25.8519 15.5534,8.7355 30.0261,14.583 47.1291,20.3984 19.662,6.6858 36.894,12.023 57.577,15.2051 38.611,5.9409 72.12598,9.266 111.24298,10.7686 22.904,0.8796 42.572,-1.6428 65.353,-3.9866 13.584,-1.3982 25.235,-3.2105 38.367,-6.6877 16.463,-4.3595 30.709,-8.3515 45.894,-15.6265 13.758,-6.5915 25.292,-13.4139 36.078,-23.6447 14.573,-13.8234 24.982,-27.6129 35.493,-44.2446 10.765,-17.0348 18.54,-32.5982 24.944,-51.3876 6.197,-18.1802 9.572,-34.4967 10.807,-53.5097 1.3,-20.0255 0.051,-37.4433 -3.617,-57.2214 -3.526,-19.0158 -9.265,-34.9063 -16.809,-52.9142 -5.242,-12.514 -14.264,-29.7862 -27.066,-51.8182 l 10.047,15.9454 c -9.212,-14.9073 -16.861,-26.0168 -22.947,-33.3266 -9.8,-11.7717 -19.145,-21.2761 -30.936,-31.3982 -9.399,-8.068 -18,-14.7566 -29.343,-20.346 -12.841,-6.3278 -24.923,-9.967 -39.03,-13.3457 -18.129,-4.342 -34.091,-6.6406 -52.703,-8.6252 -12.401,-1.3223 -23.189,-1.3413 -35.659,-0.7968 -9.496,0.4146 -17.567,1.812 -26.887,3.5277 -4.634,0.8532 -8.445,2.2356 -12.857,3.7889 -2.251,0.7921 -4.01,1.8264 -6.122,2.8921 -0.074,0.038 -0.135,0.1341 -0.182,0.2894 v 0 c 0,0 -2.45,-3.8881 -7.35,-11.6643 z"
     sodipodi:nodetypes="ccccccccccccccccccccccccccccccccccccccccccccccccccccccccccccccccccccccccccccccccccccccccccccccccccccccccccccccccccccccccccccccccccccccccccccccccccccccccc"
     style="stroke-width:0.957207" />
  <text
     id="shape13"
     krita:useRichText="true"
     krita:textVersion="2"
     fill="#000000"
     stroke-opacity="0"
     stroke="#000000"
     stroke-width="0"
     stroke-linecap="square"
     stroke-linejoin="bevel"
     font-family="Helvetica"
     font-size="96px"
     font-size-adjust="0.522816"
     font-stretch="normal"
     letter-spacing="0"
     word-spacing="0"
     x="710.26025"
     y="954.10248"
     style="font-stretch:normal;font-size:96px;font-family:Helvetica;letter-spacing:0;word-spacing:0;fill:#000000;stroke:#000000;stroke-width:0;stroke-linecap:square;stroke-linejoin:bevel;stroke-opacity:0"><tspan
       sodipodi:role="line"
       id="tspan341"
       x="710.26025"
       y="954.10248"
       style="font-style:normal;font-variant:normal;font-weight:normal;font-stretch:normal;font-size:72px;font-family:Helvetica;-inkscape-font-specification:'Helvetica, Normal';font-variant-ligatures:normal;font-variant-caps:normal;font-variant-numeric:normal;font-variant-east-asian:normal"><tspan
         x="710.26025"
         id="tspan43"
         style="font-style:normal;font-variant:normal;font-weight:normal;font-stretch:normal;font-size:72px;font-family:Helvetica;-inkscape-font-specification:'Helvetica, Normal';font-variant-ligatures:normal;font-variant-caps:normal;font-variant-numeric:normal;font-variant-east-asian:normal">select specified number</tspan></tspan><tspan
       sodipodi:role="line"
       x="710.26025"
       y="1074.1025"
       style="font-style:normal;font-variant:normal;font-weight:normal;font-stretch:normal;font-size:72px;font-family:Helvetica;-inkscape-font-specification:'Helvetica, Normal';font-variant-ligatures:normal;font-variant-caps:normal;font-variant-numeric:normal;font-variant-east-asian:normal"
       id="tspan350"><tspan
         x="710.26025"
         style="font-style:normal;font-variant:normal;font-weight:normal;font-stretch:normal;font-size:72px;font-family:Helvetica;-inkscape-font-specification:'Helvetica, Normal';font-variant-ligatures:normal;font-variant-caps:normal;font-variant-numeric:normal;font-variant-east-asian:normal"
         dy="0 0 0 0 0 0 0 0 0 0 0 0 0 0"
         id="tspan352">of elements at random ...</tspan></tspan></text>
  <text
     id="shape14"
     krita:useRichText="true"
     krita:textVersion="2"
     transform="translate(1315.73866875489, 2424.90734534064)"
     fill="#000000"
     stroke-opacity="0"
     stroke="#000000"
     stroke-width="0"
     stroke-linecap="square"
     stroke-linejoin="bevel"
     font-family="Helvetica"
     font-size="144"
     font-size-adjust="0.522816"
     font-stretch="normal"
     font-weight="300"
     kerning="0"
     letter-spacing="0"
     word-spacing="0"><tspan
       x="0"
       id="tspan48">8</tspan></text>
</svg>
