<?xml version="1.0" encoding="UTF-8" standalone="no"?>
<!-- Created with Inkscape (http://www.inkscape.org/) -->

<svg
   width="103.70717mm"
   height="70.54628mm"
   viewBox="0 0 103.70717 70.54628"
   version="1.1"
   id="svg4028"
   inkscape:version="1.1 (c4e8f9e, 2021-05-24)"
   sodipodi:docname="success_case3.svg"
   xmlns:inkscape="http://www.inkscape.org/namespaces/inkscape"
   xmlns:sodipodi="http://sodipodi.sourceforge.net/DTD/sodipodi-0.dtd"
   xmlns="http://www.w3.org/2000/svg"
   xmlns:svg="http://www.w3.org/2000/svg">
  <sodipodi:namedview
     id="namedview4030"
     pagecolor="#ffffff"
     bordercolor="#666666"
     borderopacity="1.0"
     inkscape:pageshadow="2"
     inkscape:pageopacity="0.0"
     inkscape:pagecheckerboard="0"
     inkscape:document-units="mm"
     showgrid="false"
     fit-margin-left="5"
     lock-margins="true"
     fit-margin-top="5"
     fit-margin-right="5"
     fit-margin-bottom="5"
     inkscape:zoom="0.7046647"
     inkscape:cx="195.12826"
     inkscape:cy="132.68722"
     inkscape:window-width="1260"
     inkscape:window-height="643"
     inkscape:window-x="0"
     inkscape:window-y="25"
     inkscape:window-maximized="0"
     inkscape:current-layer="layer1" />
  <defs
     id="defs4025">
    <clipPath
       clipPathUnits="userSpaceOnUse"
       id="clipPath3375">
      <path
         d="M 152.04,255.96 H 417.96 V 84 H 152.04 Z"
         id="path3373" />
    </clipPath>
  </defs>
  <g
     inkscape:label="Layer 1"
     inkscape:groupmode="layer"
     id="layer1"
     transform="translate(-53.279159,-113.40689)">
    <g
       id="g3369"
       transform="matrix(0.35274893,0,0,-0.3528661,4.594008,208.63267)">
      <g
         id="g3371"
         clip-path="url(#clipPath3375)">
        <g
           id="g3377"
           transform="scale(1.0064,0.9937)">
          <path
             d="M 163.744,96.767 H 273.166 V 217.074 H 163.744 Z"
             style="fill:#e9e9e9;fill-opacity:1;fill-rule:evenodd;stroke:#231f20;stroke-width:0.486;stroke-linecap:butt;stroke-linejoin:miter;stroke-miterlimit:2.613;stroke-dasharray:none;stroke-opacity:1"
             id="path3379" />
          <path
             d="m 151.466,105.642 12.289,-8.875 h 109.422 l -12.289,8.875 z"
             style="fill:#e9e9e9;fill-opacity:1;fill-rule:evenodd;stroke:#231f20;stroke-width:0.486;stroke-linecap:butt;stroke-linejoin:bevel;stroke-miterlimit:2.613;stroke-dasharray:none;stroke-opacity:1"
             id="path3381" />
          <path
             d="m 260.873,105.642 12.289,-8.875 v 120.306 l -12.289,8.875 z"
             style="fill:#e9e9e9;fill-opacity:1;fill-rule:evenodd;stroke:#231f20;stroke-width:0.486;stroke-linecap:butt;stroke-linejoin:bevel;stroke-miterlimit:2.613;stroke-dasharray:none;stroke-opacity:1"
             id="path3383" />
          <path
             d="M 151.466,105.642 H 260.888 V 225.949 H 151.466 Z"
             style="fill:#ffffff;fill-opacity:1;fill-rule:evenodd;stroke:#231f20;stroke-width:0.486;stroke-linecap:butt;stroke-linejoin:miter;stroke-miterlimit:2.613;stroke-dasharray:none;stroke-opacity:1"
             id="path3385" />
          <path
             d="m 321.898,96.767 h 92.999 v 28.142 h -92.999 z"
             style="fill:#ffffff;fill-opacity:1;fill-rule:evenodd;stroke:#231f20;stroke-width:0.486;stroke-linecap:butt;stroke-linejoin:miter;stroke-miterlimit:2.613;stroke-dasharray:none;stroke-opacity:1"
             id="path3387" />
          <path
             d="m 316.61,103.94 5.272,-7.169 h 92.999 l -5.272,7.169 z"
             style="fill:#e9e9e9;fill-opacity:1;fill-rule:evenodd;stroke:#231f20;stroke-width:0.486;stroke-linecap:butt;stroke-linejoin:bevel;stroke-miterlimit:2.613;stroke-dasharray:none;stroke-opacity:1"
             id="path3389" />
          <path
             d="m 409.667,103.94 5.272,-7.169 v 28.143 l -5.272,7.168 z"
             style="fill:#e9e9e9;fill-opacity:1;fill-rule:evenodd;stroke:#231f20;stroke-width:0.486;stroke-linecap:butt;stroke-linejoin:bevel;stroke-miterlimit:2.613;stroke-dasharray:none;stroke-opacity:1"
             id="path3391" />
          <path
             d="m 316.61,103.94 h 92.999 v 28.142 H 316.61 Z"
             style="fill:#ffffff;fill-opacity:1;fill-rule:evenodd;stroke:#231f20;stroke-width:0.486;stroke-linecap:butt;stroke-linejoin:miter;stroke-miterlimit:2.613;stroke-dasharray:none;stroke-opacity:1"
             id="path3393" />
          <path
             d="m 321.898,145.21 h 92.999 v 28.142 h -92.999 z"
             style="fill:#ffffff;fill-opacity:1;fill-rule:evenodd;stroke:#231f20;stroke-width:0.486;stroke-linecap:butt;stroke-linejoin:miter;stroke-miterlimit:2.613;stroke-dasharray:none;stroke-opacity:1"
             id="path3395" />
          <path
             d="m 316.61,152.383 5.272,-7.169 h 92.999 l -5.272,7.169 z"
             style="fill:#e9e9e9;fill-opacity:1;fill-rule:evenodd;stroke:#231f20;stroke-width:0.486;stroke-linecap:butt;stroke-linejoin:bevel;stroke-miterlimit:2.613;stroke-dasharray:none;stroke-opacity:1"
             id="path3397" />
          <path
             d="m 409.667,152.383 5.272,-7.169 v 28.143 l -5.272,7.168 z"
             style="fill:#e9e9e9;fill-opacity:1;fill-rule:evenodd;stroke:#231f20;stroke-width:0.486;stroke-linecap:butt;stroke-linejoin:bevel;stroke-miterlimit:2.613;stroke-dasharray:none;stroke-opacity:1"
             id="path3399" />
          <path
             d="m 316.61,152.383 h 92.999 v 28.142 H 316.61 Z"
             style="fill:#ffffff;fill-opacity:1;fill-rule:evenodd;stroke:#231f20;stroke-width:0.486;stroke-linecap:butt;stroke-linejoin:miter;stroke-miterlimit:2.613;stroke-dasharray:none;stroke-opacity:1"
             id="path3401" />
          <path
             d="m 321.898,190.554 h 92.999 v 28.142 h -92.999 z"
             style="fill:#ffffff;fill-opacity:1;fill-rule:evenodd;stroke:#231f20;stroke-width:0.486;stroke-linecap:butt;stroke-linejoin:miter;stroke-miterlimit:2.613;stroke-dasharray:none;stroke-opacity:1"
             id="path3403" />
          <path
             d="m 316.61,197.726 5.272,-7.169 h 92.999 l -5.272,7.169 z"
             style="fill:#e9e9e9;fill-opacity:1;fill-rule:evenodd;stroke:#231f20;stroke-width:0.486;stroke-linecap:butt;stroke-linejoin:bevel;stroke-miterlimit:2.613;stroke-dasharray:none;stroke-opacity:1"
             id="path3405" />
          <path
             d="m 409.667,197.726 5.272,-7.169 V 218.7 l -5.272,7.168 z"
             style="fill:#e9e9e9;fill-opacity:1;fill-rule:evenodd;stroke:#231f20;stroke-width:0.486;stroke-linecap:butt;stroke-linejoin:bevel;stroke-miterlimit:2.613;stroke-dasharray:none;stroke-opacity:1"
             id="path3407" />
          <path
             d="m 316.61,197.726 h 92.999 v 28.142 H 316.61 Z"
             style="fill:#ffffff;fill-opacity:1;fill-rule:evenodd;stroke:#231f20;stroke-width:0.486;stroke-linecap:butt;stroke-linejoin:miter;stroke-miterlimit:2.613;stroke-dasharray:none;stroke-opacity:1"
             id="path3409" />
          <path
             d="m 169.695,106.31 c 9.839,0 17.864,8.025 17.864,17.864 0,9.839 -8.025,17.864 -17.864,17.864 -9.839,0 -17.864,-8.025 -17.864,-17.864 0,-9.839 8.025,-17.864 17.864,-17.864 z"
             style="fill:#ffffff;fill-opacity:1;fill-rule:evenodd;stroke:#231f20;stroke-width:0.486;stroke-linecap:butt;stroke-linejoin:miter;stroke-miterlimit:2.613;stroke-dasharray:none;stroke-opacity:1"
             id="path3411" />
          <path
             d="m 187.747,137.674 c 9.839,0 17.864,8.024 17.864,17.864 0,9.839 -8.025,17.863 -17.864,17.863 -9.839,0 -17.864,-8.024 -17.864,-17.863 0,-9.84 8.025,-17.864 17.864,-17.864 z"
             style="fill:#ffffff;fill-opacity:1;fill-rule:evenodd;stroke:#231f20;stroke-width:0.486;stroke-linecap:butt;stroke-linejoin:miter;stroke-miterlimit:2.613;stroke-dasharray:none;stroke-opacity:1"
             id="path3413" />
          <path
             d="m 223.852,137.674 c 9.838,0 17.863,8.024 17.863,17.864 0,9.839 -8.025,17.863 -17.863,17.863 -9.84,0 -17.865,-8.024 -17.865,-17.863 0,-9.84 8.025,-17.864 17.865,-17.864 z"
             style="fill:#ffffff;fill-opacity:1;fill-rule:evenodd;stroke:#231f20;stroke-width:0.486;stroke-linecap:butt;stroke-linejoin:miter;stroke-miterlimit:2.613;stroke-dasharray:none;stroke-opacity:1"
             id="path3415" />
          <path
             d="m 205.982,168.915 c 9.839,0 17.864,8.025 17.864,17.864 0,9.839 -8.025,17.864 -17.864,17.864 -9.84,0 -17.864,-8.025 -17.864,-17.864 0,-9.839 8.024,-17.864 17.864,-17.864 z"
             style="fill:#ffffff;fill-opacity:1;fill-rule:evenodd;stroke:#231f20;stroke-width:0.486;stroke-linecap:butt;stroke-linejoin:miter;stroke-miterlimit:2.613;stroke-dasharray:none;stroke-opacity:1"
             id="path3417" />
          <path
             d="m 205.799,106.31 c 9.839,0 17.864,8.025 17.864,17.864 0,9.839 -8.025,17.864 -17.864,17.864 -9.839,0 -17.864,-8.025 -17.864,-17.864 0,-9.839 8.025,-17.864 17.864,-17.864 z"
             style="fill:#ffffff;fill-opacity:1;fill-rule:evenodd;stroke:#231f20;stroke-width:0.486;stroke-linecap:butt;stroke-linejoin:miter;stroke-miterlimit:2.613;stroke-dasharray:none;stroke-opacity:1"
             id="path3419" />
          <path
             d="m 242.268,106.31 c 9.839,0 17.864,8.025 17.864,17.864 0,9.839 -8.025,17.864 -17.864,17.864 -9.839,0 -17.864,-8.025 -17.864,-17.864 0,-9.839 8.025,-17.864 17.864,-17.864 z"
             style="fill:#ffffff;fill-opacity:1;fill-rule:evenodd;stroke:#231f20;stroke-width:0.486;stroke-linecap:butt;stroke-linejoin:miter;stroke-miterlimit:2.613;stroke-dasharray:none;stroke-opacity:1"
             id="path3421" />
          <path
             d="m 332.381,198.698 c 7.28,0 13.218,5.938 13.218,13.218 0,7.28 -5.938,13.218 -13.218,13.218 -7.28,0 -13.218,-5.938 -13.218,-13.218 0,-7.28 5.938,-13.218 13.218,-13.218 z"
             style="fill:#ffffff;fill-opacity:1;fill-rule:evenodd;stroke:#231f20;stroke-width:0.486;stroke-linecap:butt;stroke-linejoin:miter;stroke-miterlimit:2.613;stroke-dasharray:none;stroke-opacity:1"
             id="path3423" />
          <path
             d="m 363.136,198.698 c 7.28,0 13.218,5.938 13.218,13.218 0,7.28 -5.938,13.218 -13.218,13.218 -7.28,0 -13.218,-5.938 -13.218,-13.218 0,-7.28 5.938,-13.218 13.218,-13.218 z"
             style="fill:#ffffff;fill-opacity:1;fill-rule:evenodd;stroke:#231f20;stroke-width:0.486;stroke-linecap:butt;stroke-linejoin:miter;stroke-miterlimit:2.613;stroke-dasharray:none;stroke-opacity:1"
             id="path3425" />
          <path
             d="m 394.135,198.698 c 7.28,0 13.218,5.938 13.218,13.218 0,7.28 -5.938,13.218 -13.218,13.218 -7.28,0 -13.218,-5.938 -13.218,-13.218 0,-7.28 5.938,-13.218 13.218,-13.218 z"
             style="fill:#ffffff;fill-opacity:1;fill-rule:evenodd;stroke:#231f20;stroke-width:0.486;stroke-linecap:butt;stroke-linejoin:miter;stroke-miterlimit:2.613;stroke-dasharray:none;stroke-opacity:1"
             id="path3427" />
          <path
             d="M 347.791,225.807 V 197.74 m 30.999,28.067 V 197.74"
             style="fill:none;stroke:#231f20;stroke-width:0.486;stroke-linecap:butt;stroke-linejoin:miter;stroke-miterlimit:2.613;stroke-dasharray:none;stroke-opacity:1"
             id="path3429" />
          <path
             d="m 332.381,153.355 c 7.28,0 13.218,5.938 13.218,13.218 0,7.28 -5.938,13.218 -13.218,13.218 -7.28,0 -13.218,-5.938 -13.218,-13.218 0,-7.28 5.938,-13.218 13.218,-13.218 z"
             style="fill:#ffffff;fill-opacity:1;fill-rule:evenodd;stroke:#231f20;stroke-width:0.486;stroke-linecap:butt;stroke-linejoin:miter;stroke-miterlimit:2.613;stroke-dasharray:none;stroke-opacity:1"
             id="path3431" />
          <path
             d="m 363.136,153.355 c 7.28,0 13.218,5.938 13.218,13.218 0,7.28 -5.938,13.218 -13.218,13.218 -7.28,0 -13.218,-5.938 -13.218,-13.218 0,-7.28 5.938,-13.218 13.218,-13.218 z"
             style="fill:#ffffff;fill-opacity:1;fill-rule:evenodd;stroke:#231f20;stroke-width:0.486;stroke-linecap:butt;stroke-linejoin:miter;stroke-miterlimit:2.613;stroke-dasharray:none;stroke-opacity:1"
             id="path3433" />
          <path
             d="m 394.135,153.355 c 7.28,0 13.218,5.938 13.218,13.218 0,7.28 -5.938,13.218 -13.218,13.218 -7.28,0 -13.218,-5.938 -13.218,-13.218 0,-7.28 5.938,-13.218 13.218,-13.218 z"
             style="fill:#ffffff;fill-opacity:1;fill-rule:evenodd;stroke:#231f20;stroke-width:0.486;stroke-linecap:butt;stroke-linejoin:miter;stroke-miterlimit:2.613;stroke-dasharray:none;stroke-opacity:1"
             id="path3435" />
          <path
             d="m 347.791,180.525 v -28.067 m 30.999,28.067 v -28.067 m -30.999,-20.437 v -28.067 m 30.999,28.067 v -28.067"
             style="fill:none;stroke:#231f20;stroke-width:0.486;stroke-linecap:butt;stroke-linejoin:miter;stroke-miterlimit:2.613;stroke-dasharray:none;stroke-opacity:1"
             id="path3437" />
        </g>
        <text
           transform="matrix(1,0,0,-0.98733495,289.721,85.584)"
           style="font-variant:normal;font-weight:normal;font-size:7.422px;font-family:Swis721BT;-inkscape-font-specification:Swis721BT;writing-mode:lr-tb;fill:#231f20;fill-opacity:1;fill-rule:nonzero;stroke:none"
           id="text3441"><tspan
             x="0 4.6090622 6.45714 10.554084 16.424887 22.332798 42.951115 73.232872 104.55371"
             y="0"
             sodipodi:role="line"
             id="tspan3439">pick#:123</tspan></text>
        <text
           transform="matrix(1,0,0,-0.98742402,204.501,182.76)"
           style="font-variant:normal;font-weight:normal;font-size:9.542px;font-family:Swis721BT;-inkscape-font-specification:Swis721BT;writing-mode:lr-tb;fill:#231f20;fill-opacity:1;fill-rule:nonzero;stroke:none"
           id="text3463"><tspan
             x="0"
             y="0"
             id="tspan3443">5</tspan><tspan
             x="-18.28915"
             y="31.439936"
             id="tspan3445">1</tspan><tspan
             x="157.87239"
             y="-24.834009"
             id="tspan3447">2</tspan><tspan
             x="157.87239"
             y="20.368353"
             id="tspan3449">2</tspan><tspan
             x="189.19019"
             y="-24.834009"
             id="tspan3451">3</tspan><tspan
             x="127.35039"
             y="20.368353"
             id="tspan3453">3</tspan><tspan
             x="127.59467"
             y="-24.834009"
             id="tspan3455">1</tspan><tspan
             x="190.47453"
             y="20.368353"
             id="tspan3457">1</tspan><tspan
             x="18.288197"
             y="31.439936"
             id="tspan3459">3</tspan><tspan
             x="-36.334026 0.0019084 36.948532"
             y="63.125099"
             sodipodi:role="line"
             id="tspan3461">426</tspan></text>
        <g
           id="g3465"
           transform="scale(1.0064,0.9937)">
          <path
             d="m 203.036,164.618 129.6,80.104 V 225.075 M 235.062,169.473 393.904,256.29 V 224.961 M 221.627,132.699 362.718,254.978 v -30.001 m -123.349,-60.359 93.264,22.302 v -7.017 m -109.83,-49.219 139.915,56.285 v -7.434 m -158.879,-16.06 189.904,22.453 0.114,-6.41"
             style="fill:none;stroke:#231f20;stroke-width:1.216;stroke-linecap:butt;stroke-linejoin:miter;stroke-miterlimit:2.613;stroke-dasharray:none;stroke-opacity:1"
             id="path3467" />
        </g>
      </g>
    </g>
  </g>
</svg>
